Symbols-Medium.sfdir
StartChar: uF02BF
Encoding: 983743 983743 234
Width: 1000
Flags: MW
LayerCount: 2
Fore
SplineSet
116 260 m 0
 116 323 134 373 170 412 c 0
 206 451 251 470 308 470 c 0
 395 470 459 422 502 327 c 1
 504 327 l 1
 544 422 607 470 692 470 c 0
 749 470 794 451 830 412 c 0
 866 373 884 323 884 260 c 0
 884 203 865 153 828 112 c 0
 791 71 747 50 692 50 c 0
 605 50 541 98 498 193 c 1
 496 193 l 1
 456 98 393 50 308 50 c 0
 251 50 206 69 170 108 c 0
 134 147 116 197 116 260 c 0
470 257 m 1
 457 304 435 341 408 366 c 0
 381 391 350 403 314 403 c 0
 275 403 243 390 219 364 c 0
 195 338 184 304 184 260 c 0
 184 217 195 182 218 156 c 0
 241 130 274 117 314 117 c 0
 351 117 382 130 409 154 c 0
 436 178 457 212 470 257 c 1
816 260 m 0
 816 303 805 338 782 364 c 0
 759 390 726 403 686 403 c 0
 649 403 617 390 590 366 c 0
 563 342 543 308 530 263 c 1
 543 216 563 179 590 154 c 0
 617 129 649 117 686 117 c 0
 724 117 756 132 780 160 c 0
 804 188 816 221 816 260 c 0
EndSplineSet
EndChar
StartChar: uF02C0
Encoding: 983744 983744 235
Width: 1000
Flags: MW
LayerCount: 2
Fore
SplineSet
261 150 m 27
 261 186 289 215 325 215 c 27
 360 215 388 185 388 150 c 27
 388 115 360 85 325 85 c 27
 289 85 261 114 261 150 c 27
611 150 m 3
 611 190 635 215 675 215 c 3
 715 215 738 190 738 150 c 3
 738 110 714 85 675 85 c 3
 636 85 611 110 611 150 c 3
436 450 m 31
 436 486 464 515 500 515 c 31
 535 515 564 485 564 450 c 31
 564 415 535 385 500 385 c 31
 464 385 436 414 436 450 c 31
EndSplineSet
Colour: 8080ff
EndChar
StartChar: uF02C2
Encoding: 983746 983746 235
Width: 1000
Flags: MW
LayerCount: 2
Fore
SplineSet
260 107 m 1
 260 153 l 1
 477 153 l 1
 477 271 l 1
 416 277 365 302 323 348 c 0
 281 394 260 448 260 510 c 0
 260 576 283 633 330 680 c 0
 377 727 434 750 500 750 c 0
 566 750 623 727 670 680 c 0
 717 633 740 576 740 510 c 0
 740 448 719 394 677 348 c 0
 635 302 584 277 523 271 c 1
 523 153 l 1
 740 153 l 1
 740 107 l 1
 523 107 l 1
 523 -90 l 1
 477 -90 l 1
 477 107 l 1
 260 107 l 1
307 510 m 0
 307 457 326 412 364 374 c 0
 402 336 447 317 500 317 c 0
 553 317 598 336 636 374 c 0
 674 412 693 457 693 510 c 0
 693 563 674 608 636 646 c 0
 598 684 553 703 500 703 c 0
 447 703 402 684 364 646 c 0
 326 608 307 563 307 510 c 0
EndSplineSet
Colour: ff
EndChar
StartChar: uF02D1
Encoding: 983761 983761 200
Width: 1000
VWidth: 940
Flags: MW
LayerCount: 2
Fore
SplineSet
500 167 m 1
 708 16 l 1
 629 261 l 1
 837 412 l 1
 579 412 l 1
 500 656 l 1
 421 412 l 1
 163 412 l 1
 371 261 l 1
 292 16 l 1
 500 167 l 1
500 114 m 1
 210 -98 l 1
 320 244 l 1
 30 455 l 1
 389 455 l 1
 500 796 l 1
 611 455 l 1
 970 455 l 1
 680 244 l 1
 790 -98 l 1
 500 114 l 1
EndSplineSet
Colour: ff
EndChar
StartChar: uF02D2
Encoding: 983762 983762 201
Width: 1000
VWidth: 940
Flags: MW
LayerCount: 2
Fore
SplineSet
970 455 m 1
 680 244 l 1
 790 -98 l 1
 500 114 l 1
 210 -98 l 1
 320 244 l 1
 30 455 l 1
 389 455 l 1
 500 796 l 1
 611 455 l 1
 970 455 l 1
EndSplineSet
Colour: ff
EndChar
StartChar: uF02D6
Encoding: 983766 983766 205
Width: 1000
Flags: MW
LayerCount: 2
Fore
SplineSet
957 284 m 1
 499 -172 l 1
 43 284 l 1
 499 741 l 1
 957 284 l 1
904 284 m 1
 499 688 l 1
 96 284 l 1
 499 -119 l 1
 904 284 l 1
EndSplineSet
Colour: ff
EndChar
StartChar: uF02D7
Encoding: 983767 983767 206
Width: 1000
VWidth: 940
Flags: MW
LayerCount: 2
Fore
SplineSet
500 -165 m 1
 30 305 l 1
 500 775 l 1
 970 305 l 1
 500 -165 l 1
EndSplineSet
Colour: ff
EndChar
StartChar: uF02D9
Encoding: 983769 983769 208
Width: 1000
Flags: MW
LayerCount: 2
Fore
SplineSet
894 -66 m 1
 106 -66 l 1
 106 722 l 1
 894 722 l 1
 894 -66 l 1
EndSplineSet
Colour: ff
EndChar
StartChar: uF02DB
Encoding: 983771 983771 210
Width: 1000
Flags: MW
LayerCount: 2
Fore
SplineSet
934 -49 m 1
 66 -49 l 1
 500 648 l 1
 934 -49 l 1
EndSplineSet
Colour: ff
EndChar
StartChar: uF02DE
Encoding: 983774 983774 234
Width: 1000
Flags: MW
LayerCount: 2
Fore
SplineSet
270 299 m 0
 270 279 262 262 248 247 c 0
 234 232 217 225 197 225 c 0
 176 225 158 232 144 247 c 0
 130 262 123 279 123 299 c 0
 123 319 130 336 144 350 c 0
 158 364 176 372 197 372 c 0
 218 372 235 364 249 350 c 0
 263 336 270 319 270 299 c 0
573 -5 m 0
 573 -25 566 -42 552 -56 c 0
 538 -70 521 -78 500 -78 c 0
 479 -78 462 -70 448 -56 c 0
 434 -42 427 -25 427 -5 c 0
 427 16 434 34 448 48 c 0
 462 62 479 69 500 69 c 0
 521 69 538 62 552 48 c 0
 566 34 573 16 573 -5 c 0
877 299 m 0
 877 279 870 262 855 247 c 0
 840 232 823 225 803 225 c 0
 783 225 766 232 752 247 c 0
 738 262 730 279 730 299 c 0
 730 319 737 336 751 350 c 0
 765 364 782 372 803 372 c 0
 823 372 840 364 855 350 c 0
 870 336 877 319 877 299 c 0
573 602 m 0
 573 581 566 564 552 550 c 0
 538 536 521 529 500 529 c 0
 479 529 462 536 448 550 c 0
 434 564 427 581 427 602 c 0
 427 622 434 640 448 654 c 0
 462 668 479 675 500 675 c 0
 521 675 538 668 552 654 c 0
 566 640 573 622 573 602 c 0
879 644 m 1
 538 302 l 1
 879 -40 l 1
 842 -77 l 1
 500 264 l 1
 158 -77 l 1
 121 -40 l 1
 462 302 l 1
 121 644 l 1
 158 682 l 1
 500 340 l 1
 842 682 l 1
 879 644 l 1
EndSplineSet
Colour: ff
EndChar
StartChar: uF02E0
Encoding: 983776 983776 237
Width: 1000
Flags: MW
LayerCount: 2
Fore
SplineSet
160 295 m 2
 160 315 l 2
 160 321 166 325 170 325 c 2
 803 325 l 1
 590 513 l 2
 586 517 586 523 589 527 c 2
 602 542 l 2
 606 547 614 545 617 542 c 2
 877 312 l 2
 882 308 881 302 877 298 c 2
 617 68 l 2
 612 64 605 65 602 68 c 2
 589 83 l 2
 585 87 586 94 590 97 c 2
 803 285 l 1
 170 285 l 2
 164 285 160 291 160 295 c 2
EndSplineSet
Colour: ff
EndChar
StartChar: uF02E1
Encoding: 983777 983777 238
Width: 1000
Flags: MW
LayerCount: 2
Fore
SplineSet
197 285 m 1
 410 97 l 2
 414 93 414 87 411 83 c 2
 398 68 l 2
 394 63 386 65 383 68 c 2
 123 298 l 2
 118 302 119 308 123 312 c 2
 383 542 l 2
 388 546 395 545 398 542 c 2
 411 527 l 2
 415 523 414 516 410 513 c 2
 197 325 l 1
 830 325 l 2
 836 325 840 319 840 315 c 2
 840 295 l 2
 840 289 834 285 830 285 c 2
 197 285 l 1
EndSplineSet
Colour: ff
EndChar
StartChar: uF02E2
Encoding: 983778 983778 241
Width: 1000
Flags: MW
LayerCount: 2
Fore
SplineSet
733 452 m 0
 733 446 729 443 722 443 c 1
 719 444 l 0
 686 453 660 463 641 473 c 0
 590 500 549 538 520 586 c 1
 520 -137 l 2
 520 -149 513 -155 500 -155 c 256
 487 -155 480 -149 480 -137 c 2
 480 586 l 1
 451 537 410 500 359 473 c 0
 340 463 314 453 281 444 c 0
 280 444 279 444 278 443 c 0
 271 443 268 447 267 454 c 9
 267 462 267 466 267 474 c 20
 267 478 269 481 274 483 c 0
 281 485 292 488 306 492 c 0
 349 507 386 532 418 566 c 0
 450 600 471 639 482 682 c 0
 483 689 485 700 489 715 c 0
 491 721 495 724 500 724 c 0
 506 724 510 721 511 715 c 0
 512 708 515 697 518 683 c 0
 529 639 550 600 582 566 c 0
 614 532 651 507 694 492 c 0
 701 490 712 487 726 483 c 0
 731 482 733 471 733 452 c 0
EndSplineSet
Colour: ff
EndChar
StartChar: uF02E3
Encoding: 983779 983779 238
Width: 1000
Flags: MW
LayerCount: 2
Fore
SplineSet
520 2 m 1
 708 215 l 2
 712 219 718 219 722 216 c 2
 737 203 l 2
 742 199 740 191 737 188 c 2
 507 -72 l 2
 503 -77 497 -76 493 -72 c 2
 263 188 l 2
 259 193 260 200 263 203 c 2
 278 216 l 2
 282 220 289 219 292 215 c 2
 480 2 l 1
 480 635 l 2
 480 641 486 645 490 645 c 2
 510 645 l 2
 516 645 520 639 520 635 c 2
 520 2 l 1
EndSplineSet
Colour: ff
EndChar
StartChar: uF02E5
Encoding: 983781 983781 243
Width: 1000
Flags: MW
LayerCount: 2
Fore
SplineSet
245 260 m 0
 245 330 272 389 325 437 c 0
 378 485 446 510 525 510 c 2
 745 510 l 2
 751 510 755 504 755 500 c 2
 755 480 l 2
 755 474 749 470 745 470 c 2
 525 470 l 2
 458 470 401 450 356 412 c 0
 314 376 291 333 286 280 c 1
 745 280 l 2
 751 280 755 274 755 270 c 2
 755 250 l 2
 755 244 749 240 745 240 c 2
 286 240 l 1
 291 186 314 144 356 108 c 0
 401 70 458 50 525 50 c 2
 745 50 l 2
 751 50 755 44 755 40 c 2
 755 20 l 2
 755 14 749 10 745 10 c 2
 525 10 l 2
 446 10 378 35 325 83 c 0
 272 131 245 190 245 260 c 0
EndSplineSet
Colour: ff
EndChar
StartChar: uF02E6
Encoding: 983782 983782 244
Width: 1000
Flags: MW
LayerCount: 2
Fore
SplineSet
245 20 m 2
 245 40 l 2
 245 46 251 50 255 50 c 2
 475 50 l 2
 542 50 599 70 644 108 c 0
 686 144 709 187 714 240 c 1
 255 240 l 2
 249 240 245 246 245 250 c 2
 245 270 l 2
 245 276 251 280 255 280 c 2
 714 280 l 1
 709 334 686 376 644 412 c 0
 599 450 542 470 475 470 c 2
 255 470 l 2
 249 470 245 476 245 480 c 2
 245 500 l 2
 245 506 251 510 255 510 c 2
 475 510 l 2
 554 510 622 485 675 437 c 0
 728 389 755 330 755 260 c 0
 755 190 728 131 675 83 c 0
 622 35 554 10 475 10 c 2
 255 10 l 2
 249 10 245 16 245 20 c 2
EndSplineSet
Colour: ff
EndChar
StartChar: uF02E7
Encoding: 983783 983783 245
Width: 1000
Flags: MW
LayerCount: 2
Fore
SplineSet
215 -20 m 2
 215 -14 221 -10 225 -10 c 2
 785 -10 l 2
 791 -10 795 -16 795 -20 c 2
 795 -40 l 2
 795 -46 789 -50 785 -50 c 2
 225 -50 l 2
 219 -50 215 -44 215 -40 c 2
 215 -20 l 2
205 380 m 0
 205 450 232 509 285 557 c 0
 338 605 406 630 485 630 c 2
 785 630 l 2
 791 630 795 624 795 620 c 2
 795 600 l 2
 795 594 789 590 785 590 c 2
 485 590 l 2
 416 590 359 569 313 529 c 0
 267 489 245 440 245 380 c 0
 245 320 267 271 313 231 c 0
 359 191 416 170 485 170 c 2
 785 170 l 2
 791 170 795 164 795 160 c 2
 795 140 l 2
 795 134 789 130 785 130 c 2
 485 130 l 2
 406 130 338 155 285 203 c 0
 232 251 205 310 205 380 c 0
EndSplineSet
Colour: ff
EndChar
StartChar: uF02E9
Encoding: 983785 983785 247
Width: 1000
Flags: MW
LayerCount: 2
Fore
SplineSet
205 260 m 0
 205 330 232 389 285 437 c 0
 338 485 406 510 485 510 c 2
 785 510 l 2
 791 510 795 504 795 500 c 2
 795 480 l 2
 795 474 789 470 785 470 c 2
 485 470 l 2
 416 470 359 449 313 409 c 0
 267 369 245 320 245 260 c 0
 245 200 267 151 313 111 c 0
 359 71 416 50 485 50 c 2
 785 50 l 2
 791 50 795 44 795 40 c 2
 795 20 l 2
 795 14 789 10 785 10 c 2
 485 10 l 2
 406 10 338 35 285 83 c 0
 232 131 205 190 205 260 c 0
EndSplineSet
Colour: ff
EndChar
StartChar: uF02ED
Encoding: 983789 983789 251
Width: 1000
Flags: MW
LayerCount: 2
Fore
SplineSet
260 1 m 0
 260 2 261 3 261 4 c 2
 476 564 l 2
 477 568 481 570 485 570 c 2
 500 570 l 1
 515 570 l 2
 519 570 523 568 524 564 c 2
 739 4 l 2
 741 -1 739 -8 733 -10 c 0
 732 -10 731 -10 730 -10 c 2
 708 -10 l 2
 704 -10 700 -8 699 -4 c 2
 500 519 l 1
 301 -4 l 2
 300 -8 296 -10 292 -10 c 2
 270 -10 l 2
 264 -10 260 -5 260 1 c 0
EndSplineSet
Colour: ff
EndChar
StartChar: uF02EE
Encoding: 983790 983790 252
Width: 1000
Flags: MW
LayerCount: 2
Fore
SplineSet
777 578 m 0
 777 575 777 572 776 570 c 2
 519 -10 l 2
 516 -18 509 -22 500 -22 c 256
 491 -22 484 -18 481 -10 c 2
 224 570 l 2
 223 571 223 574 223 578 c 0
 223 591 230 598 243 598 c 0
 252 598 258 594 261 585 c 2
 500 47 l 1
 739 585 l 2
 742 593 748 597 757 598 c 0
 770 598 777 591 777 578 c 0
EndSplineSet
Colour: ff
EndChar
StartChar: uF02F0
Encoding: 983792 983792 253
Width: 1000
Flags: MW
LayerCount: 2
Fore
SplineSet
943 284 m 256
 943 279 941 276 937 274 c 0
 925 271 907 265 884 258 c 0
 835 239 791 213 750 180 c 0
 697 137 653 82 618 15 c 0
 616 11 606 9 589 9 c 0
 582 9 579 13 580 20 c 0
 580 32 594 57 622 96 c 0
 646 129 666 152 681 167 c 1
 76 167 l 2
 63 167 57 174 57 187 c 256
 57 200 63 207 76 207 c 2
 725 207 l 1
 764 239 807 265 853 284 c 1
 807 303 764 329 725 361 c 1
 76 361 l 2
 63 361 57 368 57 381 c 256
 57 394 63 401 76 401 c 2
 681 401 l 1
 665 418 645 442 622 474 c 0
 594 512 580 537 580 548 c 0
 580 555 584 559 591 560 c 9
 598 560 602 559 609 559 c 16
 612 559 615 557 618 553 c 0
 654 485 698 430 749 389 c 0
 795 352 846 324 903 305 c 0
 912 303 924 300 937 295 c 0
 941 292 943 289 943 284 c 256
EndSplineSet
Colour: ff
EndChar
StartChar: uF02F2
Encoding: 983794 983794 255
Width: 1000
Flags: MW
LayerCount: 2
Fore
SplineSet
778 674 m 0
 778 671 692 443 519 -10 c 0
 516 -18 509 -22 500 -22 c 0
 491 -22 485 -18 482 -10 c 0
 309 445 222 673 222 674 c 0
 222 687 229 694 242 694 c 0
 252 694 258 690 261 682 c 2
 348 451 l 1
 652 451 l 1
 740 682 l 2
 743 690 749 694 758 694 c 0
 771 694 778 687 778 674 c 0
636 411 m 1
 364 411 l 1
 500 54 l 1
 636 411 l 1
EndSplineSet
Colour: ff
EndChar
StartChar: uF02F6
Encoding: 983798 983798 239
Width: 1000
Flags: MW
LayerCount: 2
Fore
SplineSet
500 790 m 0
 355 790 223 748 106 662 c 0
 101 659 94 660 91 665 c 0
 90 667 90 669 90 670 c 2
 90 694 l 2
 90 697 92 700 94 702 c 0
 216 787 351 830 500 830 c 0
 649 830 784 787 906 702 c 0
 909 700 910 697 910 694 c 2
 910 670 l 2
 910 664 905 660 899 660 c 0
 897 660 894 662 894 662 c 0
 777 748 645 790 500 790 c 0
EndSplineSet
Colour: ff
EndChar
StartChar: uF02F7
Encoding: 983799 983799 260
Width: 1000
Flags: MW
LayerCount: 2
Fore
SplineSet
242 250 m 0
 242 324 263 383 306 426 c 128
 349 469 408 490 482 490 c 0
 559 490 622 464 668 412 c 1
 670 413 l 1
 664 504 645 570 614 610 c 128
 583 650 535 670 474 670 c 0
 451 670 422 665 387 654 c 128
 352 643 319 630 290 613 c 1
 266 676 l 1
 295 694 331 710 373 722 c 128
 415 734 449 740 478 740 c 0
 573 740 644 705 690 636 c 128
 736 567 758 456 758 302 c 0
 758 198 736 120 691 68 c 128
 646 16 583 -10 500 -10 c 0
 424 -10 362 14 314 61 c 128
 266 108 242 171 242 250 c 0
500 57 m 0
 555 57 597 74 629 108 c 128
 661 142 676 189 676 252 c 0
 676 303 659 345 626 378 c 128
 593 411 551 428 500 428 c 0
 445 428 402 412 370 380 c 128
 338 348 322 305 322 250 c 0
 322 189 338 142 370 108 c 128
 402 74 446 57 500 57 c 0
EndSplineSet
EndChar
StartChar: uF02FB
Encoding: 983803 983803 262
Width: 1000
Flags: MW
LayerCount: 2
Fore
SplineSet
455 277 m 2
 455 290 l 1
 455 303 l 2
 455 306 457 309 459 311 c 2
 879 598 l 2
 884 601 891 600 894 595 c 0
 895 593 895 591 895 590 c 2
 895 566 l 2
 895 563 893 560 891 558 c 2
 499 290 l 1
 891 22 l 2
 894 20 895 17 895 14 c 2
 895 -10 l 2
 895 -16 890 -20 884 -20 c 0
 882 -20 880 -19 879 -18 c 2
 459 269 l 2
 456 271 455 274 455 277 c 2
105 277 m 2
 105 290 l 1
 105 303 l 2
 105 306 107 309 109 311 c 2
 529 598 l 2
 534 601 541 600 544 595 c 0
 545 593 545 591 545 590 c 2
 545 566 l 2
 545 563 543 560 541 558 c 2
 149 290 l 1
 541 22 l 2
 544 20 545 17 545 14 c 2
 545 -10 l 2
 545 -16 540 -20 534 -20 c 0
 532 -20 530 -19 529 -18 c 2
 109 269 l 2
 106 271 105 274 105 277 c 2
EndSplineSet
Colour: ff
EndChar
StartChar: uF02FD
Encoding: 983805 983805 264
Width: 1000
Flags: MW
LayerCount: 2
Fore
SplineSet
38 440 m 1
 210 440 l 1
 449 -35 l 1
 451 -35 l 1
 890 810 l 1
 962 810 l 1
 500 -80 l 1
 397 -80 l 1
 167 383 l 1
 38 383 l 1
 38 440 l 1
EndSplineSet
EndChar
StartChar: uF02FE
Encoding: 983806 983806 265
Width: 1000
Flags: MW
LayerCount: 2
Fore
SplineSet
116 260 m 0
 116 323 134 374 170 412 c 128
 206 450 253 470 312 470 c 0
 344 470 373 466 400 457 c 1
 390 394 l 1
 363 403 338 407 314 407 c 0
 275 407 243 394 219 368 c 128
 195 342 184 307 184 262 c 0
 184 218 195 182 218 156 c 128
 241 130 272 117 310 117 c 0
 387 117 441 170 470 275 c 0
 507 405 581 470 692 470 c 0
 749 470 795 451 830 412 c 128
 865 373 884 323 884 260 c 0
 884 197 866 146 830 108 c 128
 794 70 747 50 688 50 c 0
 655 50 627 54 600 63 c 1
 610 126 l 1
 637 117 662 113 686 113 c 0
 725 113 757 126 781 152 c 128
 805 178 816 213 816 258 c 0
 816 302 805 338 782 364 c 128
 759 390 728 403 690 403 c 0
 613 403 559 350 530 245 c 0
 493 115 418 50 308 50 c 0
 251 50 205 69 170 108 c 128
 135 147 116 197 116 260 c 0
EndSplineSet
EndChar
StartChar: uF02FF
Encoding: 983807 983807 245
Width: 1000
Flags: MW
LayerCount: 2
Fore
SplineSet
186 260 m 128
 186 323 204 373 240 412 c 128
 276 451 321 470 378 470 c 0
 465 470 529 422 572 327 c 1
 574 327 l 1
 614 422 677 470 762 470 c 0
 776 470 793 468 814 464 c 1
 814 397 l 1
 797 401 781 403 764 403 c 0
 683 403 629 356 600 263 c 1
 628 166 682 117 764 117 c 0
 783 117 800 119 814 124 c 1
 814 57 l 1
 795 52 778 50 762 50 c 0
 675 50 611 98 568 193 c 1
 566 193 l 1
 526 98 463 50 378 50 c 0
 321 50 276 69 240 108 c 128
 204 147 186 197 186 260 c 128
540 257 m 1
 527 304 505 341 478 366 c 128
 451 391 420 403 384 403 c 0
 345 403 313 390 289 364 c 128
 265 338 254 304 254 260 c 0
 254 217 265 182 288 156 c 128
 311 130 344 117 384 117 c 0
 421 117 452 130 479 154 c 128
 506 178 527 212 540 257 c 1
EndSplineSet
EndChar
StartChar: uF0300
Encoding: 983808 983808 267
Width: 1000
Flags: MW
LayerCount: 2
Fore
SplineSet
805 488 m 0
 805 473 799 461 788 450 c 0
 777 439 765 433 750 433 c 0
 735 433 723 439 712 450 c 0
 701 461 695 473 695 488 c 0
 695 503 700 516 711 527 c 0
 722 538 735 543 750 543 c 0
 765 543 777 537 788 526 c 0
 799 515 805 503 805 488 c 0
305 488 m 0
 305 473 299 461 288 450 c 0
 277 439 265 433 250 433 c 0
 235 433 223 439 212 450 c 0
 201 461 195 473 195 488 c 0
 195 503 200 516 211 527 c 0
 222 538 235 543 250 543 c 0
 265 543 277 537 288 526 c 0
 299 515 305 503 305 488 c 0
555 55 m 0
 555 40 550 27 539 16 c 0
 528 5 515 0 500 0 c 256
 485 0 472 5 461 16 c 0
 450 27 445 40 445 55 c 256
 445 70 450 83 461 94 c 0
 472 105 485 110 500 110 c 0
 515 110 527 105 538 94 c 0
 549 83 555 70 555 55 c 0
EndSplineSet
Colour: ff
EndChar
StartChar: uF0301
Encoding: 983809 983809 268
Width: 1000
Flags: MW
LayerCount: 2
Fore
SplineSet
434 -69 m 2
 484 589 l 2
 487 638 503 675 530 701 c 128
 557 727 595 740 642 740 c 0
 677 740 711 735 746 725 c 1
 734 657 l 1
 705 666 677 670 648 670 c 0
 598 670 571 640 566 579 c 2
 516 -79 l 2
 513 -128 497 -165 470 -191 c 128
 443 -217 405 -230 358 -230 c 0
 324 -230 289 -225 254 -215 c 1
 266 -147 l 1
 295 -156 323 -160 352 -160 c 0
 402 -160 429 -130 434 -69 c 2
EndSplineSet
EndChar
StartChar: uF0302
Encoding: 983810 983810 269
Width: 1000
Flags: MW
LayerCount: 2
Fore
SplineSet
588 -69 m 2
 638 589 l 2
 641 638 657 675 684 701 c 128
 711 727 749 740 796 740 c 0
 830 740 865 735 900 725 c 1
 890 657 l 1
 861 666 833 670 804 670 c 0
 754 670 727 640 722 579 c 2
 672 -79 l 2
 669 -128 653 -165 626 -191 c 128
 599 -217 561 -230 514 -230 c 0
 479 -230 445 -225 410 -215 c 1
 420 -147 l 1
 449 -156 477 -160 506 -160 c 0
 556 -160 583 -130 588 -69 c 2
278 -69 m 2
 328 589 l 2
 331 638 347 675 374 701 c 128
 401 727 439 740 486 740 c 0
 520 740 555 735 590 725 c 1
 580 657 l 1
 551 666 523 670 494 670 c 0
 444 670 417 640 412 579 c 2
 362 -79 l 2
 359 -128 343 -165 316 -191 c 128
 289 -217 251 -230 204 -230 c 0
 169 -230 135 -225 100 -215 c 1
 110 -147 l 1
 139 -156 167 -160 196 -160 c 0
 246 -160 273 -130 278 -69 c 2
EndSplineSet
EndChar
StartChar: uF0306
Encoding: 983814 983814 271
Width: 1000
Flags: MW
LayerCount: 2
Fore
SplineSet
662 214 m 0
 662 98 592 -15 451 -125 c 0
 394 -169 361 -191 352 -191 c 256
 343 -191 338 -185 338 -172 c 2
 338 760 l 1
 365 760 l 1
 365 325 l 1
 397 361 443 379 504 378 c 0
 549 378 586 362 616 330 c 0
 646 298 662 259 662 214 c 0
574 214 m 0
 574 247 568 274 557 296 c 0
 543 325 521 339 491 339 c 0
 454 339 424 331 400 314 c 0
 385 304 376 293 371 282 c 0
 367 273 365 260 365 241 c 2
 365 -152 l 1
 504 -28 574 94 574 214 c 0
EndSplineSet
Colour: ff
EndChar
StartChar: uF1D36
Encoding: 990518 990518 244
Width: 1000
Flags: MW
LayerCount: 2
Fore
SplineSet
330 -114 m 0
 283 -67 260 -10 260 56 c 0
 260 122 283 179 330 226 c 0
 370 266 420 289 477 294 c 1
 477 673 l 1
 274 471 l 1
 240 504 l 1
 500 763 l 1
 760 504 l 1
 726 471 l 1
 523 673 l 1
 523 294 l 1
 580 289 630 266 670 226 c 0
 717 179 740 122 740 56 c 0
 740 -10 717 -67 670 -114 c 0
 623 -161 566 -184 500 -184 c 0
 434 -184 377 -161 330 -114 c 0
364 -80 m 0
 401 -117 446 -136 500 -136 c 0
 554 -136 599 -117 636 -80 c 0
 673 -43 692 2 692 56 c 0
 692 110 673 156 636 193 c 0
 599 230 554 248 500 248 c 0
 446 248 401 230 364 193 c 0
 327 156 308 110 308 56 c 0
 308 2 327 -43 364 -80 c 0
EndSplineSet
Colour: ff
EndChar
StartChar: uF1DC8
Encoding: 990664 990664 251
Width: 1000
Flags: MW
LayerCount: 2
Fore
SplineSet
528 75 m 1
 573 82 612 103 642 138 c 128
 672 173 687 214 687 260 c 0
 687 301 674 338 650 371 c 128
 626 404 595 426 556 438 c 1
 528 75 l 1
562 513 m 1
 619 499 667 469 704 422 c 128
 741 375 760 321 760 260 c 0
 760 192 738 133 692 84 c 128
 646 35 590 7 523 1 c 1
 517 -79 l 2
 514 -128 498 -165 470 -191 c 128
 442 -217 405 -230 358 -230 c 0
 323 -230 289 -225 254 -215 c 1
 266 -147 l 1
 295 -156 323 -160 352 -160 c 0
 401 -160 428 -130 433 -69 c 2
 439 7 l 1
 382 20 334 51 296 98 c 128
 258 145 240 199 240 260 c 0
 240 328 263 386 309 436 c 128
 355 486 411 514 478 519 c 1
 483 589 l 2
 486 638 502 675 530 701 c 128
 558 727 595 740 642 740 c 0
 677 740 711 735 746 725 c 1
 734 657 l 1
 705 666 677 670 648 670 c 0
 599 670 572 640 567 579 c 2
 562 513 l 1
472 445 m 1
 427 438 388 417 358 382 c 128
 328 347 313 307 313 260 c 0
 313 219 325 182 350 149 c 128
 375 116 406 94 445 82 c 1
 472 445 l 1
EndSplineSet
EndChar
StartChar: uF1DC9
Encoding: 990665 990665 276
Width: 1000
Flags: MW
LayerCount: 2
Fore
SplineSet
876 730 m 1
 876 662 l 1
 216 662 l 1
 494 277 l 1
 214 -152 l 1
 876 -152 l 1
 876 -220 l 1
 124 -220 l 1
 124 -152 l 1
 404 277 l 1
 124 662 l 1
 124 730 l 1
 876 730 l 1
EndSplineSet
EndChar
StartChar: uF1DCA
Encoding: 990666 990666 277
Width: 1000
Flags: MW
LayerCount: 2
Fore
SplineSet
38 440 m 1
 210 440 l 1
 449 -35 l 1
 451 -35 l 1
 890 810 l 1
 962 810 l 1
 500 -80 l 1
 397 -80 l 1
 167 383 l 1
 38 383 l 1
 38 440 l 1
EndSplineSet
EndChar
StartChar: uF1DCB
Encoding: 990667 990667 247
Width: 1000
Flags: MW
LayerCount: 2
Fore
SplineSet
168 -24 m 0
 168 -7 181 7 204 7 c 0
 207 7 211 6 214 6 c 2
 470 6 l 1
 470 517 l 2
 470 540 483 555 500 555 c 0
 519 555 532 539 532 514 c 2
 532 6 l 1
 794 6 l 2
 817 6 832 -7 832 -24 c 0
 832 -43 817 -55 792 -55 c 2
 206 -55 l 2
 182 -55 168 -42 168 -24 c 0
EndSplineSet
EndChar
StartChar: uF1DCC
Encoding: 990668 990668 252
Width: 1000
Flags: MW
LayerCount: 2
Fore
SplineSet
218 -25 m 0
 218 -11 225 -4 230 4 c 2
 534 534 l 2
 542 548 555 555 566 555 c 0
 583 555 594 542 594 527 c 0
 594 519 591 510 586 501 c 2
 300 6 l 1
 744 6 l 2
 767 6 782 -7 782 -24 c 0
 782 -43 767 -55 742 -55 c 2
 246 -55 l 2
 229 -55 218 -41 218 -25 c 0
EndSplineSet
EndChar
StartChar: uF1DCD
Encoding: 990669 990669 280
Width: 1000
Flags: MW
LayerCount: 2
Fore
SplineSet
235 640 m 2
 235 30 l 1
 795 30 l 2
 801 30 805 24 805 20 c 2
 805 0 l 2
 805 -6 799 -10 795 -10 c 2
 205 -10 l 2
 199 -10 195 -4 195 0 c 2
 195 640 l 2
 195 646 201 650 205 650 c 2
 225 650 l 2
 231 650 235 644 235 640 c 2
EndSplineSet
Colour: ff
EndChar
StartChar: uF1DCE
Encoding: 990670 990670 281
Width: 1000
Flags: MW
LayerCount: 2
Fore
SplineSet
878 18 m 2
 878 6 871 0 858 0 c 2
 140 0 l 2
 127 0 122 7 122 20 c 0
 122 25 124 31 130 37 c 2
 848 754 l 2
 850 756 853 757 858 757 c 0
 871 757 878 751 878 738 c 2
 878 18 l 2
838 40 m 1
 838 684 l 1
 194 40 l 1
 838 40 l 1
EndSplineSet
Colour: ff
EndChar
StartChar: uF1DCF
Encoding: 990671 990671 253
Width: 1000
Flags: MW
LayerCount: 2
Fore
SplineSet
500 555 m 0
 667 555 802 420 802 253 c 2
 802 -15 l 2
 802 -40 789 -55 771 -55 c 0
 753 -55 741 -40 741 -18 c 2
 741 253 l 2
 741 386 633 494 500 494 c 0
 367 494 259 386 259 253 c 2
 259 -17 l 2
 259 -40 246 -55 229 -55 c 0
 210 -55 198 -39 198 -14 c 2
 198 253 l 2
 198 420 333 555 500 555 c 0
EndSplineSet
EndChar
StartChar: uF1EEC
Encoding: 990956 990956 399
Width: 1000
VWidth: 940
Flags: W
LayerCount: 2
Fore
SplineSet
45 410 m 1
 45 703 l 1
 104 640 174 591 254 556 c 128
 334 521 415 503 500 503 c 128
 585 503 666 521 746 556 c 128
 826 591 896 640 955 703 c 1
 955 410 l 1
 45 410 l 1
EndSplineSet
Colour: ff
EndChar
StartChar: uF1EED
Encoding: 990957 990957 387
Width: 1000
Flags: W
LayerCount: 2
Fore
SplineSet
550 632 m 0
 557 632 567 630 574 620 c 0
 578 614 581 605 581 592 c 6
 581 8 l 2
 581 -4 579 -14 575 -20 c 0
 568 -31 556 -32 550 -32 c 0
 543 -32 533 -30 527 -22 c 0
 523 -16 520 -8 520 4 c 2
 520 596 l 2
 520 611 524 619 529 624 c 0
 536 631 546 632 550 632 c 0
350 632 m 0
 358 632 370 629 376 618 c 0
 379 613 381 606 381 596 c 0
 381 593 380 589 380 586 c 2
 380 6 l 2
 380 -5 377 -14 374 -20 c 0
 367 -31 357 -32 350 -32 c 0
 343 -32 334 -31 327 -22 c 0
 322 -16 319 -6 319 8 c 2
 319 594 l 2
 319 606 322 614 326 620 c 0
 333 630 343 632 350 632 c 0
EndSplineSet
EndChar
StartChar: uF1F48
Encoding: 991048 991048 251
Width: 1000
Flags: MW
LayerCount: 2
Fore
SplineSet
223 332 m 0
 223 354 247 351 257 352 c 2
 750 352 l 2
 776 352 777 336 777 323 c 2
 777 71 l 2
 777 47 765 43 757 43 c 0
 744 43 740 52 738 60 c 0
 737 65 737 70 737 73 c 2
 737 312 l 1
 255 312 l 2
 252 312 250 312 247 312 c 4
 233 313 223 318 223 332 c 0
EndSplineSet
EndChar
StartChar: uF1F49
Encoding: 991049 991049 254
Width: 1000
VWidth: 940
Flags: MW
LayerCount: 2
Fore
SplineSet
65 305 m 1
 845 756 l 1
 844 -145 l 1
 65 305 l 1
158 305 m 1
 798 -64 l 1
 798 675 l 1
 158 305 l 1
EndSplineSet
Colour: ff
EndChar
StartChar: uF1F4A
Encoding: 991050 991050 253
Width: 1000
Flags: MW
LayerCount: 2
Fore
SplineSet
155 756 m 1
 935 305 l 1
 156 -145 l 1
 155 756 l 1
202 675 m 1
 202 -64 l 1
 842 305 l 1
 202 675 l 1
EndSplineSet
Colour: ff
EndChar
StartChar: uF1F4B
Encoding: 991051 991051 258
Width: 1000
VWidth: 940
Flags: MW
LayerCount: 2
Fore
SplineSet
113 323 m 2
 109 327 109 335 114 338 c 0
 116 339 119 340 120 340 c 2
 330 340 l 1
 330 670 l 2
 330 676 336 680 340 680 c 2
 360 680 l 1
 660 680 l 2
 666 680 670 674 670 670 c 2
 670 340 l 1
 880 340 l 2
 886 340 890 335 890 329 c 0
 890 327 888 324 887 323 c 2
 507 -107 l 2
 503 -112 497 -111 493 -107 c 2
 113 323 l 2
185 300 m 1
 500 -54 l 1
 815 300 l 1
 640 300 l 2
 634 300 630 306 630 310 c 2
 630 640 l 1
 370 640 l 1
 370 310 l 2
 370 304 364 300 360 300 c 2
 185 300 l 1
EndSplineSet
Colour: ff
EndChar
StartChar: uF1F4C
Encoding: 991052 991052 257
Width: 1000
VWidth: 940
Flags: MW
LayerCount: 2
Fore
SplineSet
110 281 m 0
 110 283 112 286 113 287 c 2
 493 717 l 2
 497 722 503 721 507 717 c 2
 887 287 l 2
 891 283 891 275 886 272 c 0
 884 271 881 270 880 270 c 2
 670 270 l 1
 670 -60 l 2
 670 -66 664 -70 660 -70 c 2
 360 -70 l 1
 340 -70 l 2
 334 -70 330 -64 330 -60 c 2
 330 270 l 1
 120 270 l 2
 114 270 110 275 110 281 c 0
185 310 m 1
 360 310 l 2
 366 310 370 304 370 300 c 2
 370 -30 l 1
 630 -30 l 1
 630 300 l 2
 630 306 636 310 640 310 c 2
 815 310 l 1
 500 664 l 1
 185 310 l 1
EndSplineSet
Colour: ff
EndChar
StartChar: uF1F4E
Encoding: 991054 991054 259
Width: 1000
VWidth: 940
Flags: MW
LayerCount: 2
Fore
SplineSet
130 145 m 2
 130 165 l 1
 130 465 l 2
 130 471 136 475 140 475 c 2
 470 475 l 1
 470 685 l 2
 470 691 475 695 481 695 c 0
 483 695 486 693 487 692 c 2
 917 312 l 2
 922 308 921 302 917 298 c 2
 487 -82 l 2
 483 -86 475 -86 472 -81 c 0
 471 -79 470 -76 470 -75 c 2
 470 135 l 1
 140 135 l 2
 134 135 130 141 130 145 c 2
170 175 m 1
 500 175 l 2
 506 175 510 169 510 165 c 2
 510 -10 l 1
 864 305 l 1
 510 620 l 1
 510 445 l 2
 510 439 504 435 500 435 c 2
 170 435 l 1
 170 175 l 1
EndSplineSet
Colour: ff
EndChar
StartChar: uF1F51
Encoding: 991057 991057 261
Width: 1000
VWidth: 940
Flags: MW
LayerCount: 2
Fore
SplineSet
339 680 m 0
 372 680 403 671 432 652 c 0
 461 633 483 603 499 564 c 1
 501 564 l 1
 517 603 539 633 568 652 c 0
 597 671 628 680 661 680 c 0
 713 680 755 661 787 624 c 0
 819 587 835 539 835 480 c 0
 835 436 827 394 811 354 c 0
 795 314 762 260 714 195 c 0
 666 130 595 45 500 -60 c 1
 405 45 334 130 286 195 c 0
 238 260 205 314 189 354 c 0
 173 394 165 436 165 480 c 0
 165 539 181 587 213 624 c 0
 245 661 287 680 339 680 c 0
661 633 m 0
 622 633 590 619 566 590 c 0
 542 561 528 517 523 460 c 1
 477 460 l 1
 472 517 458 561 434 590 c 0
 410 619 378 633 339 633 c 0
 300 633 269 620 246 592 c 0
 223 564 212 527 212 480 c 0
 212 425 231 366 268 302 c 0
 305 238 383 141 500 10 c 1
 617 141 695 238 732 302 c 0
 769 366 788 425 788 480 c 0
 788 527 777 564 754 592 c 0
 731 620 700 633 661 633 c 0
EndSplineSet
Colour: ff
EndChar
StartChar: uF1F52
Encoding: 991058 991058 262
Width: 1000
VWidth: 940
Flags: MW
LayerCount: 2
Fore
SplineSet
500 710 m 1
 597 627 671 558 722 502 c 0
 773 446 807 400 824 364 c 0
 841 328 850 290 850 250 c 0
 850 197 834 155 802 122 c 0
 770 89 728 73 677 73 c 0
 635 73 601 86 575 112 c 1
 573 112 l 1
 575 82 578 58 582 42 c 0
 586 26 595 14 607 6 c 0
 619 -2 632 -8 646 -10 c 0
 660 -12 683 -13 713 -13 c 1
 713 -60 l 1
 287 -60 l 1
 287 -13 l 1
 317 -13 340 -12 354 -10 c 0
 368 -8 381 -2 393 6 c 0
 405 14 414 26 418 42 c 0
 422 58 425 82 427 112 c 1
 425 112 l 1
 399 86 365 73 323 73 c 0
 272 73 230 89 198 122 c 0
 166 155 150 197 150 250 c 0
 150 290 159 328 176 364 c 0
 193 400 227 446 278 502 c 0
 329 558 403 627 500 710 c 1
562 -15 m 1
 562 -13 l 1
 547 2 537 26 532 56 c 0
 527 86 523 136 522 207 c 1
 568 207 l 1
 579 149 616 120 677 120 c 0
 715 120 745 132 768 155 c 0
 791 178 803 210 803 250 c 0
 803 283 796 314 782 345 c 0
 774 363 760 384 741 408 c 4
 728 425 712 444 693 465 c 0
 648 514 584 575 500 648 c 1
 416 575 352 514 307 465 c 0
 288 444 271 424 257 406 c 0
 239 383 226 362 218 345 c 0
 204 314 197 283 197 250 c 0
 197 210 209 178 232 155 c 0
 255 132 285 120 323 120 c 0
 384 120 421 149 432 207 c 1
 478 207 l 1
 477 136 473 86 468 56 c 0
 463 26 453 2 438 -13 c 1
 438 -15 l 1
 562 -15 l 1
EndSplineSet
Colour: ff
EndChar
StartChar: uF1F53
Encoding: 991059 991059 265
Width: 1000
VWidth: 940
Flags: MW
LayerCount: 2
Fore
SplineSet
500 -100 m 1
 135 305 l 1
 500 710 l 1
 865 305 l 1
 500 -100 l 1
500 -30 m 1
 802 305 l 1
 500 640 l 1
 198 305 l 1
 500 -30 l 1
EndSplineSet
Colour: ff
EndChar
StartChar: uF1F78
Encoding: 991096 991096 266
Width: 1000
Flags: MW
LayerCount: 2
Fore
SplineSet
930 -105 m 1
 70 -105 l 1
 70 40 l 1
 125.404296875 40 l 1
 127.310579422 160.044830361 148.165176048 250.95647006 203 319.5 c 24
 231.116847815 356.403362757 259.144949567 371.611485133 260.16015625 435 c 17
 260.063201931 459.016885364 256.913621548 467.797345648 253.144674848 467.797345648 c 0
 247.397540617 467.797345648 240.210247949 447.380907716 240.210247949 429.438527068 c 0
 240.210247949 418.628098864 245.498862635 401.04536915 245.5 401 c 0
 189.188070628 392.061598512 123.246683107 389.81498767 85 418.5 c 24
 73.5978243399 428.761958094 61.6337534301 443.060141813 53.5 455.5 c 1
 53.5 455.5 60 456 61.0087890625 459.71875 c 24
 69.3103621656 493.583155866 66.9275571572 521.529830186 82 550 c 24
 114.663185238 611.697127671 170.057167897 644.946350014 240.5 669 c 24
 314.223506142 693.003002 403.892129745 700 500 700 c 24
 594.07851225 700 680.345585083 692.26153168 754 670.5 c 24
 822.71038734 648.169124115 881.467380722 619.318095625 915.5 562 c 24
 931.538129659 534.988413206 934.165545384 508.645856951 939.725585938 472.0703125 c 24
 940 471 942 470 942 470 c 1
 924.224881828 452.224881828 900.467025163 431.616756291 870 424 c 24
 851.355801064 419.338950266 829.3229575 417 806.5 417 c 24
 783.299121009 417 748.428303939 419.432412289 728.5 420.5 c 5
 728.5 420.5 729.959960938 441.999939465 729.959960938 455.241210938 c 27
 729.959960938 466.04605668 725.935632316 477.064367684 720 483 c 1
 720 450 l 10
 720 388.874815081 754.817553079 366.773670381 779 330.5 c 24
 829.087738294 260.933696813 844.866519593 153.578254009 850 40 c 1
 930 40 l 1
 930 -105 l 1
392.5 160 m 3
 392.5 105.209219815 435.237072216 62.5 492.5 62.5 c 27
 549.330945946 62.5 592 105.472416938 592 160 c 27
 592 217.144608194 550.530936724 257.5 492.5 257.5 c 27
 434.567595014 257.5 392.5 218.827920168 392.5 160 c 3
420 513.451171875 m 1
 420 410 l 1
 560 410 l 1
 560 514.095703125 l 1
 420 513.451171875 l 1
EndSplineSet
Colour: 8080ff
EndChar
StartChar: uF1FE6
Encoding: 991206 991206 0
Width: 1000
Flags: MW
LayerCount: 2
Fore
SplineSet
200 41 m 2
 200 42 l 2
 200 122 235 224 319 233 c 0
 329 234 338 234 348 234 c 2
 1000 234 l 1
 1000 164 l 1
 349 164 l 2
 337 164 325 164 313 162 c 0
 270 153 231 110 224 47 c 0
 223 40 223 23 212 23 c 0
 202 23 200 31 200 41 c 2
EndSplineSet
EndChar
StartChar: uF1FE7
Encoding: 991207 991207 1
Width: 1000
Flags: MW
LayerCount: 2
Fore
SplineSet
0 164 m 1
 0 234 l 1
 367 234 l 2
 463 234 483 320 487 343 c 0
 489 357 488 375 500 375 c 0
 514 375 510 361 515 336 c 0
 523 293 555 245 607 236 c 0
 617 234 627 234 636 234 c 2
 1000 234 l 1
 1000 164 l 1
 635 164 l 2
 614 164 532 160 500 283 c 1
 472 172 398 164 372 164 c 2
 0 164 l 1
EndSplineSet
EndChar
StartChar: uF1FE9
Encoding: 991209 991209 3
Width: 1000
Flags: MW
LayerCount: 2
Fore
SplineSet
0 164 m 1
 0 234 l 1
 304 234 l 2
 330 234 372 235 408 186 c 0
 441 142 450 83 450 46 c 0
 450 44 450 42 450 41 c 0
 450 25 443 23 439 23 c 0
 423 23 430 47 420 79 c 0
 401 137 363 155 336 161 c 0
 326 163 317 164 311 164 c 2
 0 164 l 1
550 41 m 2
 550 42 l 2
 550 122 585 224 669 233 c 0
 679 234 688 234 698 234 c 2
 1000 234 l 1
 1000 164 l 1
 699 164 l 2
 687 164 675 164 663 162 c 0
 620 153 581 110 574 47 c 0
 573 40 573 23 562 23 c 0
 552 23 550 31 550 41 c 2
EndSplineSet
EndChar
StartChar: uF1FEA
Encoding: 991210 991210 4
Width: 1000
Flags: MW
LayerCount: 2
Fore
SplineSet
200 557 m 0
 200 572 207 575 211 575 c 0
 226 575 220 551 230 519 c 0
 256 439 316 434 339 434 c 2
 1000 434 l 1
 1000 364 l 1
 346 364 l 2
 320 364 278 364 242 412 c 0
 226 434 200 486 200 557 c 0
EndSplineSet
EndChar
StartChar: uF1FEB
Encoding: 991211 991211 5
Width: 1000
Flags: MW
LayerCount: 2
Fore
SplineSet
0 364 m 1
 0 434 l 1
 365 434 l 2
 396 434 469 432 500 315 c 1
 529 428 602 434 629 434 c 2
 1000 434 l 1
 1000 364 l 1
 633 364 l 2
 599 364 575 353 557 338 c 0
 525 311 515 269 513 255 c 0
 511 241 513 223 500 223 c 0
 486 223 490 237 485 261 c 0
 477 305 445 354 393 362 c 0
 383 364 374 364 364 364 c 2
 0 364 l 1
EndSplineSet
EndChar
StartChar: uF1FEC
Encoding: 991212 991212 6
Width: 1000
Flags: MW
LayerCount: 2
Fore
SplineSet
0 364 m 1
 0 434 l 1
 651 434 l 2
 663 434 675 434 687 436 c 0
 730 445 769 488 776 551 c 0
 777 558 777 575 788 575 c 0
 798 575 800 567 800 557 c 2
 800 556 l 2
 800 476 764 375 681 365 c 0
 671 364 662 364 652 364 c 2
 0 364 l 1
EndSplineSet
EndChar
StartChar: uF1FED
Encoding: 991213 991213 7
Width: 1000
Flags: MW
LayerCount: 2
Fore
SplineSet
0 364 m 1
 0 434 l 1
 301 434 l 2
 313 434 325 434 337 436 c 0
 380 445 419 488 426 551 c 0
 427 558 427 575 438 575 c 0
 448 575 450 567 450 557 c 2
 450 556 l 2
 450 476 414 375 331 365 c 0
 321 364 312 364 302 364 c 2
 0 364 l 1
550 557 m 0
 550 572 557 575 561 575 c 0
 576 575 570 551 580 519 c 0
 606 439 666 434 689 434 c 2
 1000 434 l 1
 1000 364 l 1
 696 364 l 2
 670 364 628 364 592 412 c 0
 576 434 550 486 550 557 c 0
EndSplineSet
EndChar
StartChar: uF1FEE
Encoding: 991214 991214 8
Width: 1000
Flags: MW
LayerCount: 2
Fore
SplineSet
364 -200 m 1
 364 451 l 2
 364 463 364 475 362 487 c 0
 353 530 310 569 247 576 c 0
 240 577 223 577 223 588 c 0
 223 598 231 600 241 600 c 2
 242 600 l 2
 322 600 424 565 433 481 c 0
 434 471 434 462 434 452 c 2
 434 -200 l 1
 364 -200 l 1
EndSplineSet
EndChar
StartChar: uF1FEF
Encoding: 991215 991215 9
Width: 1000
Flags: MW
LayerCount: 2
Fore
SplineSet
364 -200 m 1
 364 165 l 2
 364 186 360 268 483 300 c 1
 372 328 364 402 364 428 c 2
 364 800 l 1
 434 800 l 1
 434 433 l 2
 434 337 520 317 543 313 c 0
 557 311 575 312 575 300 c 0
 575 286 561 290 536 285 c 0
 493 277 445 245 436 193 c 0
 434 183 434 173 434 164 c 2
 434 -200 l 1
 364 -200 l 1
EndSplineSet
EndChar
StartChar: uF1FF0
Encoding: 991216 991216 10
Width: 1000
Flags: MW
LayerCount: 2
Fore
SplineSet
223 11 m 0
 223 27 247 20 279 30 c 0
 337 49 355 87 361 114 c 0
 363 124 364 133 364 139 c 2
 364 800 l 1
 434 800 l 1
 434 146 l 2
 434 120 435 78 386 42 c 0
 342 9 283 0 246 0 c 0
 244 0 242 0 241 0 c 0
 225 0 223 7 223 11 c 0
EndSplineSet
EndChar
StartChar: uF1FF3
Encoding: 991219 991219 13
Width: 1000
Flags: MW
LayerCount: 2
Fore
SplineSet
564 -200 m 1
 564 167 l 2
 564 201 553 225 538 243 c 0
 511 275 469 285 455 287 c 0
 441 289 423 287 423 300 c 0
 423 314 437 310 461 315 c 0
 505 323 554 355 562 407 c 0
 564 417 564 426 564 436 c 2
 564 800 l 1
 634 800 l 1
 634 435 l 2
 634 404 632 331 515 300 c 1
 628 271 634 198 634 171 c 2
 634 -200 l 1
 564 -200 l 1
EndSplineSet
EndChar
StartChar: uF1FF8
Encoding: 991224 991224 147
Width: 1000
Flags: MW
LayerCount: 2
Fore
SplineSet
107 -136 m 0
 107 -133 108 -129 116 -120 c 2
 851 723 l 2
 856 729 871 748 882 748 c 0
 886 748 892 744 892 736 c 0
 892 732 887 726 884 723 c 2
 148 -121 l 2
 133 -139 124 -148 116 -148 c 0
 110 -148 107 -142 107 -136 c 0
69 639 m 1
 69 697 l 1
 180 698 228 746 253 772 c 1
 272 772 l 1
 272 420 l 1
 374 420 l 1
 374 361 l 1
 83 361 l 1
 83 420 l 1
 192 420 l 1
 192 665 l 1
 181 660 143 639 69 639 c 1
591 191 m 1
 637 248 684 272 757 272 c 0
 867 272 943 210 943 124 c 0
 943 45 853 30 782 -5 c 0
 770 -10 759 -17 666 -69 c 1
 815 -69 l 1
 840 -68 l 1
 943 -68 l 1
 943 -139 l 1
 599 -139 l 1
 599 -69 l 1
 688 -16 700 -9 711 -3 c 0
 772 28 860 50 860 122 c 0
 860 173 812 208 744 208 c 0
 672 208 648 167 630 133 c 1
 591 191 l 1
EndSplineSet
EndChar
StartChar: uF1FF9
Encoding: 991225 991225 148
Width: 1000
Flags: MW
LayerCount: 2
Fore
SplineSet
107 -136 m 0
 107 -133 108 -129 116 -120 c 2
 851 723 l 2
 856 729 871 748 882 748 c 0
 886 748 892 744 892 736 c 0
 892 732 887 726 884 723 c 2
 148 -121 l 2
 133 -139 124 -148 116 -148 c 0
 110 -148 107 -142 107 -136 c 0
69 639 m 1
 69 697 l 1
 180 698 228 746 253 772 c 1
 272 772 l 1
 272 420 l 1
 374 420 l 1
 374 361 l 1
 83 361 l 1
 83 420 l 1
 192 420 l 1
 192 665 l 1
 181 660 143 639 69 639 c 1
574 -38 m 5
 574 14 l 5
 574 18 575 17 579 21 c 5
 784 255 l 5
 888 255 l 5
 888 17 l 5
 968 17 l 5
 968 -38 l 5
 888 -38 l 5
 888 -130 l 5
 802 -130 l 5
 802 -38 l 5
 574 -38 l 5
652 17 m 5
 807 17 l 5
 807 205 l 5
 794 168 756 129 652 17 c 5
EndSplineSet
EndChar
StartChar: uF2003
Encoding: 991235 991235 296
Width: 1000
Flags: MW
LayerCount: 2
Fore
SplineSet
677 -69 m 2
 727 589 l 2
 730 638 746 675 773 701 c 128
 800 727 838 740 885 740 c 0
 919 740 954 735 989 725 c 1
 978 657 l 1
 949 666 921 670 892 670 c 0
 842 670 815 640 810 579 c 2
 760 -79 l 2
 757 -128 741 -165 714 -191 c 128
 687 -217 649 -230 602 -230 c 0
 567 -230 533 -225 498 -215 c 1
 509 -147 l 1
 538 -156 566 -160 595 -160 c 0
 645 -160 672 -130 677 -69 c 2
433 -69 m 2
 483 589 l 2
 486 638 502 675 530 701 c 128
 558 727 595 740 642 740 c 0
 675 740 710 735 745 725 c 1
 734 657 l 1
 705 666 677 670 648 670 c 0
 598 670 571 640 566 579 c 2
 516 -79 l 2
 513 -128 497 -165 470 -191 c 128
 443 -217 405 -230 358 -230 c 0
 323 -230 289 -225 254 -215 c 1
 265 -147 l 1
 294 -156 323 -160 352 -160 c 0
 401 -160 428 -130 433 -69 c 2
190 -69 m 2
 240 589 l 2
 243 638 259 675 286 701 c 128
 313 727 351 740 398 740 c 0
 433 740 467 735 502 725 c 1
 491 657 l 1
 462 666 434 670 405 670 c 0
 355 670 328 640 323 579 c 2
 273 -79 l 2
 270 -128 254 -165 227 -191 c 128
 200 -217 162 -230 115 -230 c 0
 81 -230 46 -225 11 -215 c 1
 22 -147 l 1
 51 -156 79 -160 108 -160 c 0
 158 -160 185 -130 190 -69 c 2
EndSplineSet
EndChar
StartChar: uF200E
Encoding: 991246 991246 213
Width: 1000
VWidth: 940
Flags: MW
LayerCount: 2
Fore
SplineSet
130 145 m 2
 130 165 l 1
 130 465 l 2
 130 471 136 475 140 475 c 2
 470 475 l 1
 470 685 l 2
 470 691 475 695 481 695 c 0
 483 695 486 693 487 692 c 2
 917 312 l 2
 922 308 921 302 917 298 c 2
 487 -82 l 2
 483 -86 475 -86 472 -81 c 0
 471 -79 470 -76 470 -75 c 2
 470 135 l 1
 140 135 l 2
 134 135 130 141 130 145 c 2
EndSplineSet
Colour: ff
EndChar
StartChar: uF200F
Encoding: 991247 991247 214
Width: 1000
VWidth: 940
Flags: MW
LayerCount: 2
Fore
SplineSet
870 165 m 1
 870 145 l 2
 870 139 864 135 860 135 c 2
 530 135 l 1
 530 -75 l 2
 530 -81 525 -85 519 -85 c 0
 517 -85 514 -83 513 -82 c 2
 83 298 l 2
 78 302 79 308 83 312 c 2
 513 692 l 2
 517 696 525 696 528 691 c 0
 529 689 530 686 530 685 c 2
 530 475 l 1
 860 475 l 2
 866 475 870 469 870 465 c 2
 870 165 l 1
EndSplineSet
Colour: ff
EndChar
StartChar: uF2011
Encoding: 991249 991249 216
Width: 1000
Flags: MW
LayerCount: 2
Fore
SplineSet
113 323 m 2
 109 327 109 335 114 338 c 0
 116 339 119 340 120 340 c 2
 330 340 l 1
 330 670 l 2
 330 676 336 680 340 680 c 2
 360 680 l 1
 660 680 l 2
 666 680 670 674 670 670 c 2
 670 340 l 1
 880 340 l 2
 886 340 890 335 890 329 c 0
 890 327 888 324 887 323 c 2
 507 -107 l 2
 503 -112 497 -111 493 -107 c 2
 113 323 l 2
EndSplineSet
Colour: ff
EndChar
StartChar: uF2014
Encoding: 991252 991252 219
Width: 1000
VWidth: 940
Flags: MW
LayerCount: 2
Fore
SplineSet
510 500 m 1
 517 556 536 600 567 632 c 0
 598 664 636 680 680 680 c 0
 726 680 763 662 792 626 c 0
 821 590 835 541 835 480 c 0
 835 436 827 394 811 354 c 0
 795 314 762 260 714 195 c 0
 666 130 595 45 500 -60 c 1
 405 45 334 130 286 195 c 0
 238 260 205 314 189 354 c 0
 173 394 165 436 165 480 c 0
 165 541 179 590 208 626 c 0
 237 662 274 680 320 680 c 0
 364 680 402 664 433 632 c 0
 464 600 483 556 490 500 c 1
 510 500 l 1
EndSplineSet
Colour: ff
EndChar
StartChar: uF201B
Encoding: 991259 991259 222
Width: 1000
Flags: MW
LayerCount: 2
Fore
SplineSet
918 397 m 0
 918 363 880 346 804 345 c 2
 628 343 l 1
 612 339 l 1
 628 329 636 315 636 297 c 0
 636 271 621 254 592 247 c 1
 595 238 597 230 598 223 c 0
 598 192 579 174 542 168 c 1
 543 165 544 162 544 161 c 0
 544 123 519 105 470 108 c 2
 454 109 l 1
 436 117 l 1
 415 110 396 107 378 107 c 0
 372 107 361 108 348 109 c 1
 313 125 276 154 238 195 c 1
 168 195 l 1
 153 232 146 269 146 306 c 0
 146 348 155 387 172 424 c 1
 276 424 l 1
 324 448 378 469 440 487 c 1
 576 475 l 1
 596 457 l 1
 794 452 l 2
 842 451 875 447 892 440 c 0
 910 431 918 417 918 397 c 0
142 431 m 1
 121 388 112 346 112 306 c 0
 112 271 121 231 140 187 c 1
 112 176 l 1
 92 224 83 267 82 306 c 0
 82 351 91 393 110 431 c 2
 116 444 l 1
 142 431 l 1
894 397 m 0
 894 416 863 427 800 428 c 2
 620 433 l 1
 678 381 l 1
 673 376 669 372 666 369 c 1
 776 369 l 2
 855 370 894 379 894 397 c 0
610 297 m 0
 610 312 597 319 570 320 c 2
 508 320 l 1
 493 331 479 336 464 335 c 0
 439 335 420 325 408 304 c 1
 500 266 l 1
 552 266 l 2
 591 265 610 276 610 297 c 0
572 222 m 0
 572 228 569 235 564 243 c 1
 494 242 l 1
 442 265 l 1
 415 262 397 251 386 233 c 1
 480 192 l 1
 524 191 l 2
 556 190 572 201 572 222 c 0
642 381 m 1
 566 452 l 1
 442 462 l 1
 414 454 359 433 276 400 c 1
 188 400 l 1
 177 370 170 340 170 309 c 0
 170 280 176 251 186 220 c 1
 252 220 l 1
 281 183 315 153 352 131 c 1
 360 130 366 129 370 129 c 0
 375 129 385 130 402 132 c 1
 340 158 l 1
 348 177 362 194 380 209 c 1
 350 223 l 1
 368 254 387 272 408 279 c 1
 374 294 l 1
 396 337 427 359 464 359 c 0
 481 359 497 354 514 345 c 1
 558 345 l 1
 542 351 525 362 506 377 c 1
 477 362 449 355 422 356 c 2
 410 356 l 1
 410 381 l 1
 418 380 l 2
 447 379 477 387 510 406 c 1
 538 377 567 363 594 362 c 0
 613 362 628 368 642 381 c 1
518 168 m 1
 472 168 l 1
 406 197 l 1
 392 188 381 179 374 170 c 1
 454 132 l 1
 474 132 l 2
 504 131 518 143 518 168 c 1
EndSplineSet
Colour: ff
EndChar
StartChar: uF2029
Encoding: 991273 991273 360
Width: 1000
Flags: W
LayerCount: 2
Fore
SplineSet
0 -200 m 1
 0 300 l 1
 1000 300 l 1
 1000 -200 l 1
 0 -200 l 1
EndSplineSet
Colour: ff
EndChar
StartChar: uF202C
Encoding: 991276 991276 370
Width: 1000
VWidth: 940
Flags: W
LayerCount: 2
Fore
SplineSet
0 -200 m 1
 0 675 l 1
 1000 675 l 1
 1000 -200 l 1
 0 -200 l 1
EndSplineSet
Colour: ff
EndChar
StartChar: uF202D
Encoding: 991277 991277 370
Width: 1000
VWidth: 940
Flags: W
LayerCount: 2
Fore
SplineSet
0 -200 m 1
 0 800 l 1
 1000 800 l 1
 1000 -200 l 1
 0 -200 l 1
EndSplineSet
Colour: ff
EndChar
StartChar: uF202E
Encoding: 991278 991278 365
Width: 1000
Flags: W
LayerCount: 2
Fore
SplineSet
0 -200 m 1
 0 800 l 1
 125 800 l 1
 125 -200 l 1
 0 -200 l 1
EndSplineSet
Colour: ff
EndChar
StartChar: uF2030
Encoding: 991280 991280 382
Width: 1000
VWidth: 940
Flags: W
LayerCount: 2
Fore
SplineSet
0 -200 m 1
 0 800 l 1
 375 800 l 1
 375 -200 l 1
 0 -200 l 1
EndSplineSet
Colour: ff
EndChar
StartChar: uF2038
Encoding: 991288 991288 375
Width: 1000
Flags: W
LayerCount: 2
Fore
SplineSet
0 277 m 1
 0 323 l 5
 288.85 323 523 88.85 523 -200 c 1
 477 -200 l 1
 477 63.45 263.45 277 0 277 c 1
EndSplineSet
Colour: ff
EndChar
StartChar: uF2039
Encoding: 991289 991289 380
Width: 1000
VWidth: 940
Flags: W
LayerCount: 2
Fore
SplineSet
477 800 m 1
 523 800 l 1
 523 536.55 736.55 323 1000 323 c 1
 1000 277 l 1
 711.15 277 477 511.15 477 800 c 1
EndSplineSet
Colour: ff
EndChar
StartChar: uF203B
Encoding: 991291 991291 393
Width: 1000
VWidth: 940
Flags: W
LayerCount: 2
Fore
SplineSet
0 147 m 1
 0 193 l 1
 1000 193 l 1
 1000 147 l 1
 0 147 l 1
0 407 m 1
 0 453 l 1
 1000 453 l 1
 1000 407 l 1
 0 407 l 1
EndSplineSet
Colour: ff
EndChar
StartChar: uF203C
Encoding: 991292 991292 379
Width: 1000
Flags: W
LayerCount: 2
Fore
SplineSet
477 -200 m 1
 477 800 l 1
 523 800 l 1
 523 453 l 1
 1000 453 l 1
 1000 407 l 1
 523 407 l 1
 523 193 l 1
 1000 193 l 1
 1000 147 l 1
 523 147 l 1
 523 -200 l 1
 477 -200 l 1
EndSplineSet
Colour: ff
EndChar
StartChar: uF203F
Encoding: 991295 991295 389
Width: 1000
VWidth: 940
Flags: W
LayerCount: 2
Fore
SplineSet
0 -200 m 5
 1000 800 l 5
 1000 -200 l 1
 0 -200 l 5
EndSplineSet
Colour: ff
EndChar
StartChar: uF2040
Encoding: 991296 991296 381
Width: 1000
Flags: W
LayerCount: 2
Fore
SplineSet
0 -200 m 1
 0 800 l 5
 1000 -200 l 5
 0 -200 l 1
EndSplineSet
Colour: ff
EndChar
StartChar: uF2047
Encoding: 991303 991303 389
Width: 1000
VWidth: 940
Flags: W
LayerCount: 2
Fore
SplineSet
-16.2626953125 -183.736328125 m 1
 467.473632812 300 l 1
 -16.2626953125 783.736328125 l 1
 16.263671875 816.262695312 l 1
 500 332.526367188 l 1
 983.736328125 816.262695312 l 1
 1016.26269531 783.736328125 l 1
 532.526367188 300 l 1
 1016.26269531 -183.736328125 l 1
 983.736328125 -216.262695312 l 1
 500 267.473632812 l 1
 16.263671875 -216.262695312 l 1
 -16.2626953125 -183.736328125 l 1
EndSplineSet
Colour: ff
EndChar
StartChar: uF2075
Encoding: 991349 991349 297
Width: 1000
Flags: MW
LayerCount: 2
Fore
SplineSet
944 466 m 256
 944 453 938 446 926 446 c 2
 194 446 l 1
 242 417 280 376 307 325 c 0
 317 306 327 280 336 247 c 0
 336 246 336 245 337 244 c 0
 337 237 334 233 328 233 c 0
 309 233 298 235 297 240 c 0
 295 247 292 258 288 271 c 0
 273 314 248 351 214 383 c 0
 180 415 141 437 97 448 c 0
 90 449 79 452 65 455 c 0
 59 456 56 460 56 466 c 0
 56 471 59 475 65 477 c 0
 76 479 76 479 98 483 c 0
 141 494 180 516 214 548 c 0
 248 580 273 617 288 660 c 0
 290 667 293 678 297 692 c 0
 299 697 302 699 306 699 c 8
 314 699 318 699 326 699 c 17
 333 698 337 695 337 688 c 1
 336 685 l 0
 327 651 317 625 307 606 c 0
 280 555 242 515 194 486 c 1
 926 486 l 2
 938 486 944 479 944 466 c 256
944 133 m 0
 944 127 941 123 935 122 c 0
 928 121 917 118 903 115 c 0
 860 104 821 82 786 50 c 0
 751 18 727 -19 712 -62 c 0
 710 -69 707 -80 703 -93 c 0
 702 -98 699 -100 694 -100 c 8
 687 -100 682 -101 675 -101 c 17
 667 -100 663 -96 663 -89 c 1
 664 -86 l 0
 677 -41 693 -3 714 27 c 0
 739 62 770 91 806 113 c 1
 74 113 l 2
 62 113 56 120 56 133 c 256
 56 146 62 153 74 153 c 2
 806 153 l 1
 769 175 739 203 714 238 c 0
 693 267 676 305 664 352 c 8
 664 353 663 354 663 355 c 16
 663 362 666 366 672 366 c 0
 691 366 701 364 703 359 c 0
 705 352 708 341 712 327 c 0
 734 264 773 216 829 182 c 0
 854 167 880 156 909 149 c 0
 916 148 923 147 930 146 c 0
 939 143 944 139 944 133 c 0
EndSplineSet
Colour: ff
EndChar
StartChar: uF2076
Encoding: 991350 991350 298
Width: 1000
Flags: MW
LayerCount: 2
Fore
SplineSet
944 466 m 0
 944 460 941 456 935 455 c 0
 928 454 917 451 903 448 c 0
 859 437 820 416 786 384 c 0
 752 352 727 314 712 271 c 0
 710 264 707 253 703 240 c 0
 702 235 691 233 672 233 c 0
 666 233 663 237 663 244 c 1
 664 247 l 0
 673 280 683 306 693 325 c 0
 720 376 758 417 806 446 c 1
 74 446 l 2
 62 446 56 453 56 466 c 256
 56 479 62 486 74 486 c 2
 806 486 l 1
 757 515 720 555 693 606 c 0
 683 625 673 651 664 685 c 8
 664 686 663 687 663 688 c 16
 663 695 667 698 674 699 c 9
 682 699 686 699 694 699 c 16
 698 699 701 697 703 692 c 0
 705 685 708 674 712 660 c 0
 727 617 752 580 786 548 c 0
 820 516 859 494 902 483 c 0
 909 482 920 480 935 477 c 0
 941 475 944 471 944 466 c 0
944 133 m 256
 944 120 938 113 926 113 c 2
 194 113 l 1
 230 91 261 62 286 27 c 0
 307 -3 324 -41 336 -86 c 0
 336 -87 337 -88 337 -89 c 16
 337 -96 333 -100 325 -101 c 9
 318 -101 313 -100 306 -100 c 16
 301 -100 298 -98 297 -93 c 0
 296 -86 293 -75 288 -62 c 0
 273 -19 248 18 214 50 c 0
 180 82 141 104 97 115 c 0
 90 116 79 119 65 122 c 0
 59 123 56 127 56 133 c 0
 56 139 61 143 70 146 c 0
 77 147 84 148 91 149 c 0
 158 164 211 200 251 257 c 0
 266 278 278 301 288 327 c 0
 290 334 293 345 297 359 c 0
 299 364 309 366 328 366 c 0
 334 366 337 362 337 355 c 1
 336 352 l 0
 323 305 307 267 286 238 c 0
 261 203 231 175 194 153 c 1
 926 153 l 2
 938 153 944 146 944 133 c 256
EndSplineSet
Colour: ff
EndChar
StartChar: uF2077
Encoding: 991351 991351 299
Width: 1000
Flags: MW
LayerCount: 2
Fore
SplineSet
899 117 m 0
 899 98 897 87 892 85 c 0
 885 83 874 80 860 76 c 0
 817 61 780 37 748 3 c 0
 716 -31 695 -70 684 -114 c 0
 683 -121 680 -132 677 -146 c 0
 676 -152 672 -155 666 -155 c 0
 661 -155 657 -152 655 -146 c 0
 654 -139 651 -128 648 -114 c 0
 637 -71 616 -32 584 2 c 0
 552 36 515 61 472 76 c 0
 465 78 454 81 440 85 c 0
 435 87 433 90 433 95 c 8
 433 102 433 107 433 114 c 21
 434 121 437 125 444 125 c 1
 447 125 l 0
 481 116 507 106 525 96 c 0
 576 69 617 31 646 -18 c 1
 646 706 l 2
 646 718 653 724 666 724 c 256
 679 724 686 718 686 706 c 2
 686 -18 l 1
 715 30 756 68 807 96 c 0
 826 106 852 116 885 125 c 0
 886 125 886 125 888 125 c 0
 895 126 899 123 899 117 c 0
567 452 m 0
 567 446 563 443 556 443 c 1
 553 444 l 0
 520 453 494 463 475 473 c 0
 424 500 383 538 354 586 c 1
 354 -137 l 2
 354 -149 347 -155 334 -155 c 256
 321 -155 314 -149 314 -137 c 2
 314 586 l 1
 285 537 244 500 193 473 c 0
 174 463 148 453 115 444 c 0
 114 444 113 443 112 443 c 16
 105 443 102 447 101 454 c 9
 101 462 101 466 101 474 c 16
 101 478 103 481 108 483 c 0
 115 485 126 488 140 492 c 0
 183 507 220 532 252 566 c 0
 284 600 305 639 316 682 c 0
 317 689 319 700 323 715 c 0
 325 721 329 724 334 724 c 0
 340 724 344 721 345 715 c 0
 346 708 349 697 352 683 c 0
 363 639 384 600 416 566 c 0
 448 532 485 507 528 492 c 0
 535 490 546 487 560 483 c 0
 565 482 567 471 567 452 c 0
EndSplineSet
Colour: ff
EndChar
StartChar: uF2634
Encoding: 992820 992820 55
Width: 1000
Flags: MW
LayerCount: 2
Fore
SplineSet
107 -136 m 0
 107 -133 108 -129 116 -120 c 2
 851 723 l 2
 856 729 871 748 882 748 c 0
 886 748 892 744 892 736 c 0
 892 732 887 726 884 723 c 2
 148 -121 l 2
 133 -139 124 -148 116 -148 c 0
 110 -148 107 -142 107 -136 c 0
35 557 m 5
 35 561 35 569 35 573 c 5
 36 638 46 735 161 762 c 4
 178 766 198 768 221 768 c 4
 267 768 315 758 347 733 c 4
 402 691 407 618 408 577 c 5
 408 573 408 567 408 564 c 5
 408 466 385 387 280 364 c 4
 263 360 245 359 221 359 c 4
 92 359 35 430 35 557 c 5
126 559 m 5
 126 466 146 432 186 418 c 4
 197 414 210 413 222 413 c 4
 233 413 254 416 273 427 c 4
 305 447 316 485 317 561 c 5
 317 564 317 582 317 586 c 5
 317 631 308 669 291 687 c 4
 274 705 247 713 221 713 c 4
 159 713 126 673 126 587 c 5
 126 583 126 563 126 559 c 5
591 -122 m 1
 600 -61 l 1
 632 -70 666 -79 705 -84 c 0
 724 -86 744 -88 766 -88 c 0xe8
 805 -88 829 -78 843 -66 c 4
 858 -53 862 -37 862 -26 c 0xe8
 862 -4 845 13 831 21 c 0
 809 34 783 35 757 35 c 2
 716 35 l 1
 716 97 l 1
 757 101 793 100 822 126 c 0
 833 137 841 151 841 167 c 0
 841 185 827 213 769 213 c 0
 710 213 671 188 638 161 c 1
 605 217 l 1
 650 250 704 272 769 272 c 0
 855 272 924 226 924 167 c 0xf0
 924 97 855 68 853 65 c 1
 887 55 951 27 951 -27 c 0
 951 -58 930 -96 887 -121 c 0
 858 -138 818 -150 768 -150 c 0
 748 -150 728 -149 707 -147 c 0
 672 -143 634 -135 591 -122 c 1
EndSplineSet
EndChar
StartChar: uF2635
Encoding: 992821 992821 56
Width: 1000
Flags: MW
LayerCount: 2
Fore
SplineSet
107 -136 m 0
 107 -133 108 -129 116 -120 c 2
 851 723 l 2
 856 729 871 748 882 748 c 0
 886 748 892 744 892 736 c 0
 892 732 887 726 884 723 c 2
 148 -121 l 2
 133 -139 124 -148 116 -148 c 0
 110 -148 107 -142 107 -136 c 0
69 639 m 1
 69 697 l 1
 180 698 228 746 253 772 c 1
 272 772 l 1
 272 420 l 1
 374 420 l 1
 374 361 l 1
 83 361 l 1
 83 420 l 1
 192 420 l 1
 192 665 l 1
 181 660 143 639 69 639 c 1
591 -122 m 1
 600 -61 l 1
 632 -70 666 -79 705 -84 c 0
 724 -86 744 -88 766 -88 c 0xe8
 805 -88 829 -78 843 -66 c 4
 858 -53 862 -37 862 -26 c 0xe8
 862 -4 845 13 831 21 c 0
 809 34 783 35 757 35 c 2
 716 35 l 1
 716 97 l 1
 757 101 793 100 822 126 c 0
 833 137 841 151 841 167 c 0
 841 185 827 213 769 213 c 0
 710 213 671 188 638 161 c 1
 605 217 l 1
 650 250 704 272 769 272 c 0
 855 272 924 226 924 167 c 0xf0
 924 97 855 68 853 65 c 1
 887 55 951 27 951 -27 c 0
 951 -58 930 -96 887 -121 c 0
 858 -138 818 -150 768 -150 c 0
 748 -150 728 -149 707 -147 c 0
 672 -143 634 -135 591 -122 c 1
EndSplineSet
EndChar
StartChar: uF2636
Encoding: 992822 992822 57
Width: 1000
Flags: MW
LayerCount: 2
Fore
SplineSet
107 -136 m 0
 107 -133 108 -129 116 -120 c 2
 851 723 l 2
 856 729 871 748 882 748 c 0
 886 748 892 744 892 736 c 0
 892 732 887 726 884 723 c 2
 148 -121 l 2
 133 -139 124 -148 116 -148 c 0
 110 -148 107 -142 107 -136 c 0
41 691 m 1
 87 748 134 772 207 772 c 0
 317 772 393 710 393 624 c 0
 393 545 303 530 232 495 c 0
 220 490 209 483 116 431 c 1
 265 431 l 1
 290 432 l 1
 393 432 l 1
 393 361 l 1
 49 361 l 1
 49 431 l 1
 138 484 150 491 161 497 c 0
 222 528 310 550 310 622 c 0
 310 673 262 708 194 708 c 0
 122 708 98 667 80 633 c 1
 41 691 l 1
591 -122 m 1
 600 -61 l 1
 632 -70 666 -79 705 -84 c 0
 724 -86 744 -88 766 -88 c 0xe8
 805 -88 829 -78 843 -66 c 4
 858 -53 862 -37 862 -26 c 0xe8
 862 -4 845 13 831 21 c 0
 809 34 783 35 757 35 c 2
 716 35 l 1
 716 97 l 1
 757 101 793 100 822 126 c 0
 833 137 841 151 841 167 c 0
 841 185 827 213 769 213 c 0
 710 213 671 188 638 161 c 1
 605 217 l 1
 650 250 704 272 769 272 c 0
 855 272 924 226 924 167 c 0xf0
 924 97 855 68 853 65 c 1
 887 55 951 27 951 -27 c 0
 951 -58 930 -96 887 -121 c 0
 858 -138 818 -150 768 -150 c 0
 748 -150 728 -149 707 -147 c 0
 672 -143 634 -135 591 -122 c 1
EndSplineSet
EndChar
StartChar: uF2637
Encoding: 992823 992823 58
Width: 1000
Flags: MW
LayerCount: 2
Fore
SplineSet
107 -136 m 0
 107 -133 108 -129 116 -120 c 2
 851 723 l 2
 856 729 871 748 882 748 c 0
 886 748 892 744 892 736 c 0
 892 732 887 726 884 723 c 2
 148 -121 l 2
 133 -139 124 -148 116 -148 c 0
 110 -148 107 -142 107 -136 c 0
41 378 m 1
 50 439 l 1
 82 430 116 421 155 416 c 0
 174 414 194 412 216 412 c 0xe8
 255 412 279 422 293 434 c 4
 308 447 312 463 312 474 c 0xe8
 312 496 295 513 281 521 c 0
 259 534 233 535 207 535 c 2
 166 535 l 1
 166 597 l 1
 207 601 243 600 272 626 c 0
 283 637 291 651 291 667 c 0
 291 685 277 713 219 713 c 0
 160 713 121 688 88 661 c 1
 55 717 l 1
 100 750 154 772 219 772 c 0
 305 772 374 726 374 667 c 0xf0
 374 597 305 568 303 565 c 1
 337 555 401 527 401 473 c 0
 401 442 380 404 337 379 c 0
 308 362 268 350 218 350 c 0
 198 350 178 351 157 353 c 0
 122 357 84 365 41 378 c 1
574 -38 m 5
 574 14 l 5
 574 18 575 17 579 21 c 5
 784 255 l 5
 888 255 l 5
 888 17 l 5
 968 17 l 5
 968 -38 l 5
 888 -38 l 5
 888 -130 l 5
 802 -130 l 5
 802 -38 l 5
 574 -38 l 5
652 17 m 5
 807 17 l 5
 807 205 l 5
 794 168 756 129 652 17 c 5
EndSplineSet
EndChar
StartChar: uF2638
Encoding: 992824 992824 59
Width: 1000
Flags: MW
LayerCount: 2
Fore
SplineSet
107 -136 m 0
 107 -133 108 -129 116 -120 c 2
 851 723 l 2
 856 729 871 748 882 748 c 0
 886 748 892 744 892 736 c 0
 892 732 887 726 884 723 c 2
 148 -121 l 2
 133 -139 124 -148 116 -148 c 0
 110 -148 107 -142 107 -136 c 0
69 639 m 1
 69 697 l 1
 180 698 228 746 253 772 c 1
 272 772 l 1
 272 420 l 1
 374 420 l 1
 374 361 l 1
 83 361 l 1
 83 420 l 1
 192 420 l 1
 192 665 l 1
 181 660 143 639 69 639 c 1
581 -85 m 5
 618 -40 l 5
 622 -45 626 -49 631 -53 c 4
 645 -64 663 -72 680 -78 c 4
 705 -86 731 -89 749 -89 c 4
 780 -89 807 -82 825 -67 c 4
 841 -54 848 -34 848 -8 c 5
 848 -5 848 4 848 7 c 5
 846 29 839 48 825 59 c 4
 813 69 796 74 778 74 c 4
 714 74 690 32 690 32 c 5
 618 32 l 5
 618 255 l 5
 919 255 l 5
 919 202 l 5
 704 202 l 5
 704 109 l 5
 726 118 746 124 781 124 c 4
 826 124 866 114 896 96 c 4
 929 76 949 36 949 -9 c 4
 949 -52 928 -84 894 -106 c 4
 857 -131 805 -142 751 -142 c 4
 716 -142 684 -138 657 -128 c 4
 620 -117 595 -98 581 -85 c 5
EndSplineSet
EndChar
StartChar: uF2639
Encoding: 992825 992825 60
Width: 1000
Flags: MW
LayerCount: 2
Fore
SplineSet
107 -136 m 0
 107 -133 108 -129 116 -120 c 2
 851 723 l 2
 856 729 871 748 882 748 c 0
 886 748 892 744 892 736 c 0
 892 732 887 726 884 723 c 2
 148 -121 l 2
 133 -139 124 -148 116 -148 c 0
 110 -148 107 -142 107 -136 c 0
41 691 m 1
 87 748 134 772 207 772 c 0
 317 772 393 710 393 624 c 0
 393 545 303 530 232 495 c 0
 220 490 209 483 116 431 c 1
 265 431 l 1
 290 432 l 1
 393 432 l 1
 393 361 l 1
 49 361 l 1
 49 431 l 1
 138 484 150 491 161 497 c 0
 222 528 310 550 310 622 c 0
 310 673 262 708 194 708 c 0
 122 708 98 667 80 633 c 1
 41 691 l 1
581 -85 m 5
 618 -40 l 5
 622 -45 626 -49 631 -53 c 4
 645 -64 663 -72 680 -78 c 4
 705 -86 731 -89 749 -89 c 4
 780 -89 807 -82 825 -67 c 4
 841 -54 848 -34 848 -8 c 5
 848 -5 848 4 848 7 c 5
 846 29 839 48 825 59 c 4
 813 69 796 74 778 74 c 4
 714 74 690 32 690 32 c 5
 618 32 l 5
 618 255 l 5
 919 255 l 5
 919 202 l 5
 704 202 l 5
 704 109 l 5
 726 118 746 124 781 124 c 4
 826 124 866 114 896 96 c 4
 929 76 949 36 949 -9 c 4
 949 -52 928 -84 894 -106 c 4
 857 -131 805 -142 751 -142 c 4
 716 -142 684 -138 657 -128 c 4
 620 -117 595 -98 581 -85 c 5
EndSplineSet
EndChar
StartChar: uF263A
Encoding: 992826 992826 61
Width: 1000
Flags: MW
LayerCount: 2
Fore
SplineSet
107 -136 m 0
 107 -133 108 -129 116 -120 c 2
 851 723 l 2
 856 729 871 748 882 748 c 0
 886 748 892 744 892 736 c 0
 892 732 887 726 884 723 c 2
 148 -121 l 2
 133 -139 124 -148 116 -148 c 0
 110 -148 107 -142 107 -136 c 0
41 378 m 1
 50 439 l 1
 82 430 116 421 155 416 c 0
 174 414 194 412 216 412 c 0xe8
 255 412 279 422 293 434 c 4
 308 447 312 463 312 474 c 0xe8
 312 496 295 513 281 521 c 0
 259 534 233 535 207 535 c 2
 166 535 l 1
 166 597 l 1
 207 601 243 600 272 626 c 0
 283 637 291 651 291 667 c 0
 291 685 277 713 219 713 c 0
 160 713 121 688 88 661 c 1
 55 717 l 1
 100 750 154 772 219 772 c 0
 305 772 374 726 374 667 c 0xf0
 374 597 305 568 303 565 c 1
 337 555 401 527 401 473 c 0
 401 442 380 404 337 379 c 0
 308 362 268 350 218 350 c 0
 198 350 178 351 157 353 c 0
 122 357 84 365 41 378 c 1
581 -85 m 5
 618 -40 l 5
 622 -45 626 -49 631 -53 c 4
 645 -64 663 -72 680 -78 c 4
 705 -86 731 -89 749 -89 c 4
 780 -89 807 -82 825 -67 c 4
 841 -54 848 -34 848 -8 c 5
 848 -5 848 4 848 7 c 5
 846 29 839 48 825 59 c 4
 813 69 796 74 778 74 c 4
 714 74 690 32 690 32 c 5
 618 32 l 5
 618 255 l 5
 919 255 l 5
 919 202 l 5
 704 202 l 5
 704 109 l 5
 726 118 746 124 781 124 c 4
 826 124 866 114 896 96 c 4
 929 76 949 36 949 -9 c 4
 949 -52 928 -84 894 -106 c 4
 857 -131 805 -142 751 -142 c 4
 716 -142 684 -138 657 -128 c 4
 620 -117 595 -98 581 -85 c 5
EndSplineSet
EndChar
StartChar: uF263B
Encoding: 992827 992827 62
Width: 1000
Flags: MW
LayerCount: 2
Fore
SplineSet
107 -136 m 0
 107 -133 108 -129 116 -120 c 2
 851 723 l 2
 856 729 871 748 882 748 c 0
 886 748 892 744 892 736 c 0
 892 732 887 726 884 723 c 2
 148 -121 l 2
 133 -139 124 -148 116 -148 c 0
 110 -148 107 -142 107 -136 c 0
24 462 m 5
 24 514 l 5
 24 518 25 517 29 521 c 5
 234 755 l 5
 338 755 l 5
 338 517 l 5
 418 517 l 5
 418 462 l 5
 338 462 l 5
 338 370 l 5
 252 370 l 5
 252 462 l 5
 24 462 l 5
102 517 m 5
 257 517 l 5
 257 705 l 5
 244 668 206 629 102 517 c 5
581 -85 m 5
 618 -40 l 5
 622 -45 626 -49 631 -53 c 4
 645 -64 663 -72 680 -78 c 4
 705 -86 731 -89 749 -89 c 4
 780 -89 807 -82 825 -67 c 4
 841 -54 848 -34 848 -8 c 5
 848 -5 848 4 848 7 c 5
 846 29 839 48 825 59 c 4
 813 69 796 74 778 74 c 4
 714 74 690 32 690 32 c 5
 618 32 l 5
 618 255 l 5
 919 255 l 5
 919 202 l 5
 704 202 l 5
 704 109 l 5
 726 118 746 124 781 124 c 4
 826 124 866 114 896 96 c 4
 929 76 949 36 949 -9 c 4
 949 -52 928 -84 894 -106 c 4
 857 -131 805 -142 751 -142 c 4
 716 -142 684 -138 657 -128 c 4
 620 -117 595 -98 581 -85 c 5
EndSplineSet
EndChar
StartChar: uF263C
Encoding: 992828 992828 63
Width: 1000
Flags: MW
LayerCount: 2
Fore
SplineSet
107 -136 m 0
 107 -133 108 -129 116 -120 c 2
 851 723 l 2
 856 729 871 748 882 748 c 0
 886 748 892 744 892 736 c 0
 892 732 887 726 884 723 c 2
 148 -121 l 2
 133 -139 124 -148 116 -148 c 0
 110 -148 107 -142 107 -136 c 0
69 639 m 1
 69 697 l 1
 180 698 228 746 253 772 c 1
 272 772 l 1
 272 420 l 1
 374 420 l 1
 374 361 l 1
 83 361 l 1
 83 420 l 1
 192 420 l 1
 192 665 l 1
 181 660 143 639 69 639 c 1
587 61 m 4
 587 135 612 179 645 209 c 4
 686 248 748 268 822 268 c 4
 859 268 883 265 909 257 c 5
 909 208 l 5
 884 214 862 220 824 220 c 4
 770 220 737 202 719 186 c 4
 697 166 683 137 682 97 c 5
 709 124 753 144 811 144 c 4
 868 144 895 129 916 111 c 4
 948 83 955 46 956 11 c 5
 956 9 956 6 956 4 c 5
 956 -34 948 -67 912 -98 c 4
 870 -136 817 -141 774 -141 c 4
 722 -141 674 -129 641 -98 c 4
 598 -60 587 3 587 61 c 4
683 12 m 4
 683 7 684 4 684 -1 c 4
 688 -41 702 -87 775 -87 c 4
 834 -87 855 -58 860 -33 c 4
 862 -22 862 -9 862 2 c 5
 862 6 862 17 862 20 c 5
 861 40 858 56 846 70 c 4
 829 88 805 95 778 95 c 4
 722 95 692 65 685 30 c 4
 684 24 683 18 683 12 c 4
EndSplineSet
EndChar
StartChar: uF263D
Encoding: 992829 992829 64
Width: 1000
Flags: MW
LayerCount: 2
Fore
SplineSet
107 -136 m 0
 107 -133 108 -129 116 -120 c 2
 851 723 l 2
 856 729 871 748 882 748 c 0
 886 748 892 744 892 736 c 0
 892 732 887 726 884 723 c 2
 148 -121 l 2
 133 -139 124 -148 116 -148 c 0
 110 -148 107 -142 107 -136 c 0
31 415 m 5
 68 460 l 5
 72 455 76 451 81 447 c 4
 95 436 113 428 130 422 c 4
 155 414 181 411 199 411 c 4
 230 411 257 418 275 433 c 4
 291 446 298 466 298 492 c 5
 298 495 298 504 298 507 c 5
 296 529 289 548 275 559 c 4
 263 569 246 574 228 574 c 4
 164 574 140 532 140 532 c 5
 68 532 l 5
 68 755 l 5
 369 755 l 5
 369 702 l 5
 154 702 l 5
 154 609 l 5
 176 618 196 624 231 624 c 4
 276 624 316 614 346 596 c 4
 379 576 399 536 399 491 c 4
 399 448 378 416 344 394 c 4
 307 369 255 358 201 358 c 4
 166 358 134 362 107 372 c 4
 70 383 45 402 31 415 c 5
587 61 m 4
 587 135 612 179 645 209 c 4
 686 248 748 268 822 268 c 4
 859 268 883 265 909 257 c 5
 909 208 l 5
 884 214 862 220 824 220 c 4
 770 220 737 202 719 186 c 4
 697 166 683 137 682 97 c 5
 709 124 753 144 811 144 c 4
 868 144 895 129 916 111 c 4
 948 83 955 46 956 11 c 5
 956 9 956 6 956 4 c 5
 956 -34 948 -67 912 -98 c 4
 870 -136 817 -141 774 -141 c 4
 722 -141 674 -129 641 -98 c 4
 598 -60 587 3 587 61 c 4
683 12 m 4
 683 7 684 4 684 -1 c 4
 688 -41 702 -87 775 -87 c 4
 834 -87 855 -58 860 -33 c 4
 862 -22 862 -9 862 2 c 5
 862 6 862 17 862 20 c 5
 861 40 858 56 846 70 c 4
 829 88 805 95 778 95 c 4
 722 95 692 65 685 30 c 4
 684 24 683 18 683 12 c 4
EndSplineSet
EndChar
StartChar: uF263E
Encoding: 992830 992830 65
Width: 1000
Flags: MW
LayerCount: 2
Fore
SplineSet
107 -136 m 0
 107 -133 108 -129 116 -120 c 2
 851 723 l 2
 856 729 871 748 882 748 c 0
 886 748 892 744 892 736 c 0
 892 732 887 726 884 723 c 2
 148 -121 l 2
 133 -139 124 -148 116 -148 c 0
 110 -148 107 -142 107 -136 c 0
69 639 m 1
 69 697 l 1
 180 698 228 746 253 772 c 1
 272 772 l 1
 272 420 l 1
 374 420 l 1
 374 361 l 1
 83 361 l 1
 83 420 l 1
 192 420 l 1
 192 665 l 1
 181 660 143 639 69 639 c 1
586 190 m 5
 586 255 l 5
 956 255 l 5
 956 193 l 5
 835 98 770 -13 770 -136 c 5
 674 -136 l 5
 674 -15 743 94 894 190 c 5
 586 190 l 5
EndSplineSet
EndChar
StartChar: uF263F
Encoding: 992831 992831 66
Width: 1000
Flags: MW
LayerCount: 2
Fore
SplineSet
107 -136 m 0
 107 -133 108 -129 116 -120 c 2
 851 723 l 2
 856 729 871 748 882 748 c 0
 886 748 892 744 892 736 c 0
 892 732 887 726 884 723 c 2
 148 -121 l 2
 133 -139 124 -148 116 -148 c 0
 110 -148 107 -142 107 -136 c 0
41 691 m 1
 87 748 134 772 207 772 c 0
 317 772 393 710 393 624 c 0
 393 545 303 530 232 495 c 0
 220 490 209 483 116 431 c 1
 265 431 l 1
 290 432 l 1
 393 432 l 1
 393 361 l 1
 49 361 l 1
 49 431 l 1
 138 484 150 491 161 497 c 0
 222 528 310 550 310 622 c 0
 310 673 262 708 194 708 c 0
 122 708 98 667 80 633 c 1
 41 691 l 1
586 190 m 5
 586 255 l 5
 956 255 l 5
 956 193 l 5
 835 98 770 -13 770 -136 c 5
 674 -136 l 5
 674 -15 743 94 894 190 c 5
 586 190 l 5
EndSplineSet
EndChar
StartChar: uF2640
Encoding: 992832 992832 67
Width: 1000
Flags: MW
LayerCount: 2
Fore
SplineSet
107 -136 m 0
 107 -133 108 -129 116 -120 c 2
 851 723 l 2
 856 729 871 748 882 748 c 0
 886 748 892 744 892 736 c 0
 892 732 887 726 884 723 c 2
 148 -121 l 2
 133 -139 124 -148 116 -148 c 0
 110 -148 107 -142 107 -136 c 0
41 378 m 1
 50 439 l 1
 82 430 116 421 155 416 c 0
 174 414 194 412 216 412 c 0xe8
 255 412 279 422 293 434 c 4
 308 447 312 463 312 474 c 0xe8
 312 496 295 513 281 521 c 0
 259 534 233 535 207 535 c 2
 166 535 l 1
 166 597 l 1
 207 601 243 600 272 626 c 0
 283 637 291 651 291 667 c 0
 291 685 277 713 219 713 c 0
 160 713 121 688 88 661 c 1
 55 717 l 1
 100 750 154 772 219 772 c 0
 305 772 374 726 374 667 c 0xf0
 374 597 305 568 303 565 c 1
 337 555 401 527 401 473 c 0
 401 442 380 404 337 379 c 0
 308 362 268 350 218 350 c 0
 198 350 178 351 157 353 c 0
 122 357 84 365 41 378 c 1
586 190 m 5
 586 255 l 5
 956 255 l 5
 956 193 l 5
 835 98 770 -13 770 -136 c 5
 674 -136 l 5
 674 -15 743 94 894 190 c 5
 586 190 l 5
EndSplineSet
EndChar
StartChar: uF2641
Encoding: 992833 992833 68
Width: 1000
Flags: MW
LayerCount: 2
Fore
SplineSet
107 -136 m 0
 107 -133 108 -129 116 -120 c 2
 851 723 l 2
 856 729 871 748 882 748 c 0
 886 748 892 744 892 736 c 0
 892 732 887 726 884 723 c 2
 148 -121 l 2
 133 -139 124 -148 116 -148 c 0
 110 -148 107 -142 107 -136 c 0
24 462 m 5
 24 514 l 5
 24 518 25 517 29 521 c 5
 234 755 l 5
 338 755 l 5
 338 517 l 5
 418 517 l 5
 418 462 l 5
 338 462 l 5
 338 370 l 5
 252 370 l 5
 252 462 l 5
 24 462 l 5
102 517 m 5
 257 517 l 5
 257 705 l 5
 244 668 206 629 102 517 c 5
586 190 m 5
 586 255 l 5
 956 255 l 5
 956 193 l 5
 835 98 770 -13 770 -136 c 5
 674 -136 l 5
 674 -15 743 94 894 190 c 5
 586 190 l 5
EndSplineSet
EndChar
StartChar: uF2642
Encoding: 992834 992834 69
Width: 1000
Flags: MW
LayerCount: 2
Fore
SplineSet
107 -136 m 0
 107 -133 108 -129 116 -120 c 2
 851 723 l 2
 856 729 871 748 882 748 c 0
 886 748 892 744 892 736 c 0
 892 732 887 726 884 723 c 2
 148 -121 l 2
 133 -139 124 -148 116 -148 c 0
 110 -148 107 -142 107 -136 c 0
31 415 m 5
 68 460 l 5
 72 455 76 451 81 447 c 4
 95 436 113 428 130 422 c 4
 155 414 181 411 199 411 c 4
 230 411 257 418 275 433 c 4
 291 446 298 466 298 492 c 5
 298 495 298 504 298 507 c 5
 296 529 289 548 275 559 c 4
 263 569 246 574 228 574 c 4
 164 574 140 532 140 532 c 5
 68 532 l 5
 68 755 l 5
 369 755 l 5
 369 702 l 5
 154 702 l 5
 154 609 l 5
 176 618 196 624 231 624 c 4
 276 624 316 614 346 596 c 4
 379 576 399 536 399 491 c 4
 399 448 378 416 344 394 c 4
 307 369 255 358 201 358 c 4
 166 358 134 362 107 372 c 4
 70 383 45 402 31 415 c 5
586 190 m 5
 586 255 l 5
 956 255 l 5
 956 193 l 5
 835 98 770 -13 770 -136 c 5
 674 -136 l 5
 674 -15 743 94 894 190 c 5
 586 190 l 5
EndSplineSet
EndChar
StartChar: uF2643
Encoding: 992835 992835 70
Width: 1000
Flags: MW
LayerCount: 2
Fore
SplineSet
107 -136 m 0
 107 -133 108 -129 116 -120 c 2
 851 723 l 2
 856 729 871 748 882 748 c 0
 886 748 892 744 892 736 c 0
 892 732 887 726 884 723 c 2
 148 -121 l 2
 133 -139 124 -148 116 -148 c 0
 110 -148 107 -142 107 -136 c 0
37 561 m 4
 37 635 62 679 95 709 c 4
 136 748 198 768 272 768 c 4
 309 768 333 765 359 757 c 5
 359 708 l 5
 334 714 312 720 274 720 c 4
 220 720 187 702 169 686 c 4
 147 666 133 637 132 597 c 5
 159 624 203 644 261 644 c 4
 318 644 345 629 366 611 c 4
 398 583 405 546 406 511 c 5
 406 509 406 506 406 504 c 5
 406 466 398 433 362 402 c 4
 320 364 267 359 224 359 c 4
 172 359 124 371 91 402 c 4
 48 440 37 503 37 561 c 4
133 512 m 4
 133 507 134 504 134 499 c 4
 138 459 152 413 225 413 c 4
 284 413 305 442 310 467 c 4
 312 478 312 491 312 502 c 5
 312 506 312 517 312 520 c 5
 311 540 308 556 296 570 c 4
 279 588 255 595 228 595 c 4
 172 595 142 565 135 530 c 4
 134 524 133 518 133 512 c 4
586 190 m 5
 586 255 l 5
 956 255 l 5
 956 193 l 5
 835 98 770 -13 770 -136 c 5
 674 -136 l 5
 674 -15 743 94 894 190 c 5
 586 190 l 5
EndSplineSet
EndChar
StartChar: uF2645
Encoding: 992837 992837 72
Width: 1000
Flags: MW
LayerCount: 2
Fore
SplineSet
107 -136 m 0
 107 -133 108 -129 116 -120 c 2
 851 723 l 2
 856 729 871 748 882 748 c 0
 886 748 892 744 892 736 c 0
 892 732 887 726 884 723 c 2
 148 -121 l 2
 133 -139 124 -148 116 -148 c 0
 110 -148 107 -142 107 -136 c 0
41 378 m 1
 50 439 l 1
 82 430 116 421 155 416 c 0
 174 414 194 412 216 412 c 0xe8
 255 412 279 422 293 434 c 4
 308 447 312 463 312 474 c 0xe8
 312 496 295 513 281 521 c 0
 259 534 233 535 207 535 c 2
 166 535 l 1
 166 597 l 1
 207 601 243 600 272 626 c 0
 283 637 291 651 291 667 c 0
 291 685 277 713 219 713 c 0
 160 713 121 688 88 661 c 1
 55 717 l 1
 100 750 154 772 219 772 c 0
 305 772 374 726 374 667 c 0xf0
 374 597 305 568 303 565 c 1
 337 555 401 527 401 473 c 0
 401 442 380 404 337 379 c 0
 308 362 268 350 218 350 c 0
 198 350 178 351 157 353 c 0
 122 357 84 365 41 378 c 1
586 -21 m 4
 586 23 620 62 698 79 c 5
 656 89 599 113 599 164 c 4
 599 218 652 268 771 268 c 5
 772 268 773 268 774 268 c 5
 890 267 944 219 944 164 c 4
 944 111 883 89 845 79 c 5
 909 67 956 31 956 -21 c 4
 956 -83 898 -141 771 -141 c 4
 644 -141 586 -83 586 -21 c 4
680 -23 m 5
 680 -46 687 -66 709 -77 c 4
 723 -85 744 -89 771 -89 c 4
 795 -89 815 -85 831 -77 c 4
 856 -65 863 -43 863 -21 c 5
 863 -19 862 -10 862 -8 c 5
 859 11 852 28 835 38 c 4
 820 48 799 51 771 51 c 4
 747 51 726 48 711 39 c 4
 689 27 683 7 680 -11 c 5
 680 -13 680 -21 680 -23 c 5
682 160 m 5
 682 141 691 127 707 117 c 4
 722 108 743 105 770 105 c 4
 798 105 820 109 834 117 c 4
 853 127 860 143 860 160 c 5
 860 163 860 170 859 172 c 5
 856 187 849 199 835 207 c 4
 821 216 800 220 772 220 c 4
 745 220 723 216 709 208 c 4
 690 198 685 184 683 169 c 5
 683 168 682 162 682 160 c 5
EndSplineSet
EndChar
StartChar: uF2646
Encoding: 992838 992838 73
Width: 1000
Flags: MW
LayerCount: 2
Fore
SplineSet
107 -136 m 0
 107 -133 108 -129 116 -120 c 2
 851 723 l 2
 856 729 871 748 882 748 c 0
 886 748 892 744 892 736 c 0
 892 732 887 726 884 723 c 2
 148 -121 l 2
 133 -139 124 -148 116 -148 c 0
 110 -148 107 -142 107 -136 c 0
31 415 m 5
 68 460 l 5
 72 455 76 451 81 447 c 4
 95 436 113 428 130 422 c 4
 155 414 181 411 199 411 c 4
 230 411 257 418 275 433 c 4
 291 446 298 466 298 492 c 5
 298 495 298 504 298 507 c 5
 296 529 289 548 275 559 c 4
 263 569 246 574 228 574 c 4
 164 574 140 532 140 532 c 5
 68 532 l 5
 68 755 l 5
 369 755 l 5
 369 702 l 5
 154 702 l 5
 154 609 l 5
 176 618 196 624 231 624 c 4
 276 624 316 614 346 596 c 4
 379 576 399 536 399 491 c 4
 399 448 378 416 344 394 c 4
 307 369 255 358 201 358 c 4
 166 358 134 362 107 372 c 4
 70 383 45 402 31 415 c 5
586 -21 m 4
 586 23 620 62 698 79 c 5
 656 89 599 113 599 164 c 4
 599 218 652 268 771 268 c 5
 772 268 773 268 774 268 c 5
 890 267 944 219 944 164 c 4
 944 111 883 89 845 79 c 5
 909 67 956 31 956 -21 c 4
 956 -83 898 -141 771 -141 c 4
 644 -141 586 -83 586 -21 c 4
680 -23 m 5
 680 -46 687 -66 709 -77 c 4
 723 -85 744 -89 771 -89 c 4
 795 -89 815 -85 831 -77 c 4
 856 -65 863 -43 863 -21 c 5
 863 -19 862 -10 862 -8 c 5
 859 11 852 28 835 38 c 4
 820 48 799 51 771 51 c 4
 747 51 726 48 711 39 c 4
 689 27 683 7 680 -11 c 5
 680 -13 680 -21 680 -23 c 5
682 160 m 5
 682 141 691 127 707 117 c 4
 722 108 743 105 770 105 c 4
 798 105 820 109 834 117 c 4
 853 127 860 143 860 160 c 5
 860 163 860 170 859 172 c 5
 856 187 849 199 835 207 c 4
 821 216 800 220 772 220 c 4
 745 220 723 216 709 208 c 4
 690 198 685 184 683 169 c 5
 683 168 682 162 682 160 c 5
EndSplineSet
EndChar
StartChar: uF2647
Encoding: 992839 992839 74
Width: 1000
Flags: MW
LayerCount: 2
Fore
SplineSet
107 -136 m 0
 107 -133 108 -129 116 -120 c 2
 851 723 l 2
 856 729 871 748 882 748 c 0
 886 748 892 744 892 736 c 0
 892 732 887 726 884 723 c 2
 148 -121 l 2
 133 -139 124 -148 116 -148 c 0
 110 -148 107 -142 107 -136 c 0
36 690 m 5
 36 755 l 5
 406 755 l 5
 406 693 l 5
 285 598 220 487 220 364 c 5
 124 364 l 5
 124 485 193 594 344 690 c 5
 36 690 l 5
586 -21 m 4
 586 23 620 62 698 79 c 5
 656 89 599 113 599 164 c 4
 599 218 652 268 771 268 c 5
 772 268 773 268 774 268 c 5
 890 267 944 219 944 164 c 4
 944 111 883 89 845 79 c 5
 909 67 956 31 956 -21 c 4
 956 -83 898 -141 771 -141 c 4
 644 -141 586 -83 586 -21 c 4
680 -23 m 5
 680 -46 687 -66 709 -77 c 4
 723 -85 744 -89 771 -89 c 4
 795 -89 815 -85 831 -77 c 4
 856 -65 863 -43 863 -21 c 5
 863 -19 862 -10 862 -8 c 5
 859 11 852 28 835 38 c 4
 820 48 799 51 771 51 c 4
 747 51 726 48 711 39 c 4
 689 27 683 7 680 -11 c 5
 680 -13 680 -21 680 -23 c 5
682 160 m 5
 682 141 691 127 707 117 c 4
 722 108 743 105 770 105 c 4
 798 105 820 109 834 117 c 4
 853 127 860 143 860 160 c 5
 860 163 860 170 859 172 c 5
 856 187 849 199 835 207 c 4
 821 216 800 220 772 220 c 4
 745 220 723 216 709 208 c 4
 690 198 685 184 683 169 c 5
 683 168 682 162 682 160 c 5
EndSplineSet
EndChar
StartChar: uF2648
Encoding: 992840 992840 75
Width: 1000
Flags: MW
LayerCount: 2
Fore
SplineSet
107 -136 m 0
 107 -133 108 -129 116 -120 c 2
 851 723 l 2
 856 729 871 748 882 748 c 0
 886 748 892 744 892 736 c 0
 892 732 887 726 884 723 c 2
 148 -121 l 2
 133 -139 124 -148 116 -148 c 0
 110 -148 107 -142 107 -136 c 0
69 639 m 1
 69 697 l 1
 180 698 228 746 253 772 c 1
 272 772 l 1
 272 420 l 1
 374 420 l 1
 374 361 l 1
 83 361 l 1
 83 420 l 1
 192 420 l 1
 192 665 l 1
 181 660 143 639 69 639 c 1
587 121 m 0
 587 162 594 195 635 227 c 0
 668 254 706 268 773 268 c 0
 817 268 858 259 889 237 c 0
 940 201 956 135 956 68 c 0
 956 6 937 -58 880 -99 c 0
 840 -127 786 -141 732 -141 c 0
 680 -141 648 -131 614 -115 c 1
 647 -71 l 1
 669 -81 690 -90 733 -90 c 0
 774 -90 809 -77 831 -55 c 0
 845 -40 857 -15 860 19 c 1
 860 22 861 27 861 30 c 1
 836 6 795 -18 732 -18 c 0
 674 -18 647 -2 627 16 c 0
 594 45 587 84 587 121 c 0
681 124 m 1
 682 80 685 66 704 50 c 0
 718 39 738 32 765 32 c 0
 791 32 818 39 836 56 c 0
 851 70 860 90 860 116 c 0
 860 153 852 216 773 216 c 0
 751 216 734 212 721 206 c 0
 691 193 687 167 683 150 c 1
 680 144 681 131 681 124 c 1
EndSplineSet
EndChar
StartChar: uF2649
Encoding: 992841 992841 76
Width: 1000
Flags: MW
LayerCount: 2
Fore
SplineSet
107 -136 m 0
 107 -133 108 -129 116 -120 c 2
 851 723 l 2
 856 729 871 748 882 748 c 0
 886 748 892 744 892 736 c 0
 892 732 887 726 884 723 c 2
 148 -121 l 2
 133 -139 124 -148 116 -148 c 0
 110 -148 107 -142 107 -136 c 0
41 691 m 1
 87 748 134 772 207 772 c 0
 317 772 393 710 393 624 c 0
 393 545 303 530 232 495 c 0
 220 490 209 483 116 431 c 1
 265 431 l 1
 290 432 l 1
 393 432 l 1
 393 361 l 1
 49 361 l 1
 49 431 l 1
 138 484 150 491 161 497 c 0
 222 528 310 550 310 622 c 0
 310 673 262 708 194 708 c 0
 122 708 98 667 80 633 c 1
 41 691 l 1
587 121 m 0
 587 162 594 195 635 227 c 0
 668 254 706 268 773 268 c 0
 817 268 858 259 889 237 c 0
 940 201 956 135 956 68 c 0
 956 6 937 -58 880 -99 c 0
 840 -127 786 -141 732 -141 c 0
 680 -141 648 -131 614 -115 c 1
 647 -71 l 1
 669 -81 690 -90 733 -90 c 0
 774 -90 809 -77 831 -55 c 0
 845 -40 857 -15 860 19 c 1
 860 22 861 27 861 30 c 1
 836 6 795 -18 732 -18 c 0
 674 -18 647 -2 627 16 c 0
 594 45 587 84 587 121 c 0
681 124 m 1
 682 80 685 66 704 50 c 0
 718 39 738 32 765 32 c 0
 791 32 818 39 836 56 c 0
 851 70 860 90 860 116 c 0
 860 153 852 216 773 216 c 0
 751 216 734 212 721 206 c 0
 691 193 687 167 683 150 c 1
 680 144 681 131 681 124 c 1
EndSplineSet
EndChar
StartChar: uF264B
Encoding: 992843 992843 78
Width: 1000
Flags: MW
LayerCount: 2
Fore
SplineSet
107 -136 m 0
 107 -133 108 -129 116 -120 c 2
 851 723 l 2
 856 729 871 748 882 748 c 0
 886 748 892 744 892 736 c 0
 892 732 887 726 884 723 c 2
 148 -121 l 2
 133 -139 124 -148 116 -148 c 0
 110 -148 107 -142 107 -136 c 0
31 415 m 5
 68 460 l 5
 72 455 76 451 81 447 c 4
 95 436 113 428 130 422 c 4
 155 414 181 411 199 411 c 4
 230 411 257 418 275 433 c 4
 291 446 298 466 298 492 c 5
 298 495 298 504 298 507 c 5
 296 529 289 548 275 559 c 4
 263 569 246 574 228 574 c 4
 164 574 140 532 140 532 c 5
 68 532 l 5
 68 755 l 5
 369 755 l 5
 369 702 l 5
 154 702 l 5
 154 609 l 5
 176 618 196 624 231 624 c 4
 276 624 316 614 346 596 c 4
 379 576 399 536 399 491 c 4
 399 448 378 416 344 394 c 4
 307 369 255 358 201 358 c 4
 166 358 134 362 107 372 c 4
 70 383 45 402 31 415 c 5
587 121 m 0
 587 162 594 195 635 227 c 0
 668 254 706 268 773 268 c 0
 817 268 858 259 889 237 c 0
 940 201 956 135 956 68 c 0
 956 6 937 -58 880 -99 c 0
 840 -127 786 -141 732 -141 c 0
 680 -141 648 -131 614 -115 c 1
 647 -71 l 1
 669 -81 690 -90 733 -90 c 0
 774 -90 809 -77 831 -55 c 0
 845 -40 857 -15 860 19 c 1
 860 22 861 27 861 30 c 1
 836 6 795 -18 732 -18 c 0
 674 -18 647 -2 627 16 c 0
 594 45 587 84 587 121 c 0
681 124 m 1
 682 80 685 66 704 50 c 0
 718 39 738 32 765 32 c 0
 791 32 818 39 836 56 c 0
 851 70 860 90 860 116 c 0
 860 153 852 216 773 216 c 0
 751 216 734 212 721 206 c 0
 691 193 687 167 683 150 c 1
 680 144 681 131 681 124 c 1
EndSplineSet
EndChar
StartChar: uF264D
Encoding: 992845 992845 80
Width: 1000
Flags: MW
LayerCount: 2
Fore
SplineSet
107 -136 m 0
 107 -133 108 -129 116 -120 c 2
 851 723 l 2
 856 729 871 748 882 748 c 0
 886 748 892 744 892 736 c 0
 892 732 887 726 884 723 c 2
 148 -121 l 2
 133 -139 124 -148 116 -148 c 0
 110 -148 107 -142 107 -136 c 0
36 479 m 4
 36 523 70 562 148 579 c 5
 106 589 49 613 49 664 c 4
 49 718 102 768 221 768 c 5
 222 768 223 768 224 768 c 5
 340 767 394 719 394 664 c 4
 394 611 333 589 295 579 c 5
 359 567 406 531 406 479 c 4
 406 417 348 359 221 359 c 4
 94 359 36 417 36 479 c 4
130 477 m 5
 130 454 137 434 159 423 c 4
 173 415 194 411 221 411 c 4
 245 411 265 415 281 423 c 4
 306 435 313 457 313 479 c 5
 313 481 312 490 312 492 c 5
 309 511 302 528 285 538 c 4
 270 548 249 551 221 551 c 4
 197 551 176 548 161 539 c 4
 139 527 133 507 130 489 c 5
 130 487 130 479 130 477 c 5
132 660 m 5
 132 641 141 627 157 617 c 4
 172 608 193 605 220 605 c 4
 248 605 270 609 284 617 c 4
 303 627 310 643 310 660 c 5
 310 663 310 670 309 672 c 5
 306 687 299 699 285 707 c 4
 271 716 250 720 222 720 c 4
 195 720 173 716 159 708 c 4
 140 698 135 684 133 669 c 5
 133 668 132 662 132 660 c 5
587 121 m 0
 587 162 594 195 635 227 c 0
 668 254 706 268 773 268 c 0
 817 268 858 259 889 237 c 0
 940 201 956 135 956 68 c 0
 956 6 937 -58 880 -99 c 0
 840 -127 786 -141 732 -141 c 0
 680 -141 648 -131 614 -115 c 1
 647 -71 l 1
 669 -81 690 -90 733 -90 c 0
 774 -90 809 -77 831 -55 c 0
 845 -40 857 -15 860 19 c 1
 860 22 861 27 861 30 c 1
 836 6 795 -18 732 -18 c 0
 674 -18 647 -2 627 16 c 0
 594 45 587 84 587 121 c 0
681 124 m 1
 682 80 685 66 704 50 c 0
 718 39 738 32 765 32 c 0
 791 32 818 39 836 56 c 0
 851 70 860 90 860 116 c 0
 860 153 852 216 773 216 c 0
 751 216 734 212 721 206 c 0
 691 193 687 167 683 150 c 1
 680 144 681 131 681 124 c 1
EndSplineSet
EndChar
StartChar: uF264E
Encoding: 992846 992846 81
Width: 1000
Flags: MW
LayerCount: 2
Fore
SplineSet
107 -136 m 0
 107 -133 108 -129 116 -120 c 2
 851 723 l 2
 856 729 871 748 882 748 c 0
 886 748 892 744 892 736 c 0
 892 732 887 726 884 723 c 2
 148 -121 l 2
 133 -139 124 -148 116 -148 c 0
 110 -148 107 -142 107 -136 c 0
69 639 m 1
 69 697 l 1
 180 698 228 746 253 772 c 1
 272 772 l 1
 272 420 l 1
 374 420 l 1
 374 361 l 1
 83 361 l 1
 83 420 l 1
 192 420 l 1
 192 665 l 1
 181 660 143 639 69 639 c 1
546 139 m 1
 546 197 l 1
 619 198 651 246 667 272 c 1
 680 272 l 1
 680 -80 l 1
 747 -80 l 1
 747 -139 l 1
 555 -139 l 1
 555 -80 l 1
 627 -80 l 1
 627 165 l 1
 620 160 595 139 546 139 c 1
750 57 m 5
 750 61 750 69 750 73 c 5
 751 138 757 235 833 262 c 4
 844 266 858 268 873 268 c 4
 903 268 935 258 956 233 c 4
 992 191 995 118 996 77 c 5
 996 73 996 67 996 64 c 5
 996 -34 981 -113 912 -136 c 4
 901 -140 889 -141 873 -141 c 4
 788 -141 750 -70 750 57 c 5
810 59 m 5
 810 -34 824 -68 850 -82 c 4
 857 -86 866 -87 874 -87 c 4
 881 -87 894 -84 907 -73 c 4
 928 -53 935 -15 936 61 c 5
 936 64 936 82 936 86 c 5
 936 131 930 169 919 187 c 4
 908 205 890 213 873 213 c 4
 832 213 810 173 810 87 c 5
 810 83 810 63 810 59 c 5
EndSplineSet
EndChar
StartChar: uF264F
Encoding: 992847 992847 82
Width: 1000
Flags: MW
LayerCount: 2
Fore
SplineSet
107 -136 m 0
 107 -133 108 -129 116 -120 c 2
 851 723 l 2
 856 729 871 748 882 748 c 0
 886 748 892 744 892 736 c 0
 892 732 887 726 884 723 c 2
 148 -121 l 2
 133 -139 124 -148 116 -148 c 0
 110 -148 107 -142 107 -136 c 0
41 378 m 1
 50 439 l 1
 82 430 116 421 155 416 c 0
 174 414 194 412 216 412 c 0xe8
 255 412 279 422 293 434 c 4
 308 447 312 463 312 474 c 0xe8
 312 496 295 513 281 521 c 0
 259 534 233 535 207 535 c 2
 166 535 l 1
 166 597 l 1
 207 601 243 600 272 626 c 0
 283 637 291 651 291 667 c 0
 291 685 277 713 219 713 c 0
 160 713 121 688 88 661 c 1
 55 717 l 1
 100 750 154 772 219 772 c 0
 305 772 374 726 374 667 c 0xf0
 374 597 305 568 303 565 c 1
 337 555 401 527 401 473 c 0
 401 442 380 404 337 379 c 0
 308 362 268 350 218 350 c 0
 198 350 178 351 157 353 c 0
 122 357 84 365 41 378 c 1
546 139 m 1
 546 197 l 1
 619 198 651 246 667 272 c 1
 680 272 l 1
 680 -80 l 1
 747 -80 l 1
 747 -139 l 1
 555 -139 l 1
 555 -80 l 1
 627 -80 l 1
 627 165 l 1
 620 160 595 139 546 139 c 1
750 57 m 5
 750 61 750 69 750 73 c 5
 751 138 757 235 833 262 c 4
 844 266 858 268 873 268 c 4
 903 268 935 258 956 233 c 4
 992 191 995 118 996 77 c 5
 996 73 996 67 996 64 c 5
 996 -34 981 -113 912 -136 c 4
 901 -140 889 -141 873 -141 c 4
 788 -141 750 -70 750 57 c 5
810 59 m 5
 810 -34 824 -68 850 -82 c 4
 857 -86 866 -87 874 -87 c 4
 881 -87 894 -84 907 -73 c 4
 928 -53 935 -15 936 61 c 5
 936 64 936 82 936 86 c 5
 936 131 930 169 919 187 c 4
 908 205 890 213 873 213 c 4
 832 213 810 173 810 87 c 5
 810 83 810 63 810 59 c 5
EndSplineSet
EndChar
StartChar: uF2651
Encoding: 992849 992849 84
Width: 1000
Flags: MW
LayerCount: 2
Fore
SplineSet
107 -136 m 0
 107 -133 108 -129 116 -120 c 2
 851 723 l 2
 856 729 871 748 882 748 c 0
 886 748 892 744 892 736 c 0
 892 732 887 726 884 723 c 2
 148 -121 l 2
 133 -139 124 -148 116 -148 c 0
 110 -148 107 -142 107 -136 c 0
37 621 m 0
 37 662 44 695 85 727 c 0
 118 754 156 768 223 768 c 0
 267 768 308 759 339 737 c 0
 390 701 406 635 406 568 c 0
 406 506 387 442 330 401 c 0
 290 373 236 359 182 359 c 0
 130 359 98 369 64 385 c 1
 97 429 l 1
 119 419 140 410 183 410 c 0
 224 410 259 423 281 445 c 0
 295 460 307 485 310 519 c 1
 310 522 311 527 311 530 c 1
 286 506 245 482 182 482 c 0
 124 482 97 498 77 516 c 0
 44 545 37 584 37 621 c 0
131 624 m 1
 132 580 135 566 154 550 c 0
 168 539 188 532 215 532 c 0
 241 532 268 539 286 556 c 0
 301 570 310 590 310 616 c 0
 310 653 302 716 223 716 c 0
 201 716 184 712 171 706 c 0
 141 693 137 667 133 650 c 1
 130 644 131 631 131 624 c 1
546 139 m 1
 546 197 l 1
 619 198 651 246 667 272 c 1
 680 272 l 1
 680 -80 l 1
 747 -80 l 1
 747 -139 l 1
 555 -139 l 1
 555 -80 l 1
 627 -80 l 1
 627 165 l 1
 620 160 595 139 546 139 c 1
750 57 m 5
 750 61 750 69 750 73 c 5
 751 138 757 235 833 262 c 4
 844 266 858 268 873 268 c 4
 903 268 935 258 956 233 c 4
 992 191 995 118 996 77 c 5
 996 73 996 67 996 64 c 5
 996 -34 981 -113 912 -136 c 4
 901 -140 889 -141 873 -141 c 4
 788 -141 750 -70 750 57 c 5
810 59 m 5
 810 -34 824 -68 850 -82 c 4
 857 -86 866 -87 874 -87 c 4
 881 -87 894 -84 907 -73 c 4
 928 -53 935 -15 936 61 c 5
 936 64 936 82 936 86 c 5
 936 131 930 169 919 187 c 4
 908 205 890 213 873 213 c 4
 832 213 810 173 810 87 c 5
 810 83 810 63 810 59 c 5
EndSplineSet
EndChar
StartChar: uF2653
Encoding: 992851 992851 86
Width: 1000
Flags: MW
LayerCount: 2
Fore
SplineSet
107 -136 m 0
 107 -133 108 -129 116 -120 c 2
 851 723 l 2
 856 729 871 748 882 748 c 0
 886 748 892 744 892 736 c 0
 892 732 887 726 884 723 c 2
 148 -121 l 2
 133 -139 124 -148 116 -148 c 0
 110 -148 107 -142 107 -136 c 0
41 691 m 1
 87 748 134 772 207 772 c 0
 317 772 393 710 393 624 c 0
 393 545 303 530 232 495 c 0
 220 490 209 483 116 431 c 1
 265 431 l 1
 290 432 l 1
 393 432 l 1
 393 361 l 1
 49 361 l 1
 49 431 l 1
 138 484 150 491 161 497 c 0
 222 528 310 550 310 622 c 0
 310 673 262 708 194 708 c 0
 122 708 98 667 80 633 c 1
 41 691 l 1
546 139 m 1
 546 197 l 1
 619 198 651 246 667 272 c 1
 680 272 l 1
 680 -80 l 1
 747 -80 l 1
 747 -139 l 1
 555 -139 l 1
 555 -80 l 1
 627 -80 l 1
 627 165 l 1
 620 160 595 139 546 139 c 1
773 139 m 1
 773 197 l 1
 846 198 878 246 894 272 c 1
 907 272 l 1
 907 -80 l 1
 974 -80 l 1
 974 -139 l 1
 782 -139 l 1
 782 -80 l 1
 854 -80 l 1
 854 165 l 1
 847 160 822 139 773 139 c 1
EndSplineSet
EndChar
StartChar: uF2656
Encoding: 992854 992854 89
Width: 1000
Flags: MW
LayerCount: 2
Fore
SplineSet
107 -136 m 0
 107 -133 108 -129 116 -120 c 2
 851 723 l 2
 856 729 871 748 882 748 c 0
 886 748 892 744 892 736 c 0
 892 732 887 726 884 723 c 2
 148 -121 l 2
 133 -139 124 -148 116 -148 c 0
 110 -148 107 -142 107 -136 c 0
31 415 m 5
 68 460 l 5
 72 455 76 451 81 447 c 4
 95 436 113 428 130 422 c 4
 155 414 181 411 199 411 c 4
 230 411 257 418 275 433 c 4
 291 446 298 466 298 492 c 5
 298 495 298 504 298 507 c 5
 296 529 289 548 275 559 c 4
 263 569 246 574 228 574 c 4
 164 574 140 532 140 532 c 5
 68 532 l 5
 68 755 l 5
 369 755 l 5
 369 702 l 5
 154 702 l 5
 154 609 l 5
 176 618 196 624 231 624 c 4
 276 624 316 614 346 596 c 4
 379 576 399 536 399 491 c 4
 399 448 378 416 344 394 c 4
 307 369 255 358 201 358 c 4
 166 358 134 362 107 372 c 4
 70 383 45 402 31 415 c 5
546 139 m 1
 546 197 l 1
 619 198 651 246 667 272 c 1
 680 272 l 1
 680 -80 l 1
 747 -80 l 1
 747 -139 l 1
 555 -139 l 1
 555 -80 l 1
 627 -80 l 1
 627 165 l 1
 620 160 595 139 546 139 c 1
773 139 m 1
 773 197 l 1
 846 198 878 246 894 272 c 1
 907 272 l 1
 907 -80 l 1
 974 -80 l 1
 974 -139 l 1
 782 -139 l 1
 782 -80 l 1
 854 -80 l 1
 854 165 l 1
 847 160 822 139 773 139 c 1
EndSplineSet
EndChar
StartChar: uF2657
Encoding: 992855 992855 90
Width: 1000
Flags: MW
LayerCount: 2
Fore
SplineSet
107 -136 m 0
 107 -133 108 -129 116 -120 c 2
 851 723 l 2
 856 729 871 748 882 748 c 0
 886 748 892 744 892 736 c 0
 892 732 887 726 884 723 c 2
 148 -121 l 2
 133 -139 124 -148 116 -148 c 0
 110 -148 107 -142 107 -136 c 0
37 561 m 4
 37 635 62 679 95 709 c 4
 136 748 198 768 272 768 c 4
 309 768 333 765 359 757 c 5
 359 708 l 5
 334 714 312 720 274 720 c 4
 220 720 187 702 169 686 c 4
 147 666 133 637 132 597 c 5
 159 624 203 644 261 644 c 4
 318 644 345 629 366 611 c 4
 398 583 405 546 406 511 c 5
 406 509 406 506 406 504 c 5
 406 466 398 433 362 402 c 4
 320 364 267 359 224 359 c 4
 172 359 124 371 91 402 c 4
 48 440 37 503 37 561 c 4
133 512 m 4
 133 507 134 504 134 499 c 4
 138 459 152 413 225 413 c 4
 284 413 305 442 310 467 c 4
 312 478 312 491 312 502 c 5
 312 506 312 517 312 520 c 5
 311 540 308 556 296 570 c 4
 279 588 255 595 228 595 c 4
 172 595 142 565 135 530 c 4
 134 524 133 518 133 512 c 4
546 139 m 1
 546 197 l 1
 619 198 651 246 667 272 c 1
 680 272 l 1
 680 -80 l 1
 747 -80 l 1
 747 -139 l 1
 555 -139 l 1
 555 -80 l 1
 627 -80 l 1
 627 165 l 1
 620 160 595 139 546 139 c 1
773 139 m 1
 773 197 l 1
 846 198 878 246 894 272 c 1
 907 272 l 1
 907 -80 l 1
 974 -80 l 1
 974 -139 l 1
 782 -139 l 1
 782 -80 l 1
 854 -80 l 1
 854 165 l 1
 847 160 822 139 773 139 c 1
EndSplineSet
EndChar
StartChar: uF2658
Encoding: 992856 992856 91
Width: 1000
Flags: MW
LayerCount: 2
Fore
SplineSet
107 -136 m 0
 107 -133 108 -129 116 -120 c 2
 851 723 l 2
 856 729 871 748 882 748 c 0
 886 748 892 744 892 736 c 0
 892 732 887 726 884 723 c 2
 148 -121 l 2
 133 -139 124 -148 116 -148 c 0
 110 -148 107 -142 107 -136 c 0
36 690 m 5
 36 755 l 5
 406 755 l 5
 406 693 l 5
 285 598 220 487 220 364 c 5
 124 364 l 5
 124 485 193 594 344 690 c 5
 36 690 l 5
546 139 m 1
 546 197 l 1
 619 198 651 246 667 272 c 1
 680 272 l 1
 680 -80 l 1
 747 -80 l 1
 747 -139 l 1
 555 -139 l 1
 555 -80 l 1
 627 -80 l 1
 627 165 l 1
 620 160 595 139 546 139 c 1
773 139 m 1
 773 197 l 1
 846 198 878 246 894 272 c 1
 907 272 l 1
 907 -80 l 1
 974 -80 l 1
 974 -139 l 1
 782 -139 l 1
 782 -80 l 1
 854 -80 l 1
 854 165 l 1
 847 160 822 139 773 139 c 1
EndSplineSet
EndChar
StartChar: uF2659
Encoding: 992857 992857 92
Width: 1000
Flags: MW
LayerCount: 2
Fore
SplineSet
107 -136 m 0
 107 -133 108 -129 116 -120 c 2
 851 723 l 2
 856 729 871 748 882 748 c 0
 886 748 892 744 892 736 c 0
 892 732 887 726 884 723 c 2
 148 -121 l 2
 133 -139 124 -148 116 -148 c 0
 110 -148 107 -142 107 -136 c 0
36 479 m 4
 36 523 70 562 148 579 c 5
 106 589 49 613 49 664 c 4
 49 718 102 768 221 768 c 5
 222 768 223 768 224 768 c 5
 340 767 394 719 394 664 c 4
 394 611 333 589 295 579 c 5
 359 567 406 531 406 479 c 4
 406 417 348 359 221 359 c 4
 94 359 36 417 36 479 c 4
130 477 m 5
 130 454 137 434 159 423 c 4
 173 415 194 411 221 411 c 4
 245 411 265 415 281 423 c 4
 306 435 313 457 313 479 c 5
 313 481 312 490 312 492 c 5
 309 511 302 528 285 538 c 4
 270 548 249 551 221 551 c 4
 197 551 176 548 161 539 c 4
 139 527 133 507 130 489 c 5
 130 487 130 479 130 477 c 5
132 660 m 5
 132 641 141 627 157 617 c 4
 172 608 193 605 220 605 c 4
 248 605 270 609 284 617 c 4
 303 627 310 643 310 660 c 5
 310 663 310 670 309 672 c 5
 306 687 299 699 285 707 c 4
 271 716 250 720 222 720 c 4
 195 720 173 716 159 708 c 4
 140 698 135 684 133 669 c 5
 133 668 132 662 132 660 c 5
546 139 m 1
 546 197 l 1
 619 198 651 246 667 272 c 1
 680 272 l 1
 680 -80 l 1
 747 -80 l 1
 747 -139 l 1
 555 -139 l 1
 555 -80 l 1
 627 -80 l 1
 627 165 l 1
 620 160 595 139 546 139 c 1
773 139 m 1
 773 197 l 1
 846 198 878 246 894 272 c 1
 907 272 l 1
 907 -80 l 1
 974 -80 l 1
 974 -139 l 1
 782 -139 l 1
 782 -80 l 1
 854 -80 l 1
 854 165 l 1
 847 160 822 139 773 139 c 1
EndSplineSet
EndChar
StartChar: uF265A
Encoding: 992858 992858 93
Width: 1000
Flags: MW
LayerCount: 2
Fore
SplineSet
107 -136 m 0
 107 -133 108 -129 116 -120 c 2
 851 723 l 2
 856 729 871 748 882 748 c 0
 886 748 892 744 892 736 c 0
 892 732 887 726 884 723 c 2
 148 -121 l 2
 133 -139 124 -148 116 -148 c 0
 110 -148 107 -142 107 -136 c 0
37 621 m 0
 37 662 44 695 85 727 c 0
 118 754 156 768 223 768 c 0
 267 768 308 759 339 737 c 0
 390 701 406 635 406 568 c 0
 406 506 387 442 330 401 c 0
 290 373 236 359 182 359 c 0
 130 359 98 369 64 385 c 1
 97 429 l 1
 119 419 140 410 183 410 c 0
 224 410 259 423 281 445 c 0
 295 460 307 485 310 519 c 1
 310 522 311 527 311 530 c 1
 286 506 245 482 182 482 c 0
 124 482 97 498 77 516 c 0
 44 545 37 584 37 621 c 0
131 624 m 1
 132 580 135 566 154 550 c 0
 168 539 188 532 215 532 c 0
 241 532 268 539 286 556 c 0
 301 570 310 590 310 616 c 0
 310 653 302 716 223 716 c 0
 201 716 184 712 171 706 c 0
 141 693 137 667 133 650 c 1
 130 644 131 631 131 624 c 1
546 139 m 1
 546 197 l 1
 619 198 651 246 667 272 c 1
 680 272 l 1
 680 -80 l 1
 747 -80 l 1
 747 -139 l 1
 555 -139 l 1
 555 -80 l 1
 627 -80 l 1
 627 165 l 1
 620 160 595 139 546 139 c 1
773 139 m 1
 773 197 l 1
 846 198 878 246 894 272 c 1
 907 272 l 1
 907 -80 l 1
 974 -80 l 1
 974 -139 l 1
 782 -139 l 1
 782 -80 l 1
 854 -80 l 1
 854 165 l 1
 847 160 822 139 773 139 c 1
EndSplineSet
EndChar
StartChar: uF265B
Encoding: 992859 992859 94
Width: 1000
Flags: MW
LayerCount: 2
Fore
SplineSet
107 -136 m 0
 107 -133 108 -129 116 -120 c 2
 851 723 l 2
 856 729 871 748 882 748 c 0
 886 748 892 744 892 736 c 0
 892 732 887 726 884 723 c 2
 148 -121 l 2
 133 -139 124 -148 116 -148 c 0
 110 -148 107 -142 107 -136 c 0
46 639 m 1
 46 697 l 1
 119 698 151 746 167 772 c 1
 180 772 l 1
 180 420 l 1
 247 420 l 1
 247 361 l 1
 55 361 l 1
 55 420 l 1
 127 420 l 1
 127 665 l 1
 120 660 95 639 46 639 c 1
250 557 m 5
 250 561 250 569 250 573 c 5
 251 638 257 735 333 762 c 4
 344 766 358 768 373 768 c 4
 403 768 435 758 456 733 c 4
 492 691 495 618 496 577 c 5
 496 573 496 567 496 564 c 5
 496 466 481 387 412 364 c 4
 401 360 389 359 373 359 c 4
 288 359 250 430 250 557 c 5
310 559 m 5
 310 466 324 432 350 418 c 4
 357 414 366 413 374 413 c 4
 381 413 394 416 407 427 c 4
 428 447 435 485 436 561 c 5
 436 564 436 582 436 586 c 5
 436 631 430 669 419 687 c 4
 408 705 390 713 373 713 c 4
 332 713 310 673 310 587 c 5
 310 583 310 563 310 559 c 5
546 139 m 1
 546 197 l 1
 619 198 651 246 667 272 c 1
 680 272 l 1
 680 -80 l 1
 747 -80 l 1
 747 -139 l 1
 555 -139 l 1
 555 -80 l 1
 627 -80 l 1
 627 165 l 1
 620 160 595 139 546 139 c 1
773 139 m 1
 773 197 l 1
 846 198 878 246 894 272 c 1
 907 272 l 1
 907 -80 l 1
 974 -80 l 1
 974 -139 l 1
 782 -139 l 1
 782 -80 l 1
 854 -80 l 1
 854 165 l 1
 847 160 822 139 773 139 c 1
EndSplineSet
EndChar
StartChar: uF265D
Encoding: 992861 992861 96
Width: 1000
Flags: MW
LayerCount: 2
Fore
SplineSet
107 -136 m 0
 107 -133 108 -129 116 -120 c 2
 851 723 l 2
 856 729 871 748 882 748 c 0
 886 748 892 744 892 736 c 0
 892 732 887 726 884 723 c 2
 148 -121 l 2
 133 -139 124 -148 116 -148 c 0
 110 -148 107 -142 107 -136 c 0
31 415 m 5
 68 460 l 5
 72 455 76 451 81 447 c 4
 95 436 113 428 130 422 c 4
 155 414 181 411 199 411 c 4
 230 411 257 418 275 433 c 4
 291 446 298 466 298 492 c 5
 298 495 298 504 298 507 c 5
 296 529 289 548 275 559 c 4
 263 569 246 574 228 574 c 4
 164 574 140 532 140 532 c 5
 68 532 l 5
 68 755 l 5
 369 755 l 5
 369 702 l 5
 154 702 l 5
 154 609 l 5
 176 618 196 624 231 624 c 4
 276 624 316 614 346 596 c 4
 379 576 399 536 399 491 c 4
 399 448 378 416 344 394 c 4
 307 369 255 358 201 358 c 4
 166 358 134 362 107 372 c 4
 70 383 45 402 31 415 c 5
546 139 m 1
 546 197 l 1
 619 198 651 246 667 272 c 1
 680 272 l 1
 680 -80 l 1
 747 -80 l 1
 747 -139 l 1
 555 -139 l 1
 555 -80 l 1
 627 -80 l 1
 627 165 l 1
 620 160 595 139 546 139 c 1
754 191 m 1
 784 248 816 272 864 272 c 0
 937 272 986 210 986 124 c 0
 986 45 927 30 880 -5 c 0
 872 -10 865 -17 804 -69 c 1
 902 -69 l 1
 918 -68 l 1
 986 -68 l 1
 986 -139 l 1
 759 -139 l 1
 759 -69 l 1
 818 -16 826 -9 833 -3 c 0
 873 28 932 50 932 122 c 0
 932 173 900 208 855 208 c 0
 807 208 792 167 780 133 c 1
 754 191 l 1
EndSplineSet
EndChar
StartChar: uF265E
Encoding: 992862 992862 97
Width: 1000
Flags: MW
LayerCount: 2
Fore
SplineSet
107 -136 m 0
 107 -133 108 -129 116 -120 c 2
 851 723 l 2
 856 729 871 748 882 748 c 0
 886 748 892 744 892 736 c 0
 892 732 887 726 884 723 c 2
 148 -121 l 2
 133 -139 124 -148 116 -148 c 0
 110 -148 107 -142 107 -136 c 0
36 690 m 5
 36 755 l 5
 406 755 l 5
 406 693 l 5
 285 598 220 487 220 364 c 5
 124 364 l 5
 124 485 193 594 344 690 c 5
 36 690 l 5
546 139 m 1
 546 197 l 1
 619 198 651 246 667 272 c 1
 680 272 l 1
 680 -80 l 1
 747 -80 l 1
 747 -139 l 1
 555 -139 l 1
 555 -80 l 1
 627 -80 l 1
 627 165 l 1
 620 160 595 139 546 139 c 1
754 191 m 1
 784 248 816 272 864 272 c 0
 937 272 986 210 986 124 c 0
 986 45 927 30 880 -5 c 0
 872 -10 865 -17 804 -69 c 1
 902 -69 l 1
 918 -68 l 1
 986 -68 l 1
 986 -139 l 1
 759 -139 l 1
 759 -69 l 1
 818 -16 826 -9 833 -3 c 0
 873 28 932 50 932 122 c 0
 932 173 900 208 855 208 c 0
 807 208 792 167 780 133 c 1
 754 191 l 1
EndSplineSet
EndChar
StartChar: uF265F
Encoding: 992863 992863 98
Width: 1000
Flags: MW
LayerCount: 2
Fore
SplineSet
107 -136 m 0
 107 -133 108 -129 116 -120 c 2
 851 723 l 2
 856 729 871 748 882 748 c 0
 886 748 892 744 892 736 c 0
 892 732 887 726 884 723 c 2
 148 -121 l 2
 133 -139 124 -148 116 -148 c 0
 110 -148 107 -142 107 -136 c 0
46 639 m 1
 46 697 l 1
 119 698 151 746 167 772 c 1
 180 772 l 1
 180 420 l 1
 247 420 l 1
 247 361 l 1
 55 361 l 1
 55 420 l 1
 127 420 l 1
 127 665 l 1
 120 660 95 639 46 639 c 1
273 639 m 1
 273 697 l 1
 346 698 378 746 394 772 c 1
 407 772 l 1
 407 420 l 1
 474 420 l 1
 474 361 l 1
 282 361 l 1
 282 420 l 1
 354 420 l 1
 354 665 l 1
 347 660 322 639 273 639 c 1
546 139 m 1
 546 197 l 1
 619 198 651 246 667 272 c 1
 680 272 l 1
 680 -80 l 1
 747 -80 l 1
 747 -139 l 1
 555 -139 l 1
 555 -80 l 1
 627 -80 l 1
 627 165 l 1
 620 160 595 139 546 139 c 1
754 191 m 1
 784 248 816 272 864 272 c 0
 937 272 986 210 986 124 c 0
 986 45 927 30 880 -5 c 0
 872 -10 865 -17 804 -69 c 1
 902 -69 l 1
 918 -68 l 1
 986 -68 l 1
 986 -139 l 1
 759 -139 l 1
 759 -69 l 1
 818 -16 826 -9 833 -3 c 0
 873 28 932 50 932 122 c 0
 932 173 900 208 855 208 c 0
 807 208 792 167 780 133 c 1
 754 191 l 1
EndSplineSet
EndChar
StartChar: uF2660
Encoding: 992864 992864 99
Width: 1000
Flags: MW
LayerCount: 2
Fore
SplineSet
110 -136 m 0
 110 -133 109 -130 116 -120 c 2
 698 723 l 2
 702 729 712 748 723 748 c 0
 727 748 733 744 733 736 c 0
 733 732 733 726 731 723 c 2
 148 -121 l 2
 135 -140 127 -148 119 -148 c 0
 113 -148 110 -142 110 -136 c 0
69 639 m 1
 69 697 l 1
 180 698 228 746 253 772 c 1
 272 772 l 1
 272 420 l 1
 374 420 l 1
 374 361 l 1
 83 361 l 1
 83 420 l 1
 192 420 l 1
 192 665 l 1
 181 660 143 639 69 639 c 1
419 139 m 1
 419 197 l 1
 475 198 499 246 511 272 c 1
 520 272 l 1
 520 -80 l 1
 572 -80 l 1
 572 -139 l 1
 426 -139 l 1
 426 -80 l 1
 480 -80 l 1
 480 165 l 1
 474 160 456 139 419 139 c 1
574 57 m 1
 574 61 574 69 574 73 c 1
 574 138 579 235 637 262 c 0
 645 266 655 268 667 268 c 0
 690 268 714 258 730 233 c 0
 758 191 760 118 760 77 c 1
 760 73 760 67 760 64 c 1
 760 -34 748 -113 696 -136 c 0
 688 -140 679 -141 667 -141 c 0
 603 -141 574 -70 574 57 c 1
620 59 m 1
 620 -34 630 -68 650 -82 c 0
 656 -86 662 -87 668 -87 c 0
 674 -87 683 -84 693 -73 c 0
 709 -53 715 -15 715 61 c 1
 715 64 715 82 715 86 c 1
 715 131 710 169 702 187 c 0
 694 205 680 213 667 213 c 0
 636 213 620 173 620 87 c 1
 620 83 620 63 620 59 c 1
771 57 m 1
 771 61 771 69 771 73 c 1
 771 138 776 235 834 262 c 0
 842 266 852 268 864 268 c 0
 887 268 911 258 927 233 c 0
 955 191 958 118 958 77 c 1
 958 73 958 67 958 64 c 1
 958 -34 946 -113 894 -136 c 0
 886 -140 876 -141 864 -141 c 0
 800 -141 771 -70 771 57 c 1
816 59 m 1
 816 -34 826 -68 846 -82 c 0
 852 -86 858 -87 864 -87 c 0
 870 -87 880 -84 890 -73 c 0
 906 -53 912 -15 912 61 c 1
 912 64 912 82 912 86 c 1
 912 131 907 169 899 187 c 0
 891 205 877 213 864 213 c 0
 833 213 816 173 816 87 c 1
 816 83 816 63 816 59 c 1
EndSplineSet
EndChar
StartChar: uF2661
Encoding: 992865 992865 100
Width: 1000
Flags: MW
LayerCount: 2
Fore
SplineSet
58 278 m 0
 58 296 75 298 90 298 c 2
 925 298 l 2
 934 298 943 297 950 294 c 0
 956 291 960 287 960 278 c 0
 960 270 957 258 931 258 c 2
 87 258 l 2
 63 258 58 270 58 278 c 0
314 557 m 5
 314 561 314 569 314 573 c 5
 315 638 325 735 440 762 c 4
 457 766 477 768 500 768 c 4
 546 768 594 758 626 733 c 4
 681 691 685 618 686 577 c 5
 686 573 686 567 686 564 c 5
 686 466 663 387 558 364 c 4
 541 360 524 359 500 359 c 4
 371 359 314 430 314 557 c 5
404 559 m 5
 404 466 424 432 464 418 c 4
 475 414 488 413 500 413 c 4
 511 413 533 416 552 427 c 4
 584 447 595 485 596 561 c 5
 596 564 596 582 596 586 c 5
 596 631 587 669 570 687 c 4
 553 705 526 713 500 713 c 4
 438 713 404 673 404 587 c 5
 404 583 404 563 404 559 c 5
320 -182 m 1
 329 -121 l 1
 361 -130 395 -139 434 -144 c 0
 453 -146 473 -148 495 -148 c 0xe8
 534 -148 558 -138 572 -126 c 4
 587 -113 591 -97 591 -86 c 0xe8
 591 -64 574 -47 560 -39 c 0
 538 -26 512 -25 486 -25 c 2
 445 -25 l 1
 445 37 l 1
 486 41 522 40 551 66 c 0
 562 77 570 91 570 107 c 0
 570 125 556 153 498 153 c 0
 439 153 400 128 367 101 c 1
 334 157 l 1
 379 190 433 212 498 212 c 0
 584 212 653 166 653 107 c 0xf0
 653 37 584 8 582 5 c 1
 616 -5 680 -33 680 -87 c 0
 680 -118 659 -156 616 -181 c 0
 587 -198 547 -210 497 -210 c 0
 477 -210 457 -209 436 -207 c 0
 401 -203 363 -195 320 -182 c 1
EndSplineSet
EndChar
StartChar: uF2662
Encoding: 992866 992866 101
Width: 1000
Flags: MW
LayerCount: 2
Fore
SplineSet
58 278 m 0
 58 296 75 298 90 298 c 2
 925 298 l 2
 934 298 943 297 950 294 c 0
 956 291 960 287 960 278 c 0
 960 270 957 258 931 258 c 2
 87 258 l 2
 63 258 58 270 58 278 c 0
348 639 m 1
 348 697 l 1
 459 698 507 746 532 772 c 1
 550 772 l 1
 550 420 l 1
 652 420 l 1
 652 361 l 1
 362 361 l 1
 362 420 l 1
 470 420 l 1
 470 665 l 1
 459 660 422 639 348 639 c 1
324 131 m 1
 370 188 417 212 490 212 c 0
 600 212 676 150 676 64 c 0
 676 -15 586 -30 515 -65 c 0
 503 -70 492 -77 399 -129 c 1
 548 -129 l 1
 573 -128 l 1
 676 -128 l 1
 676 -199 l 1
 332 -199 l 1
 332 -129 l 1
 421 -76 433 -69 444 -63 c 0
 505 -32 593 -10 593 62 c 0
 593 113 545 148 477 148 c 0
 405 148 381 107 363 73 c 1
 324 131 l 1
EndSplineSet
EndChar
StartChar: uF2663
Encoding: 992867 992867 102
Width: 1000
Flags: MW
LayerCount: 2
Fore
SplineSet
58 278 m 0
 58 296 75 298 90 298 c 2
 925 298 l 2
 934 298 943 297 950 294 c 0
 956 291 960 287 960 278 c 0
 960 270 957 258 931 258 c 2
 87 258 l 2
 63 258 58 270 58 278 c 0
348 639 m 1
 348 697 l 1
 459 698 507 746 532 772 c 1
 550 772 l 1
 550 420 l 1
 652 420 l 1
 652 361 l 1
 362 361 l 1
 362 420 l 1
 470 420 l 1
 470 665 l 1
 459 660 422 639 348 639 c 1
320 -182 m 1
 329 -121 l 1
 361 -130 395 -139 434 -144 c 0
 453 -146 473 -148 495 -148 c 0xe8
 534 -148 558 -138 572 -126 c 4
 587 -113 591 -97 591 -86 c 0xe8
 591 -64 574 -47 560 -39 c 0
 538 -26 512 -25 486 -25 c 2
 445 -25 l 1
 445 37 l 1
 486 41 522 40 551 66 c 0
 562 77 570 91 570 107 c 0
 570 125 556 153 498 153 c 0
 439 153 400 128 367 101 c 1
 334 157 l 1
 379 190 433 212 498 212 c 0
 584 212 653 166 653 107 c 0xf0
 653 37 584 8 582 5 c 1
 616 -5 680 -33 680 -87 c 0
 680 -118 659 -156 616 -181 c 0
 587 -198 547 -210 497 -210 c 0
 477 -210 457 -209 436 -207 c 0
 401 -203 363 -195 320 -182 c 1
EndSplineSet
EndChar
StartChar: uF2664
Encoding: 992868 992868 103
Width: 1000
Flags: MW
LayerCount: 2
Fore
SplineSet
58 278 m 0
 58 296 75 298 90 298 c 2
 925 298 l 2
 934 298 943 297 950 294 c 0
 956 291 960 287 960 278 c 0
 960 270 957 258 931 258 c 2
 87 258 l 2
 63 258 58 270 58 278 c 0
324 691 m 1
 370 748 417 772 490 772 c 0
 600 772 676 710 676 624 c 0
 676 545 586 530 515 495 c 0
 503 490 492 483 399 431 c 1
 548 431 l 1
 573 432 l 1
 676 432 l 1
 676 361 l 1
 332 361 l 1
 332 431 l 1
 421 484 433 491 444 497 c 0
 505 528 593 550 593 622 c 0
 593 673 545 708 477 708 c 0
 405 708 381 667 363 633 c 1
 324 691 l 1
320 -182 m 1
 329 -121 l 1
 361 -130 395 -139 434 -144 c 0
 453 -146 473 -148 495 -148 c 0xe8
 534 -148 558 -138 572 -126 c 4
 587 -113 591 -97 591 -86 c 0xe8
 591 -64 574 -47 560 -39 c 0
 538 -26 512 -25 486 -25 c 2
 445 -25 l 1
 445 37 l 1
 486 41 522 40 551 66 c 0
 562 77 570 91 570 107 c 0
 570 125 556 153 498 153 c 0
 439 153 400 128 367 101 c 1
 334 157 l 1
 379 190 433 212 498 212 c 0
 584 212 653 166 653 107 c 0xf0
 653 37 584 8 582 5 c 1
 616 -5 680 -33 680 -87 c 0
 680 -118 659 -156 616 -181 c 0
 587 -198 547 -210 497 -210 c 0
 477 -210 457 -209 436 -207 c 0
 401 -203 363 -195 320 -182 c 1
EndSplineSet
EndChar
StartChar: uF2665
Encoding: 992869 992869 104
Width: 1000
Flags: MW
LayerCount: 2
Fore
SplineSet
58 278 m 0
 58 296 75 298 90 298 c 2
 925 298 l 2
 934 298 943 297 950 294 c 0
 956 291 960 287 960 278 c 0
 960 270 957 258 931 258 c 2
 87 258 l 2
 63 258 58 270 58 278 c 0
348 639 m 1
 348 697 l 1
 459 698 507 746 532 772 c 1
 550 772 l 1
 550 420 l 1
 652 420 l 1
 652 361 l 1
 362 361 l 1
 362 420 l 1
 470 420 l 1
 470 665 l 1
 459 660 422 639 348 639 c 1
303 -98 m 5
 303 -46 l 5
 303 -42 304 -43 308 -39 c 5
 513 195 l 5
 617 195 l 5
 617 -43 l 5
 697 -43 l 5
 697 -98 l 5
 617 -98 l 5
 617 -190 l 5
 531 -190 l 5
 531 -98 l 5
 303 -98 l 5
381 -43 m 5
 536 -43 l 5
 536 145 l 5
 523 108 485 69 381 -43 c 5
EndSplineSet
EndChar
StartChar: uF2666
Encoding: 992870 992870 105
Width: 1000
Flags: MW
LayerCount: 2
Fore
SplineSet
58 278 m 0
 58 296 75 298 90 298 c 2
 925 298 l 2
 934 298 943 297 950 294 c 0
 956 291 960 287 960 278 c 0
 960 270 957 258 931 258 c 2
 87 258 l 2
 63 258 58 270 58 278 c 0
320 378 m 1
 329 439 l 1
 361 430 395 421 434 416 c 0
 453 414 473 412 495 412 c 0xe8
 534 412 558 422 572 434 c 4
 587 447 591 463 591 474 c 0xe8
 591 496 574 513 560 521 c 0
 538 534 512 535 486 535 c 2
 445 535 l 1
 445 597 l 1
 486 601 522 600 551 626 c 0
 562 637 570 651 570 667 c 0
 570 685 556 713 498 713 c 0
 439 713 400 688 367 661 c 1
 334 717 l 1
 379 750 433 772 498 772 c 0
 584 772 653 726 653 667 c 0xf0
 653 597 584 568 582 565 c 1
 616 555 680 527 680 473 c 0
 680 442 659 404 616 379 c 0
 587 362 547 350 497 350 c 0
 477 350 457 351 436 353 c 0
 401 357 363 365 320 378 c 1
303 -98 m 5
 303 -46 l 5
 303 -42 304 -43 308 -39 c 5
 513 195 l 5
 617 195 l 5
 617 -43 l 5
 697 -43 l 5
 697 -98 l 5
 617 -98 l 5
 617 -190 l 5
 531 -190 l 5
 531 -98 l 5
 303 -98 l 5
381 -43 m 5
 536 -43 l 5
 536 145 l 5
 523 108 485 69 381 -43 c 5
EndSplineSet
EndChar
StartChar: uF2667
Encoding: 992871 992871 106
Width: 1000
Flags: MW
LayerCount: 2
Fore
SplineSet
58 278 m 0
 58 296 75 298 90 298 c 2
 925 298 l 2
 934 298 943 297 950 294 c 0
 956 291 960 287 960 278 c 0
 960 270 957 258 931 258 c 2
 87 258 l 2
 63 258 58 270 58 278 c 0
348 639 m 1
 348 697 l 1
 459 698 507 746 532 772 c 1
 550 772 l 1
 550 420 l 1
 652 420 l 1
 652 361 l 1
 362 361 l 1
 362 420 l 1
 470 420 l 1
 470 665 l 1
 459 660 422 639 348 639 c 1
316 -145 m 5
 353 -100 l 5
 357 -105 361 -109 366 -113 c 4
 380 -124 398 -132 415 -138 c 4
 440 -146 466 -149 484 -149 c 4
 515 -149 542 -142 560 -127 c 4
 576 -114 583 -94 583 -68 c 5
 583 -65 583 -56 583 -53 c 5
 581 -31 574 -12 560 -1 c 4
 548 9 531 14 513 14 c 4
 449 14 425 -28 425 -28 c 5
 353 -28 l 5
 353 195 l 5
 654 195 l 5
 654 142 l 5
 439 142 l 5
 439 49 l 5
 461 58 481 64 516 64 c 4
 561 64 601 54 631 36 c 4
 664 16 684 -24 684 -69 c 4
 684 -112 663 -144 629 -166 c 4
 592 -191 540 -202 486 -202 c 4
 451 -202 419 -198 392 -188 c 4
 355 -177 330 -158 316 -145 c 5
EndSplineSet
EndChar
StartChar: uF2668
Encoding: 992872 992872 107
Width: 1000
Flags: MW
LayerCount: 2
Fore
SplineSet
58 278 m 0
 58 296 75 298 90 298 c 2
 925 298 l 2
 934 298 943 297 950 294 c 0
 956 291 960 287 960 278 c 0
 960 270 957 258 931 258 c 2
 87 258 l 2
 63 258 58 270 58 278 c 0
324 691 m 1
 370 748 417 772 490 772 c 0
 600 772 676 710 676 624 c 0
 676 545 586 530 515 495 c 0
 503 490 492 483 399 431 c 1
 548 431 l 1
 573 432 l 1
 676 432 l 1
 676 361 l 1
 332 361 l 1
 332 431 l 1
 421 484 433 491 444 497 c 0
 505 528 593 550 593 622 c 0
 593 673 545 708 477 708 c 0
 405 708 381 667 363 633 c 1
 324 691 l 1
316 -145 m 5
 353 -100 l 5
 357 -105 361 -109 366 -113 c 4
 380 -124 398 -132 415 -138 c 4
 440 -146 466 -149 484 -149 c 4
 515 -149 542 -142 560 -127 c 4
 576 -114 583 -94 583 -68 c 5
 583 -65 583 -56 583 -53 c 5
 581 -31 574 -12 560 -1 c 4
 548 9 531 14 513 14 c 4
 449 14 425 -28 425 -28 c 5
 353 -28 l 5
 353 195 l 5
 654 195 l 5
 654 142 l 5
 439 142 l 5
 439 49 l 5
 461 58 481 64 516 64 c 4
 561 64 601 54 631 36 c 4
 664 16 684 -24 684 -69 c 4
 684 -112 663 -144 629 -166 c 4
 592 -191 540 -202 486 -202 c 4
 451 -202 419 -198 392 -188 c 4
 355 -177 330 -158 316 -145 c 5
EndSplineSet
EndChar
StartChar: uF2669
Encoding: 992873 992873 108
Width: 1000
Flags: MW
LayerCount: 2
Fore
SplineSet
58 278 m 0
 58 296 75 298 90 298 c 2
 925 298 l 2
 934 298 943 297 950 294 c 0
 956 291 960 287 960 278 c 0
 960 270 957 258 931 258 c 2
 87 258 l 2
 63 258 58 270 58 278 c 0
320 378 m 1
 329 439 l 1
 361 430 395 421 434 416 c 0
 453 414 473 412 495 412 c 0xe8
 534 412 558 422 572 434 c 4
 587 447 591 463 591 474 c 0xe8
 591 496 574 513 560 521 c 0
 538 534 512 535 486 535 c 2
 445 535 l 1
 445 597 l 1
 486 601 522 600 551 626 c 0
 562 637 570 651 570 667 c 0
 570 685 556 713 498 713 c 0
 439 713 400 688 367 661 c 1
 334 717 l 1
 379 750 433 772 498 772 c 0
 584 772 653 726 653 667 c 0xf0
 653 597 584 568 582 565 c 1
 616 555 680 527 680 473 c 0
 680 442 659 404 616 379 c 0
 587 362 547 350 497 350 c 0
 477 350 457 351 436 353 c 0
 401 357 363 365 320 378 c 1
316 -145 m 5
 353 -100 l 5
 357 -105 361 -109 366 -113 c 4
 380 -124 398 -132 415 -138 c 4
 440 -146 466 -149 484 -149 c 4
 515 -149 542 -142 560 -127 c 4
 576 -114 583 -94 583 -68 c 5
 583 -65 583 -56 583 -53 c 5
 581 -31 574 -12 560 -1 c 4
 548 9 531 14 513 14 c 4
 449 14 425 -28 425 -28 c 5
 353 -28 l 5
 353 195 l 5
 654 195 l 5
 654 142 l 5
 439 142 l 5
 439 49 l 5
 461 58 481 64 516 64 c 4
 561 64 601 54 631 36 c 4
 664 16 684 -24 684 -69 c 4
 684 -112 663 -144 629 -166 c 4
 592 -191 540 -202 486 -202 c 4
 451 -202 419 -198 392 -188 c 4
 355 -177 330 -158 316 -145 c 5
EndSplineSet
EndChar
StartChar: uF266A
Encoding: 992874 992874 109
Width: 1000
Flags: MW
LayerCount: 2
Fore
SplineSet
58 278 m 0
 58 296 75 298 90 298 c 2
 925 298 l 2
 934 298 943 297 950 294 c 0
 956 291 960 287 960 278 c 0
 960 270 957 258 931 258 c 2
 87 258 l 2
 63 258 58 270 58 278 c 0
303 462 m 5
 303 514 l 5
 303 518 304 517 308 521 c 5
 513 755 l 5
 617 755 l 5
 617 517 l 5
 697 517 l 5
 697 462 l 5
 617 462 l 5
 617 370 l 5
 531 370 l 5
 531 462 l 5
 303 462 l 5
381 517 m 5
 536 517 l 5
 536 705 l 5
 523 668 485 629 381 517 c 5
316 -145 m 5
 353 -100 l 5
 357 -105 361 -109 366 -113 c 4
 380 -124 398 -132 415 -138 c 4
 440 -146 466 -149 484 -149 c 4
 515 -149 542 -142 560 -127 c 4
 576 -114 583 -94 583 -68 c 5
 583 -65 583 -56 583 -53 c 5
 581 -31 574 -12 560 -1 c 4
 548 9 531 14 513 14 c 4
 449 14 425 -28 425 -28 c 5
 353 -28 l 5
 353 195 l 5
 654 195 l 5
 654 142 l 5
 439 142 l 5
 439 49 l 5
 461 58 481 64 516 64 c 4
 561 64 601 54 631 36 c 4
 664 16 684 -24 684 -69 c 4
 684 -112 663 -144 629 -166 c 4
 592 -191 540 -202 486 -202 c 4
 451 -202 419 -198 392 -188 c 4
 355 -177 330 -158 316 -145 c 5
EndSplineSet
EndChar
StartChar: uF266B
Encoding: 992875 992875 110
Width: 1000
Flags: MW
LayerCount: 2
Fore
SplineSet
58 278 m 0
 58 296 75 298 90 298 c 2
 925 298 l 2
 934 298 943 297 950 294 c 0
 956 291 960 287 960 278 c 0
 960 270 957 258 931 258 c 2
 87 258 l 2
 63 258 58 270 58 278 c 0
348 639 m 1
 348 697 l 1
 459 698 507 746 532 772 c 1
 550 772 l 1
 550 420 l 1
 652 420 l 1
 652 361 l 1
 362 361 l 1
 362 420 l 1
 470 420 l 1
 470 665 l 1
 459 660 422 639 348 639 c 1
316 1 m 4
 316 75 341 119 374 149 c 4
 415 188 476 208 550 208 c 4
 587 208 612 205 638 197 c 5
 638 148 l 5
 613 154 590 160 552 160 c 4
 498 160 466 142 448 126 c 4
 426 106 411 77 410 37 c 5
 437 64 482 84 540 84 c 4
 597 84 623 69 644 51 c 4
 676 23 683 -14 684 -49 c 5
 684 -51 684 -54 684 -56 c 5
 684 -94 676 -127 640 -158 c 4
 598 -196 545 -201 502 -201 c 4
 450 -201 403 -189 370 -158 c 4
 327 -120 316 -57 316 1 c 4
412 -48 m 4
 412 -53 412 -56 412 -61 c 4
 416 -101 431 -147 504 -147 c 4
 563 -147 583 -118 588 -93 c 4
 590 -82 590 -69 590 -58 c 5
 590 -54 590 -43 590 -40 c 5
 589 -20 586 -4 574 10 c 4
 557 28 533 35 506 35 c 4
 450 35 421 5 414 -30 c 4
 413 -36 412 -42 412 -48 c 4
EndSplineSet
EndChar
StartChar: uF266C
Encoding: 992876 992876 111
Width: 1000
Flags: MW
LayerCount: 2
Fore
SplineSet
58 278 m 0
 58 296 75 298 90 298 c 2
 925 298 l 2
 934 298 943 297 950 294 c 0
 956 291 960 287 960 278 c 0
 960 270 957 258 931 258 c 2
 87 258 l 2
 63 258 58 270 58 278 c 0
316 415 m 5
 353 460 l 5
 357 455 361 451 366 447 c 4
 380 436 398 428 415 422 c 4
 440 414 466 411 484 411 c 4
 515 411 542 418 560 433 c 4
 576 446 583 466 583 492 c 5
 583 495 583 504 583 507 c 5
 581 529 574 548 560 559 c 4
 548 569 531 574 513 574 c 4
 449 574 425 532 425 532 c 5
 353 532 l 5
 353 755 l 5
 654 755 l 5
 654 702 l 5
 439 702 l 5
 439 609 l 5
 461 618 481 624 516 624 c 4
 561 624 601 614 631 596 c 4
 664 576 684 536 684 491 c 4
 684 448 663 416 629 394 c 4
 592 369 540 358 486 358 c 4
 451 358 419 362 392 372 c 4
 355 383 330 402 316 415 c 5
316 1 m 4
 316 75 341 119 374 149 c 4
 415 188 476 208 550 208 c 4
 587 208 612 205 638 197 c 5
 638 148 l 5
 613 154 590 160 552 160 c 4
 498 160 466 142 448 126 c 4
 426 106 411 77 410 37 c 5
 437 64 482 84 540 84 c 4
 597 84 623 69 644 51 c 4
 676 23 683 -14 684 -49 c 5
 684 -51 684 -54 684 -56 c 5
 684 -94 676 -127 640 -158 c 4
 598 -196 545 -201 502 -201 c 4
 450 -201 403 -189 370 -158 c 4
 327 -120 316 -57 316 1 c 4
412 -48 m 4
 412 -53 412 -56 412 -61 c 4
 416 -101 431 -147 504 -147 c 4
 563 -147 583 -118 588 -93 c 4
 590 -82 590 -69 590 -58 c 5
 590 -54 590 -43 590 -40 c 5
 589 -20 586 -4 574 10 c 4
 557 28 533 35 506 35 c 4
 450 35 421 5 414 -30 c 4
 413 -36 412 -42 412 -48 c 4
EndSplineSet
EndChar
StartChar: uF266D
Encoding: 992877 992877 112
Width: 1000
Flags: MW
LayerCount: 2
Fore
SplineSet
58 278 m 0
 58 296 75 298 90 298 c 2
 925 298 l 2
 934 298 943 297 950 294 c 0
 956 291 960 287 960 278 c 0
 960 270 957 258 931 258 c 2
 87 258 l 2
 63 258 58 270 58 278 c 0
348 639 m 1
 348 697 l 1
 459 698 507 746 532 772 c 1
 550 772 l 1
 550 420 l 1
 652 420 l 1
 652 361 l 1
 362 361 l 1
 362 420 l 1
 470 420 l 1
 470 665 l 1
 459 660 422 639 348 639 c 1
315 130 m 5
 315 195 l 5
 685 195 l 5
 685 133 l 5
 564 38 499 -73 499 -196 c 5
 403 -196 l 5
 403 -75 472 34 623 130 c 5
 315 130 l 5
EndSplineSet
EndChar
StartChar: uF266E
Encoding: 992878 992878 113
Width: 1000
Flags: MW
LayerCount: 2
Fore
SplineSet
58 278 m 0
 58 296 75 298 90 298 c 2
 925 298 l 2
 934 298 943 297 950 294 c 0
 956 291 960 287 960 278 c 0
 960 270 957 258 931 258 c 2
 87 258 l 2
 63 258 58 270 58 278 c 0
324 691 m 1
 370 748 417 772 490 772 c 0
 600 772 676 710 676 624 c 0
 676 545 586 530 515 495 c 0
 503 490 492 483 399 431 c 1
 548 431 l 1
 573 432 l 1
 676 432 l 1
 676 361 l 1
 332 361 l 1
 332 431 l 1
 421 484 433 491 444 497 c 0
 505 528 593 550 593 622 c 0
 593 673 545 708 477 708 c 0
 405 708 381 667 363 633 c 1
 324 691 l 1
315 130 m 5
 315 195 l 5
 685 195 l 5
 685 133 l 5
 564 38 499 -73 499 -196 c 5
 403 -196 l 5
 403 -75 472 34 623 130 c 5
 315 130 l 5
EndSplineSet
EndChar
StartChar: uF266F
Encoding: 992879 992879 114
Width: 1000
Flags: MW
LayerCount: 2
Fore
SplineSet
58 278 m 0
 58 296 75 298 90 298 c 2
 925 298 l 2
 934 298 943 297 950 294 c 0
 956 291 960 287 960 278 c 0
 960 270 957 258 931 258 c 2
 87 258 l 2
 63 258 58 270 58 278 c 0
320 378 m 1
 329 439 l 1
 361 430 395 421 434 416 c 0
 453 414 473 412 495 412 c 0xe8
 534 412 558 422 572 434 c 4
 587 447 591 463 591 474 c 0xe8
 591 496 574 513 560 521 c 0
 538 534 512 535 486 535 c 2
 445 535 l 1
 445 597 l 1
 486 601 522 600 551 626 c 0
 562 637 570 651 570 667 c 0
 570 685 556 713 498 713 c 0
 439 713 400 688 367 661 c 1
 334 717 l 1
 379 750 433 772 498 772 c 0
 584 772 653 726 653 667 c 0xf0
 653 597 584 568 582 565 c 1
 616 555 680 527 680 473 c 0
 680 442 659 404 616 379 c 0
 587 362 547 350 497 350 c 0
 477 350 457 351 436 353 c 0
 401 357 363 365 320 378 c 1
315 130 m 5
 315 195 l 5
 685 195 l 5
 685 133 l 5
 564 38 499 -73 499 -196 c 5
 403 -196 l 5
 403 -75 472 34 623 130 c 5
 315 130 l 5
EndSplineSet
EndChar
StartChar: uF2670
Encoding: 992880 992880 115
Width: 1000
Flags: MW
LayerCount: 2
Fore
SplineSet
58 278 m 0
 58 296 75 298 90 298 c 2
 925 298 l 2
 934 298 943 297 950 294 c 0
 956 291 960 287 960 278 c 0
 960 270 957 258 931 258 c 2
 87 258 l 2
 63 258 58 270 58 278 c 0
303 462 m 5
 303 514 l 5
 303 518 304 517 308 521 c 5
 513 755 l 5
 617 755 l 5
 617 517 l 5
 697 517 l 5
 697 462 l 5
 617 462 l 5
 617 370 l 5
 531 370 l 5
 531 462 l 5
 303 462 l 5
381 517 m 5
 536 517 l 5
 536 705 l 5
 523 668 485 629 381 517 c 5
315 130 m 5
 315 195 l 5
 685 195 l 5
 685 133 l 5
 564 38 499 -73 499 -196 c 5
 403 -196 l 5
 403 -75 472 34 623 130 c 5
 315 130 l 5
EndSplineSet
EndChar
StartChar: uF2671
Encoding: 992881 992881 116
Width: 1000
Flags: MW
LayerCount: 2
Fore
SplineSet
58 278 m 0
 58 296 75 298 90 298 c 2
 925 298 l 2
 934 298 943 297 950 294 c 0
 956 291 960 287 960 278 c 0
 960 270 957 258 931 258 c 2
 87 258 l 2
 63 258 58 270 58 278 c 0
316 415 m 5
 353 460 l 5
 357 455 361 451 366 447 c 4
 380 436 398 428 415 422 c 4
 440 414 466 411 484 411 c 4
 515 411 542 418 560 433 c 4
 576 446 583 466 583 492 c 5
 583 495 583 504 583 507 c 5
 581 529 574 548 560 559 c 4
 548 569 531 574 513 574 c 4
 449 574 425 532 425 532 c 5
 353 532 l 5
 353 755 l 5
 654 755 l 5
 654 702 l 5
 439 702 l 5
 439 609 l 5
 461 618 481 624 516 624 c 4
 561 624 601 614 631 596 c 4
 664 576 684 536 684 491 c 4
 684 448 663 416 629 394 c 4
 592 369 540 358 486 358 c 4
 451 358 419 362 392 372 c 4
 355 383 330 402 316 415 c 5
315 130 m 5
 315 195 l 5
 685 195 l 5
 685 133 l 5
 564 38 499 -73 499 -196 c 5
 403 -196 l 5
 403 -75 472 34 623 130 c 5
 315 130 l 5
EndSplineSet
EndChar
StartChar: uF2674
Encoding: 992884 992884 119
Width: 1000
Flags: MW
LayerCount: 2
Fore
SplineSet
58 278 m 0
 58 296 75 298 90 298 c 2
 925 298 l 2
 934 298 943 297 950 294 c 0
 956 291 960 287 960 278 c 0
 960 270 957 258 931 258 c 2
 87 258 l 2
 63 258 58 270 58 278 c 0
320 378 m 1
 329 439 l 1
 361 430 395 421 434 416 c 0
 453 414 473 412 495 412 c 0xe8
 534 412 558 422 572 434 c 4
 587 447 591 463 591 474 c 0xe8
 591 496 574 513 560 521 c 0
 538 534 512 535 486 535 c 2
 445 535 l 1
 445 597 l 1
 486 601 522 600 551 626 c 0
 562 637 570 651 570 667 c 0
 570 685 556 713 498 713 c 0
 439 713 400 688 367 661 c 1
 334 717 l 1
 379 750 433 772 498 772 c 0
 584 772 653 726 653 667 c 0xf0
 653 597 584 568 582 565 c 1
 616 555 680 527 680 473 c 0
 680 442 659 404 616 379 c 0
 587 362 547 350 497 350 c 0
 477 350 457 351 436 353 c 0
 401 357 363 365 320 378 c 1
315 -81 m 4
 315 -37 349 2 427 19 c 5
 385 29 328 53 328 104 c 4
 328 158 381 208 500 208 c 5
 501 208 502 208 503 208 c 5
 619 207 673 159 673 104 c 4
 673 51 612 29 574 19 c 5
 638 7 685 -29 685 -81 c 4
 685 -143 627 -201 500 -201 c 4
 373 -201 315 -143 315 -81 c 4
409 -83 m 5
 409 -106 416 -126 438 -137 c 4
 452 -145 473 -149 500 -149 c 4
 524 -149 544 -145 560 -137 c 4
 585 -125 592 -103 592 -81 c 5
 592 -79 591 -70 591 -68 c 5
 588 -49 581 -32 564 -22 c 4
 549 -12 528 -9 500 -9 c 4
 476 -9 455 -12 440 -21 c 4
 418 -33 412 -53 409 -71 c 5
 409 -73 409 -81 409 -83 c 5
411 100 m 5
 411 81 420 67 436 57 c 4
 451 48 472 45 499 45 c 4
 527 45 549 49 563 57 c 4
 582 67 589 83 589 100 c 5
 589 103 589 110 588 112 c 5
 585 127 578 139 564 147 c 4
 550 156 529 160 501 160 c 4
 474 160 452 156 438 148 c 4
 419 138 414 124 412 109 c 5
 412 108 411 102 411 100 c 5
EndSplineSet
EndChar
StartChar: uF2675
Encoding: 992885 992885 120
Width: 1000
Flags: MW
LayerCount: 2
Fore
SplineSet
58 278 m 0
 58 296 75 298 90 298 c 2
 925 298 l 2
 934 298 943 297 950 294 c 0
 956 291 960 287 960 278 c 0
 960 270 957 258 931 258 c 2
 87 258 l 2
 63 258 58 270 58 278 c 0
316 415 m 5
 353 460 l 5
 357 455 361 451 366 447 c 4
 380 436 398 428 415 422 c 4
 440 414 466 411 484 411 c 4
 515 411 542 418 560 433 c 4
 576 446 583 466 583 492 c 5
 583 495 583 504 583 507 c 5
 581 529 574 548 560 559 c 4
 548 569 531 574 513 574 c 4
 449 574 425 532 425 532 c 5
 353 532 l 5
 353 755 l 5
 654 755 l 5
 654 702 l 5
 439 702 l 5
 439 609 l 5
 461 618 481 624 516 624 c 4
 561 624 601 614 631 596 c 4
 664 576 684 536 684 491 c 4
 684 448 663 416 629 394 c 4
 592 369 540 358 486 358 c 4
 451 358 419 362 392 372 c 4
 355 383 330 402 316 415 c 5
315 -81 m 4
 315 -37 349 2 427 19 c 5
 385 29 328 53 328 104 c 4
 328 158 381 208 500 208 c 5
 501 208 502 208 503 208 c 5
 619 207 673 159 673 104 c 4
 673 51 612 29 574 19 c 5
 638 7 685 -29 685 -81 c 4
 685 -143 627 -201 500 -201 c 4
 373 -201 315 -143 315 -81 c 4
409 -83 m 5
 409 -106 416 -126 438 -137 c 4
 452 -145 473 -149 500 -149 c 4
 524 -149 544 -145 560 -137 c 4
 585 -125 592 -103 592 -81 c 5
 592 -79 591 -70 591 -68 c 5
 588 -49 581 -32 564 -22 c 4
 549 -12 528 -9 500 -9 c 4
 476 -9 455 -12 440 -21 c 4
 418 -33 412 -53 409 -71 c 5
 409 -73 409 -81 409 -83 c 5
411 100 m 5
 411 81 420 67 436 57 c 4
 451 48 472 45 499 45 c 4
 527 45 549 49 563 57 c 4
 582 67 589 83 589 100 c 5
 589 103 589 110 588 112 c 5
 585 127 578 139 564 147 c 4
 550 156 529 160 501 160 c 4
 474 160 452 156 438 148 c 4
 419 138 414 124 412 109 c 5
 412 108 411 102 411 100 c 5
EndSplineSet
EndChar
StartChar: uF2676
Encoding: 992886 992886 121
Width: 1000
Flags: MW
LayerCount: 2
Fore
SplineSet
58 278 m 0
 58 296 75 298 90 298 c 2
 925 298 l 2
 934 298 943 297 950 294 c 0
 956 291 960 287 960 278 c 0
 960 270 957 258 931 258 c 2
 87 258 l 2
 63 258 58 270 58 278 c 0
315 690 m 5
 315 755 l 5
 685 755 l 5
 685 693 l 5
 564 598 499 487 499 364 c 5
 403 364 l 5
 403 485 472 594 623 690 c 5
 315 690 l 5
315 -81 m 4
 315 -37 349 2 427 19 c 5
 385 29 328 53 328 104 c 4
 328 158 381 208 500 208 c 5
 501 208 502 208 503 208 c 5
 619 207 673 159 673 104 c 4
 673 51 612 29 574 19 c 5
 638 7 685 -29 685 -81 c 4
 685 -143 627 -201 500 -201 c 4
 373 -201 315 -143 315 -81 c 4
409 -83 m 5
 409 -106 416 -126 438 -137 c 4
 452 -145 473 -149 500 -149 c 4
 524 -149 544 -145 560 -137 c 4
 585 -125 592 -103 592 -81 c 5
 592 -79 591 -70 591 -68 c 5
 588 -49 581 -32 564 -22 c 4
 549 -12 528 -9 500 -9 c 4
 476 -9 455 -12 440 -21 c 4
 418 -33 412 -53 409 -71 c 5
 409 -73 409 -81 409 -83 c 5
411 100 m 5
 411 81 420 67 436 57 c 4
 451 48 472 45 499 45 c 4
 527 45 549 49 563 57 c 4
 582 67 589 83 589 100 c 5
 589 103 589 110 588 112 c 5
 585 127 578 139 564 147 c 4
 550 156 529 160 501 160 c 4
 474 160 452 156 438 148 c 4
 419 138 414 124 412 109 c 5
 412 108 411 102 411 100 c 5
EndSplineSet
EndChar
StartChar: uF2678
Encoding: 992888 992888 123
Width: 1000
Flags: MW
LayerCount: 2
Fore
SplineSet
58 278 m 0
 58 296 75 298 90 298 c 2
 925 298 l 2
 934 298 943 297 950 294 c 0
 956 291 960 287 960 278 c 0
 960 270 957 258 931 258 c 2
 87 258 l 2
 63 258 58 270 58 278 c 0
324 691 m 1
 370 748 417 772 490 772 c 0
 600 772 676 710 676 624 c 0
 676 545 586 530 515 495 c 0
 503 490 492 483 399 431 c 1
 548 431 l 1
 573 432 l 1
 676 432 l 1
 676 361 l 1
 332 361 l 1
 332 431 l 1
 421 484 433 491 444 497 c 0
 505 528 593 550 593 622 c 0
 593 673 545 708 477 708 c 0
 405 708 381 667 363 633 c 1
 324 691 l 1
316 61 m 0
 316 102 323 135 364 167 c 0
 397 194 435 208 502 208 c 0
 546 208 587 199 618 177 c 0
 669 141 684 75 684 8 c 0
 684 -54 665 -118 608 -159 c 0
 568 -187 514 -201 460 -201 c 0
 408 -201 376 -191 342 -175 c 1
 376 -131 l 1
 398 -141 419 -150 462 -150 c 0
 503 -150 538 -137 560 -115 c 0
 574 -100 585 -75 588 -41 c 1
 588 -38 590 -33 590 -30 c 1
 565 -54 523 -78 460 -78 c 0
 402 -78 376 -62 356 -44 c 0
 323 -15 316 24 316 61 c 0
410 64 m 1
 411 20 413 6 432 -10 c 0
 446 -21 467 -28 494 -28 c 0
 520 -28 546 -21 564 -4 c 0
 579 10 588 30 588 56 c 0
 588 93 581 156 502 156 c 0
 480 156 463 152 450 146 c 0
 420 133 416 107 412 90 c 1
 409 84 410 71 410 64 c 1
EndSplineSet
EndChar
StartChar: uF2679
Encoding: 992889 992889 124
Width: 1000
Flags: MW
LayerCount: 2
Fore
SplineSet
58 278 m 0
 58 296 75 298 90 298 c 2
 925 298 l 2
 934 298 943 297 950 294 c 0
 956 291 960 287 960 278 c 0
 960 270 957 258 931 258 c 2
 87 258 l 2
 63 258 58 270 58 278 c 0
303 462 m 5
 303 514 l 5
 303 518 304 517 308 521 c 5
 513 755 l 5
 617 755 l 5
 617 517 l 5
 697 517 l 5
 697 462 l 5
 617 462 l 5
 617 370 l 5
 531 370 l 5
 531 462 l 5
 303 462 l 5
381 517 m 5
 536 517 l 5
 536 705 l 5
 523 668 485 629 381 517 c 5
316 61 m 0
 316 102 323 135 364 167 c 0
 397 194 435 208 502 208 c 0
 546 208 587 199 618 177 c 0
 669 141 684 75 684 8 c 0
 684 -54 665 -118 608 -159 c 0
 568 -187 514 -201 460 -201 c 0
 408 -201 376 -191 342 -175 c 1
 376 -131 l 1
 398 -141 419 -150 462 -150 c 0
 503 -150 538 -137 560 -115 c 0
 574 -100 585 -75 588 -41 c 1
 588 -38 590 -33 590 -30 c 1
 565 -54 523 -78 460 -78 c 0
 402 -78 376 -62 356 -44 c 0
 323 -15 316 24 316 61 c 0
410 64 m 1
 411 20 413 6 432 -10 c 0
 446 -21 467 -28 494 -28 c 0
 520 -28 546 -21 564 -4 c 0
 579 10 588 30 588 56 c 0
 588 93 581 156 502 156 c 0
 480 156 463 152 450 146 c 0
 420 133 416 107 412 90 c 1
 409 84 410 71 410 64 c 1
EndSplineSet
EndChar
StartChar: uF267A
Encoding: 992890 992890 125
Width: 1000
Flags: MW
LayerCount: 2
Fore
SplineSet
58 278 m 0
 58 296 75 298 90 298 c 2
 925 298 l 2
 934 298 943 297 950 294 c 0
 956 291 960 287 960 278 c 0
 960 270 957 258 931 258 c 2
 87 258 l 2
 63 258 58 270 58 278 c 0
316 415 m 5
 353 460 l 5
 357 455 361 451 366 447 c 4
 380 436 398 428 415 422 c 4
 440 414 466 411 484 411 c 4
 515 411 542 418 560 433 c 4
 576 446 583 466 583 492 c 5
 583 495 583 504 583 507 c 5
 581 529 574 548 560 559 c 4
 548 569 531 574 513 574 c 4
 449 574 425 532 425 532 c 5
 353 532 l 5
 353 755 l 5
 654 755 l 5
 654 702 l 5
 439 702 l 5
 439 609 l 5
 461 618 481 624 516 624 c 4
 561 624 601 614 631 596 c 4
 664 576 684 536 684 491 c 4
 684 448 663 416 629 394 c 4
 592 369 540 358 486 358 c 4
 451 358 419 362 392 372 c 4
 355 383 330 402 316 415 c 5
316 61 m 0
 316 102 323 135 364 167 c 0
 397 194 435 208 502 208 c 0
 546 208 587 199 618 177 c 0
 669 141 684 75 684 8 c 0
 684 -54 665 -118 608 -159 c 0
 568 -187 514 -201 460 -201 c 0
 408 -201 376 -191 342 -175 c 1
 376 -131 l 1
 398 -141 419 -150 462 -150 c 0
 503 -150 538 -137 560 -115 c 0
 574 -100 585 -75 588 -41 c 1
 588 -38 590 -33 590 -30 c 1
 565 -54 523 -78 460 -78 c 0
 402 -78 376 -62 356 -44 c 0
 323 -15 316 24 316 61 c 0
410 64 m 1
 411 20 413 6 432 -10 c 0
 446 -21 467 -28 494 -28 c 0
 520 -28 546 -21 564 -4 c 0
 579 10 588 30 588 56 c 0
 588 93 581 156 502 156 c 0
 480 156 463 152 450 146 c 0
 420 133 416 107 412 90 c 1
 409 84 410 71 410 64 c 1
EndSplineSet
EndChar
StartChar: uF267C
Encoding: 992892 992892 127
Width: 1000
Flags: MW
LayerCount: 2
Fore
SplineSet
58 278 m 0
 58 296 75 298 90 298 c 2
 925 298 l 2
 934 298 943 297 950 294 c 0
 956 291 960 287 960 278 c 0
 960 270 957 258 931 258 c 2
 87 258 l 2
 63 258 58 270 58 278 c 0
315 479 m 4
 315 523 349 562 427 579 c 5
 385 589 328 613 328 664 c 4
 328 718 381 768 500 768 c 5
 501 768 502 768 503 768 c 5
 619 767 673 719 673 664 c 4
 673 611 612 589 574 579 c 5
 638 567 685 531 685 479 c 4
 685 417 627 359 500 359 c 4
 373 359 315 417 315 479 c 4
409 477 m 5
 409 454 416 434 438 423 c 4
 452 415 473 411 500 411 c 4
 524 411 544 415 560 423 c 4
 585 435 592 457 592 479 c 5
 592 481 591 490 591 492 c 5
 588 511 581 528 564 538 c 4
 549 548 528 551 500 551 c 4
 476 551 455 548 440 539 c 4
 418 527 412 507 409 489 c 5
 409 487 409 479 409 477 c 5
411 660 m 5
 411 641 420 627 436 617 c 4
 451 608 472 605 499 605 c 4
 527 605 549 609 563 617 c 4
 582 627 589 643 589 660 c 5
 589 663 589 670 588 672 c 5
 585 687 578 699 564 707 c 4
 550 716 529 720 501 720 c 4
 474 720 452 716 438 708 c 4
 419 698 414 684 412 669 c 5
 412 668 411 662 411 660 c 5
316 61 m 0
 316 102 323 135 364 167 c 0
 397 194 435 208 502 208 c 0
 546 208 587 199 618 177 c 0
 669 141 684 75 684 8 c 0
 684 -54 665 -118 608 -159 c 0
 568 -187 514 -201 460 -201 c 0
 408 -201 376 -191 342 -175 c 1
 376 -131 l 1
 398 -141 419 -150 462 -150 c 0
 503 -150 538 -137 560 -115 c 0
 574 -100 585 -75 588 -41 c 1
 588 -38 590 -33 590 -30 c 1
 565 -54 523 -78 460 -78 c 0
 402 -78 376 -62 356 -44 c 0
 323 -15 316 24 316 61 c 0
410 64 m 1
 411 20 413 6 432 -10 c 0
 446 -21 467 -28 494 -28 c 0
 520 -28 546 -21 564 -4 c 0
 579 10 588 30 588 56 c 0
 588 93 581 156 502 156 c 0
 480 156 463 152 450 146 c 0
 420 133 416 107 412 90 c 1
 409 84 410 71 410 64 c 1
EndSplineSet
EndChar
StartChar: uF267D
Encoding: 992893 992893 128
Width: 1000
Flags: MW
LayerCount: 2
Fore
SplineSet
58 278 m 0
 58 296 75 298 90 298 c 2
 925 298 l 2
 934 298 943 297 950 294 c 0
 956 291 960 287 960 278 c 0
 960 270 957 258 931 258 c 2
 87 258 l 2
 63 258 58 270 58 278 c 0
348 639 m 1
 348 697 l 1
 459 698 507 746 532 772 c 1
 550 772 l 1
 550 420 l 1
 652 420 l 1
 652 361 l 1
 362 361 l 1
 362 420 l 1
 470 420 l 1
 470 665 l 1
 459 660 422 639 348 639 c 1
158 79 m 1
 158 137 l 1
 269 138 317 186 342 212 c 1
 362 212 l 1
 362 -140 l 1
 464 -140 l 1
 464 -199 l 1
 172 -199 l 1
 172 -140 l 1
 282 -140 l 1
 282 105 l 1
 271 100 232 79 158 79 c 1
468 -3 m 5
 468 1 468 9 468 13 c 5
 469 78 479 175 594 202 c 4
 611 206 631 208 654 208 c 4
 700 208 748 198 780 173 c 4
 835 131 841 58 842 17 c 5
 842 13 842 7 842 4 c 5
 842 -94 819 -173 714 -196 c 4
 697 -200 678 -201 654 -201 c 4
 525 -201 468 -130 468 -3 c 5
560 -1 m 5
 560 -94 580 -128 620 -142 c 4
 631 -146 644 -147 656 -147 c 4
 667 -147 687 -144 706 -133 c 4
 738 -113 749 -75 750 1 c 5
 750 4 750 22 750 26 c 5
 750 71 741 109 724 127 c 4
 707 145 680 153 654 153 c 4
 592 153 560 113 560 27 c 5
 560 23 560 3 560 -1 c 5
EndSplineSet
EndChar
StartChar: uF267E
Encoding: 992894 992894 129
Width: 1000
Flags: MW
LayerCount: 2
Fore
SplineSet
58 278 m 0
 58 296 75 298 90 298 c 2
 925 298 l 2
 934 298 943 297 950 294 c 0
 956 291 960 287 960 278 c 0
 960 270 957 258 931 258 c 2
 87 258 l 2
 63 258 58 270 58 278 c 0
320 378 m 1
 329 439 l 1
 361 430 395 421 434 416 c 0
 453 414 473 412 495 412 c 0xe8
 534 412 558 422 572 434 c 4
 587 447 591 463 591 474 c 0xe8
 591 496 574 513 560 521 c 0
 538 534 512 535 486 535 c 2
 445 535 l 1
 445 597 l 1
 486 601 522 600 551 626 c 0
 562 637 570 651 570 667 c 0
 570 685 556 713 498 713 c 0
 439 713 400 688 367 661 c 1
 334 717 l 1
 379 750 433 772 498 772 c 0
 584 772 653 726 653 667 c 0xf0
 653 597 584 568 582 565 c 1
 616 555 680 527 680 473 c 0
 680 442 659 404 616 379 c 0
 587 362 547 350 497 350 c 0
 477 350 457 351 436 353 c 0
 401 357 363 365 320 378 c 1
158 79 m 1
 158 137 l 1
 269 138 317 186 342 212 c 1
 362 212 l 1
 362 -140 l 1
 464 -140 l 1
 464 -199 l 1
 172 -199 l 1
 172 -140 l 1
 282 -140 l 1
 282 105 l 1
 271 100 232 79 158 79 c 1
468 -3 m 5
 468 1 468 9 468 13 c 5
 469 78 479 175 594 202 c 4
 611 206 631 208 654 208 c 4
 700 208 748 198 780 173 c 4
 835 131 841 58 842 17 c 5
 842 13 842 7 842 4 c 5
 842 -94 819 -173 714 -196 c 4
 697 -200 678 -201 654 -201 c 4
 525 -201 468 -130 468 -3 c 5
560 -1 m 5
 560 -94 580 -128 620 -142 c 4
 631 -146 644 -147 656 -147 c 4
 667 -147 687 -144 706 -133 c 4
 738 -113 749 -75 750 1 c 5
 750 4 750 22 750 26 c 5
 750 71 741 109 724 127 c 4
 707 145 680 153 654 153 c 4
 592 153 560 113 560 27 c 5
 560 23 560 3 560 -1 c 5
EndSplineSet
EndChar
StartChar: uF2680
Encoding: 992896 992896 131
Width: 1000
Flags: MW
LayerCount: 2
Fore
SplineSet
58 278 m 0
 58 296 75 298 90 298 c 2
 925 298 l 2
 934 298 943 297 950 294 c 0
 956 291 960 287 960 278 c 0
 960 270 957 258 931 258 c 2
 87 258 l 2
 63 258 58 270 58 278 c 0
316 621 m 0
 316 662 323 695 364 727 c 0
 397 754 435 768 502 768 c 0
 546 768 587 759 618 737 c 0
 669 701 684 635 684 568 c 0
 684 506 665 442 608 401 c 0
 568 373 514 359 460 359 c 0
 408 359 376 369 342 385 c 1
 376 429 l 1
 398 419 419 410 462 410 c 0
 503 410 538 423 560 445 c 0
 574 460 585 485 588 519 c 1
 588 522 590 527 590 530 c 1
 565 506 523 482 460 482 c 0
 402 482 376 498 356 516 c 0
 323 545 316 584 316 621 c 0
410 624 m 1
 411 580 413 566 432 550 c 0
 446 539 467 532 494 532 c 0
 520 532 546 539 564 556 c 0
 579 570 588 590 588 616 c 0
 588 653 581 716 502 716 c 0
 480 716 463 712 450 706 c 0
 420 693 416 667 412 650 c 1
 409 644 410 631 410 624 c 1
158 79 m 1
 158 137 l 1
 269 138 317 186 342 212 c 1
 362 212 l 1
 362 -140 l 1
 464 -140 l 1
 464 -199 l 1
 172 -199 l 1
 172 -140 l 1
 282 -140 l 1
 282 105 l 1
 271 100 232 79 158 79 c 1
468 -3 m 5
 468 1 468 9 468 13 c 5
 469 78 479 175 594 202 c 4
 611 206 631 208 654 208 c 4
 700 208 748 198 780 173 c 4
 835 131 841 58 842 17 c 5
 842 13 842 7 842 4 c 5
 842 -94 819 -173 714 -196 c 4
 697 -200 678 -201 654 -201 c 4
 525 -201 468 -130 468 -3 c 5
560 -1 m 5
 560 -94 580 -128 620 -142 c 4
 631 -146 644 -147 656 -147 c 4
 667 -147 687 -144 706 -133 c 4
 738 -113 749 -75 750 1 c 5
 750 4 750 22 750 26 c 5
 750 71 741 109 724 127 c 4
 707 145 680 153 654 153 c 4
 592 153 560 113 560 27 c 5
 560 23 560 3 560 -1 c 5
EndSplineSet
EndChar
StartChar: uF2681
Encoding: 992897 992897 132
Width: 1000
Flags: MW
LayerCount: 2
Fore
SplineSet
58 278 m 0
 58 296 75 298 90 298 c 2
 925 298 l 2
 934 298 943 297 950 294 c 0
 956 291 960 287 960 278 c 0
 960 270 957 258 931 258 c 2
 87 258 l 2
 63 258 58 270 58 278 c 0
348 639 m 1
 348 697 l 1
 459 698 507 746 532 772 c 1
 550 772 l 1
 550 420 l 1
 652 420 l 1
 652 361 l 1
 362 361 l 1
 362 420 l 1
 470 420 l 1
 470 665 l 1
 459 660 422 639 348 639 c 1
176 79 m 1
 176 137 l 1
 287 138 335 186 360 212 c 1
 378 212 l 1
 378 -140 l 1
 480 -140 l 1
 480 -199 l 1
 190 -199 l 1
 190 -140 l 1
 298 -140 l 1
 298 105 l 1
 287 100 250 79 176 79 c 1
520 79 m 1
 520 137 l 1
 631 138 679 186 704 212 c 1
 722 212 l 1
 722 -140 l 1
 824 -140 l 1
 824 -199 l 1
 534 -199 l 1
 534 -140 l 1
 642 -140 l 1
 642 105 l 1
 631 100 594 79 520 79 c 1
EndSplineSet
EndChar
StartChar: uF2683
Encoding: 992899 992899 134
Width: 1000
Flags: MW
LayerCount: 2
Fore
SplineSet
58 278 m 0
 58 296 75 298 90 298 c 2
 925 298 l 2
 934 298 943 297 950 294 c 0
 956 291 960 287 960 278 c 0
 960 270 957 258 931 258 c 2
 87 258 l 2
 63 258 58 270 58 278 c 0
320 378 m 1
 329 439 l 1
 361 430 395 421 434 416 c 0
 453 414 473 412 495 412 c 0xe8
 534 412 558 422 572 434 c 4
 587 447 591 463 591 474 c 0xe8
 591 496 574 513 560 521 c 0
 538 534 512 535 486 535 c 2
 445 535 l 1
 445 597 l 1
 486 601 522 600 551 626 c 0
 562 637 570 651 570 667 c 0
 570 685 556 713 498 713 c 0
 439 713 400 688 367 661 c 1
 334 717 l 1
 379 750 433 772 498 772 c 0
 584 772 653 726 653 667 c 0xf0
 653 597 584 568 582 565 c 1
 616 555 680 527 680 473 c 0
 680 442 659 404 616 379 c 0
 587 362 547 350 497 350 c 0
 477 350 457 351 436 353 c 0
 401 357 363 365 320 378 c 1
176 79 m 1
 176 137 l 1
 287 138 335 186 360 212 c 1
 378 212 l 1
 378 -140 l 1
 480 -140 l 1
 480 -199 l 1
 190 -199 l 1
 190 -140 l 1
 298 -140 l 1
 298 105 l 1
 287 100 250 79 176 79 c 1
520 79 m 1
 520 137 l 1
 631 138 679 186 704 212 c 1
 722 212 l 1
 722 -140 l 1
 824 -140 l 1
 824 -199 l 1
 534 -199 l 1
 534 -140 l 1
 642 -140 l 1
 642 105 l 1
 631 100 594 79 520 79 c 1
EndSplineSet
EndChar
StartChar: uF2684
Encoding: 992900 992900 135
Width: 1000
Flags: MW
LayerCount: 2
Fore
SplineSet
58 278 m 0
 58 296 75 298 90 298 c 2
 925 298 l 2
 934 298 943 297 950 294 c 0
 956 291 960 287 960 278 c 0
 960 270 957 258 931 258 c 2
 87 258 l 2
 63 258 58 270 58 278 c 0
303 462 m 5
 303 514 l 5
 303 518 304 517 308 521 c 5
 513 755 l 5
 617 755 l 5
 617 517 l 5
 697 517 l 5
 697 462 l 5
 617 462 l 5
 617 370 l 5
 531 370 l 5
 531 462 l 5
 303 462 l 5
381 517 m 5
 536 517 l 5
 536 705 l 5
 523 668 485 629 381 517 c 5
176 79 m 1
 176 137 l 1
 287 138 335 186 360 212 c 1
 378 212 l 1
 378 -140 l 1
 480 -140 l 1
 480 -199 l 1
 190 -199 l 1
 190 -140 l 1
 298 -140 l 1
 298 105 l 1
 287 100 250 79 176 79 c 1
520 79 m 1
 520 137 l 1
 631 138 679 186 704 212 c 1
 722 212 l 1
 722 -140 l 1
 824 -140 l 1
 824 -199 l 1
 534 -199 l 1
 534 -140 l 1
 642 -140 l 1
 642 105 l 1
 631 100 594 79 520 79 c 1
EndSplineSet
EndChar
StartChar: uF2686
Encoding: 992902 992902 137
Width: 1000
Flags: MW
LayerCount: 2
Fore
SplineSet
58 278 m 0
 58 296 75 298 90 298 c 2
 925 298 l 2
 934 298 943 297 950 294 c 0
 956 291 960 287 960 278 c 0
 960 270 957 258 931 258 c 2
 87 258 l 2
 63 258 58 270 58 278 c 0
316 561 m 4
 316 635 341 679 374 709 c 4
 415 748 476 768 550 768 c 4
 587 768 612 765 638 757 c 5
 638 708 l 5
 613 714 590 720 552 720 c 4
 498 720 466 702 448 686 c 4
 426 666 411 637 410 597 c 5
 437 624 482 644 540 644 c 4
 597 644 623 629 644 611 c 4
 676 583 683 546 684 511 c 5
 684 509 684 506 684 504 c 5
 684 466 676 433 640 402 c 4
 598 364 545 359 502 359 c 4
 450 359 403 371 370 402 c 4
 327 440 316 503 316 561 c 4
412 512 m 4
 412 507 412 504 412 499 c 4
 416 459 431 413 504 413 c 4
 563 413 583 442 588 467 c 4
 590 478 590 491 590 502 c 5
 590 506 590 517 590 520 c 5
 589 540 586 556 574 570 c 4
 557 588 533 595 506 595 c 4
 450 595 421 565 414 530 c 4
 413 524 412 518 412 512 c 4
176 79 m 1
 176 137 l 1
 287 138 335 186 360 212 c 1
 378 212 l 1
 378 -140 l 1
 480 -140 l 1
 480 -199 l 1
 190 -199 l 1
 190 -140 l 1
 298 -140 l 1
 298 105 l 1
 287 100 250 79 176 79 c 1
520 79 m 1
 520 137 l 1
 631 138 679 186 704 212 c 1
 722 212 l 1
 722 -140 l 1
 824 -140 l 1
 824 -199 l 1
 534 -199 l 1
 534 -140 l 1
 642 -140 l 1
 642 105 l 1
 631 100 594 79 520 79 c 1
EndSplineSet
EndChar
StartChar: uF2688
Encoding: 992904 992904 139
Width: 1000
Flags: MW
LayerCount: 2
Fore
SplineSet
58 278 m 0
 58 296 75 298 90 298 c 2
 925 298 l 2
 934 298 943 297 950 294 c 0
 956 291 960 287 960 278 c 0
 960 270 957 258 931 258 c 2
 87 258 l 2
 63 258 58 270 58 278 c 0
315 479 m 4
 315 523 349 562 427 579 c 5
 385 589 328 613 328 664 c 4
 328 718 381 768 500 768 c 5
 501 768 502 768 503 768 c 5
 619 767 673 719 673 664 c 4
 673 611 612 589 574 579 c 5
 638 567 685 531 685 479 c 4
 685 417 627 359 500 359 c 4
 373 359 315 417 315 479 c 4
409 477 m 5
 409 454 416 434 438 423 c 4
 452 415 473 411 500 411 c 4
 524 411 544 415 560 423 c 4
 585 435 592 457 592 479 c 5
 592 481 591 490 591 492 c 5
 588 511 581 528 564 538 c 4
 549 548 528 551 500 551 c 4
 476 551 455 548 440 539 c 4
 418 527 412 507 409 489 c 5
 409 487 409 479 409 477 c 5
411 660 m 5
 411 641 420 627 436 617 c 4
 451 608 472 605 499 605 c 4
 527 605 549 609 563 617 c 4
 582 627 589 643 589 660 c 5
 589 663 589 670 588 672 c 5
 585 687 578 699 564 707 c 4
 550 716 529 720 501 720 c 4
 474 720 452 716 438 708 c 4
 419 698 414 684 412 669 c 5
 412 668 411 662 411 660 c 5
176 79 m 1
 176 137 l 1
 287 138 335 186 360 212 c 1
 378 212 l 1
 378 -140 l 1
 480 -140 l 1
 480 -199 l 1
 190 -199 l 1
 190 -140 l 1
 298 -140 l 1
 298 105 l 1
 287 100 250 79 176 79 c 1
520 79 m 1
 520 137 l 1
 631 138 679 186 704 212 c 1
 722 212 l 1
 722 -140 l 1
 824 -140 l 1
 824 -199 l 1
 534 -199 l 1
 534 -140 l 1
 642 -140 l 1
 642 105 l 1
 631 100 594 79 520 79 c 1
EndSplineSet
EndChar
StartChar: uF2689
Encoding: 992905 992905 140
Width: 1000
Flags: MW
LayerCount: 2
Fore
SplineSet
58 278 m 0
 58 296 75 298 90 298 c 2
 925 298 l 2
 934 298 943 297 950 294 c 0
 956 291 960 287 960 278 c 0
 960 270 957 258 931 258 c 2
 87 258 l 2
 63 258 58 270 58 278 c 0
316 621 m 0
 316 662 323 695 364 727 c 0
 397 754 435 768 502 768 c 0
 546 768 587 759 618 737 c 0
 669 701 684 635 684 568 c 0
 684 506 665 442 608 401 c 0
 568 373 514 359 460 359 c 0
 408 359 376 369 342 385 c 1
 376 429 l 1
 398 419 419 410 462 410 c 0
 503 410 538 423 560 445 c 0
 574 460 585 485 588 519 c 1
 588 522 590 527 590 530 c 1
 565 506 523 482 460 482 c 0
 402 482 376 498 356 516 c 0
 323 545 316 584 316 621 c 0
410 624 m 1
 411 580 413 566 432 550 c 0
 446 539 467 532 494 532 c 0
 520 532 546 539 564 556 c 0
 579 570 588 590 588 616 c 0
 588 653 581 716 502 716 c 0
 480 716 463 712 450 706 c 0
 420 693 416 667 412 650 c 1
 409 644 410 631 410 624 c 1
176 79 m 1
 176 137 l 1
 287 138 335 186 360 212 c 1
 378 212 l 1
 378 -140 l 1
 480 -140 l 1
 480 -199 l 1
 190 -199 l 1
 190 -140 l 1
 298 -140 l 1
 298 105 l 1
 287 100 250 79 176 79 c 1
520 79 m 1
 520 137 l 1
 631 138 679 186 704 212 c 1
 722 212 l 1
 722 -140 l 1
 824 -140 l 1
 824 -199 l 1
 534 -199 l 1
 534 -140 l 1
 642 -140 l 1
 642 105 l 1
 631 100 594 79 520 79 c 1
EndSplineSet
EndChar
StartChar: uF268A
Encoding: 992906 992906 141
Width: 1000
Flags: MW
LayerCount: 2
Fore
SplineSet
58 278 m 0
 58 296 75 298 90 298 c 2
 925 298 l 2
 934 298 943 297 950 294 c 0
 956 291 960 287 960 278 c 0
 960 270 957 258 931 258 c 2
 87 258 l 2
 63 258 58 270 58 278 c 0
158 639 m 1
 158 697 l 1
 269 698 317 746 342 772 c 1
 362 772 l 1
 362 420 l 1
 464 420 l 1
 464 361 l 1
 172 361 l 1
 172 420 l 1
 282 420 l 1
 282 665 l 1
 271 660 232 639 158 639 c 1
468 557 m 5
 468 561 468 569 468 573 c 5
 469 638 479 735 594 762 c 4
 611 766 631 768 654 768 c 4
 700 768 748 758 780 733 c 4
 835 691 841 618 842 577 c 5
 842 573 842 567 842 564 c 5
 842 466 819 387 714 364 c 4
 697 360 678 359 654 359 c 4
 525 359 468 430 468 557 c 5
560 559 m 5
 560 466 580 432 620 418 c 4
 631 414 644 413 656 413 c 4
 667 413 687 416 706 427 c 4
 738 447 749 485 750 561 c 5
 750 564 750 582 750 586 c 5
 750 631 741 669 724 687 c 4
 707 705 680 713 654 713 c 4
 592 713 560 673 560 587 c 5
 560 583 560 563 560 559 c 5
176 79 m 1
 176 137 l 1
 287 138 335 186 360 212 c 1
 378 212 l 1
 378 -140 l 1
 480 -140 l 1
 480 -199 l 1
 190 -199 l 1
 190 -140 l 1
 298 -140 l 1
 298 105 l 1
 287 100 250 79 176 79 c 1
520 79 m 1
 520 137 l 1
 631 138 679 186 704 212 c 1
 722 212 l 1
 722 -140 l 1
 824 -140 l 1
 824 -199 l 1
 534 -199 l 1
 534 -140 l 1
 642 -140 l 1
 642 105 l 1
 631 100 594 79 520 79 c 1
EndSplineSet
EndChar
StartChar: uF268B
Encoding: 992907 992907 142
Width: 1000
Flags: MW
LayerCount: 2
Fore
SplineSet
58 278 m 0
 58 296 75 298 90 298 c 2
 925 298 l 2
 934 298 943 297 950 294 c 0
 956 291 960 287 960 278 c 0
 960 270 957 258 931 258 c 2
 87 258 l 2
 63 258 58 270 58 278 c 0
348 639 m 1
 348 697 l 1
 459 698 507 746 532 772 c 1
 550 772 l 1
 550 420 l 1
 652 420 l 1
 652 361 l 1
 362 361 l 1
 362 420 l 1
 470 420 l 1
 470 665 l 1
 459 660 422 639 348 639 c 1
166 79 m 1
 166 137 l 1
 277 138 325 186 350 212 c 1
 369 212 l 1
 369 -140 l 1
 471 -140 l 1
 471 -199 l 1
 180 -199 l 1
 180 -140 l 1
 289 -140 l 1
 289 105 l 1
 278 100 240 79 166 79 c 1
482 131 m 1
 528 188 575 212 648 212 c 0
 758 212 834 150 834 64 c 0
 834 -15 744 -30 673 -65 c 0
 661 -70 650 -77 557 -129 c 1
 706 -129 l 1
 731 -128 l 1
 834 -128 l 1
 834 -199 l 1
 490 -199 l 1
 490 -129 l 1
 579 -76 591 -69 602 -63 c 0
 663 -32 751 -10 751 62 c 0
 751 113 703 148 635 148 c 0
 563 148 539 107 521 73 c 1
 482 131 l 1
EndSplineSet
EndChar
StartChar: uF268C
Encoding: 992908 992908 143
Width: 1000
Flags: MW
LayerCount: 2
Fore
SplineSet
58 278 m 0
 58 296 75 298 90 298 c 2
 925 298 l 2
 934 298 943 297 950 294 c 0
 956 291 960 287 960 278 c 0
 960 270 957 258 931 258 c 2
 87 258 l 2
 63 258 58 270 58 278 c 0
316 415 m 5
 353 460 l 5
 357 455 361 451 366 447 c 4
 380 436 398 428 415 422 c 4
 440 414 466 411 484 411 c 4
 515 411 542 418 560 433 c 4
 576 446 583 466 583 492 c 5
 583 495 583 504 583 507 c 5
 581 529 574 548 560 559 c 4
 548 569 531 574 513 574 c 4
 449 574 425 532 425 532 c 5
 353 532 l 5
 353 755 l 5
 654 755 l 5
 654 702 l 5
 439 702 l 5
 439 609 l 5
 461 618 481 624 516 624 c 4
 561 624 601 614 631 596 c 4
 664 576 684 536 684 491 c 4
 684 448 663 416 629 394 c 4
 592 369 540 358 486 358 c 4
 451 358 419 362 392 372 c 4
 355 383 330 402 316 415 c 5
166 79 m 1
 166 137 l 1
 277 138 325 186 350 212 c 1
 369 212 l 1
 369 -140 l 1
 471 -140 l 1
 471 -199 l 1
 180 -199 l 1
 180 -140 l 1
 289 -140 l 1
 289 105 l 1
 278 100 240 79 166 79 c 1
482 131 m 1
 528 188 575 212 648 212 c 0
 758 212 834 150 834 64 c 0
 834 -15 744 -30 673 -65 c 0
 661 -70 650 -77 557 -129 c 1
 706 -129 l 1
 731 -128 l 1
 834 -128 l 1
 834 -199 l 1
 490 -199 l 1
 490 -129 l 1
 579 -76 591 -69 602 -63 c 0
 663 -32 751 -10 751 62 c 0
 751 113 703 148 635 148 c 0
 563 148 539 107 521 73 c 1
 482 131 l 1
EndSplineSet
EndChar
StartChar: uF268E
Encoding: 992910 992910 145
Width: 1000
Flags: MW
LayerCount: 2
Fore
SplineSet
58 278 m 0
 58 296 75 298 90 298 c 2
 925 298 l 2
 934 298 943 297 950 294 c 0
 956 291 960 287 960 278 c 0
 960 270 957 258 931 258 c 2
 87 258 l 2
 63 258 58 270 58 278 c 0
176 639 m 1
 176 697 l 1
 287 698 335 746 360 772 c 1
 378 772 l 1
 378 420 l 1
 480 420 l 1
 480 361 l 1
 190 361 l 1
 190 420 l 1
 298 420 l 1
 298 665 l 1
 287 660 250 639 176 639 c 1
520 639 m 1
 520 697 l 1
 631 698 679 746 704 772 c 1
 722 772 l 1
 722 420 l 1
 824 420 l 1
 824 361 l 1
 534 361 l 1
 534 420 l 1
 642 420 l 1
 642 665 l 1
 631 660 594 639 520 639 c 1
166 79 m 1
 166 137 l 1
 277 138 325 186 350 212 c 1
 369 212 l 1
 369 -140 l 1
 471 -140 l 1
 471 -199 l 1
 180 -199 l 1
 180 -140 l 1
 289 -140 l 1
 289 105 l 1
 278 100 240 79 166 79 c 1
482 131 m 1
 528 188 575 212 648 212 c 0
 758 212 834 150 834 64 c 0
 834 -15 744 -30 673 -65 c 0
 661 -70 650 -77 557 -129 c 1
 706 -129 l 1
 731 -128 l 1
 834 -128 l 1
 834 -199 l 1
 490 -199 l 1
 490 -129 l 1
 579 -76 591 -69 602 -63 c 0
 663 -32 751 -10 751 62 c 0
 751 113 703 148 635 148 c 0
 563 148 539 107 521 73 c 1
 482 131 l 1
EndSplineSet
EndChar
StartChar: uF268F
Encoding: 992911 992911 146
Width: 1000
Flags: MW
LayerCount: 2
Fore
SplineSet
58 278 m 0
 58 296 75 298 90 298 c 2
 925 298 l 2
 934 298 943 297 950 294 c 0
 956 291 960 287 960 278 c 0
 960 270 957 258 931 258 c 2
 87 258 l 2
 63 258 58 270 58 278 c 0
348 639 m 1
 348 697 l 1
 459 698 507 746 532 772 c 1
 550 772 l 1
 550 420 l 1
 652 420 l 1
 652 361 l 1
 362 361 l 1
 362 420 l 1
 470 420 l 1
 470 665 l 1
 459 660 422 639 348 639 c 1
53 79 m 1
 53 137 l 1
 145 138 185 186 206 212 c 1
 222 212 l 1
 222 -140 l 1
 306 -140 l 1
 306 -199 l 1
 65 -199 l 1
 65 -140 l 1
 155 -140 l 1
 155 105 l 1
 146 100 114 79 53 79 c 1
310 -3 m 5
 310 1 310 9 310 13 c 5
 311 78 320 175 415 202 c 4
 429 206 446 208 465 208 c 4
 503 208 542 198 569 173 c 4
 615 131 619 58 620 17 c 5
 620 13 620 7 620 4 c 5
 620 -94 601 -173 514 -196 c 4
 500 -200 485 -201 465 -201 c 4
 358 -201 310 -130 310 -3 c 5
386 -1 m 5
 386 -94 403 -128 436 -142 c 4
 445 -146 456 -147 466 -147 c 4
 475 -147 492 -144 508 -133 c 4
 535 -113 543 -75 544 1 c 5
 544 4 544 22 544 26 c 5
 544 71 537 109 523 127 c 4
 509 145 487 153 465 153 c 4
 414 153 386 113 386 27 c 5
 386 23 386 3 386 -1 c 5
637 -3 m 5
 637 1 637 9 637 13 c 5
 638 78 647 175 742 202 c 4
 756 206 773 208 792 208 c 4
 830 208 869 198 896 173 c 4
 942 131 946 58 947 17 c 5
 947 13 947 7 947 4 c 5
 947 -94 928 -173 841 -196 c 4
 827 -200 812 -201 792 -201 c 4
 685 -201 637 -130 637 -3 c 5
713 -1 m 5
 713 -94 730 -128 763 -142 c 4
 772 -146 783 -147 793 -147 c 4
 802 -147 819 -144 835 -133 c 4
 862 -113 870 -75 871 1 c 5
 871 4 871 22 871 26 c 5
 871 71 864 109 850 127 c 4
 836 145 814 153 792 153 c 4
 741 153 713 113 713 27 c 5
 713 23 713 3 713 -1 c 5
EndSplineSet
EndChar
StartChar: uF2F39
Encoding: 995129 995129 274
Width: 1000
Flags: MW
LayerCount: 2
Fore
SplineSet
708 730 m 1
 790 730 l 1
 728 501 l 2
 698 390 661 312 616 268 c 1
 810 0 l 1
 716 0 l 1
 422 408 l 1
 405 396 390 377 377 350 c 128
 364 323 349 280 332 221 c 2
 272 0 l 1
 190 0 l 1
 252 229 l 2
 284 349 325 431 375 474 c 1
 190 730 l 1
 284 730 l 1
 569 334 l 1
 596 359 623 418 648 509 c 2
 708 730 l 1
EndSplineSet
EndChar
StartChar: uF2F3A
Encoding: 995130 995130 271
Width: 1000
Flags: MW
LayerCount: 2
Fore
SplineSet
343 532 m 2
 343 210 l 2
 343 154 354 114 377 90 c 128
 400 66 437 55 490 55 c 0
 542 55 583 69 613 98 c 128
 643 127 658 166 658 217 c 128
 658 268 639 304 602 328 c 128
 565 352 505 364 423 364 c 2
 397 364 l 1
 397 421 l 1
 423 421 l 2
 560 421 628 465 628 553 c 0
 628 591 615 622 590 644 c 128
 565 666 530 677 487 677 c 0
 436 677 398 666 376 643 c 128
 354 620 343 583 343 532 c 2
270 523 m 2
 270 668 341 740 483 740 c 0
 548 740 599 723 638 690 c 128
 677 657 697 614 697 563 c 0
 697 522 683 488 656 458 c 128
 629 428 593 408 546 398 c 1
 546 396 l 1
 605 387 650 367 682 334 c 128
 714 301 730 260 730 210 c 0
 730 140 709 86 666 48 c 128
 623 10 562 -10 485 -10 c 0
 409 -10 354 6 320 40 c 128
 286 74 270 131 270 210 c 2
 270 523 l 2
EndSplineSet
EndChar
StartChar: uF2F3B
Encoding: 995131 995131 270
Width: 1000
Flags: MW
LayerCount: 2
Fore
SplineSet
292 260 m 0
 292 345 314 410 360 458 c 128
 406 506 471 530 552 530 c 0
 607 530 658 518 708 495 c 1
 688 434 l 1
 643 457 599 469 554 469 c 0
 500 469 457 453 425 422 c 128
 393 391 375 347 370 290 c 1
 674 290 l 1
 674 230 l 1
 370 230 l 1
 375 175 394 130 428 98 c 128
 462 66 503 50 554 50 c 0
 601 50 645 61 688 84 c 1
 708 25 l 1
 658 2 607 -10 552 -10 c 0
 475 -10 412 15 364 64 c 128
 316 113 292 178 292 260 c 0
EndSplineSet
EndChar
StartChar: uF2F3C
Encoding: 995132 995132 273
Width: 1000
Flags: W
LayerCount: 2
Fore
SplineSet
233 511 m 1
 243 570 l 1
 354 570 l 1
 376 695 l 1
 451 695 l 1
 429 570 l 1
 641 570 l 1
 630 511 l 1
 419 511 l 1
 396 384 l 1
 453 427 525 455 623 455 c 0
 703 455 735 438 751 414 c 0
 775 376 767 328 760 288 c 2
 710 0 l 1
 632 0 l 1
 681 281 l 2
 687 313 690 349 657 372 c 0
 637 385 605 394 554 394 c 0
 510 394 475 382 448 364 c 0
 404 334 382 286 374 240 c 2
 332 0 l 1
 254 0 l 1
 344 511 l 1
 233 511 l 1
EndSplineSet
EndChar
StartChar: uF2F3D
Encoding: 995133 995133 274
Width: 1000
Flags: W
LayerCount: 2
Fore
SplineSet
215 -195 m 1
 328 445 l 1
 406 445 l 1
 347 110 l 2
 344 91 345 76 356 65 c 0
 370 52 398 45 455 45 c 0
 523 45 575 63 608 86 c 0
 640 109 650 127 657 165 c 2
 706 445 l 1
 785 445 l 1
 706 0 l 1
 630 0 l 1
 638 42 l 1
 607 19 577 8 536 0 c 0
 499 -7 414 -11 368 -11 c 0
 354 -11 339 -10 326 -9 c 1
 293 -195 l 1
 215 -195 l 1
EndSplineSet
EndChar
StartChar: uF2F43
Encoding: 995139 995139 281
Width: 1000
VWidth: 940
Flags: MW
LayerCount: 2
Fore
SplineSet
370 20 m 0
 370 53 383 80 409 102 c 0
 435 124 469 135 510 135 c 0
 537 135 562 128 585 115 c 1
 587 117 l 1
 587 690 l 1
 630 690 l 1
 630 80 l 2
 630 33 617 -4 590 -30 c 0
 563 -56 527 -70 480 -70 c 0
 448 -70 422 -61 401 -44 c 0
 380 -27 370 -6 370 20 c 0
EndSplineSet
Colour: ff
EndChar
StartChar: uF2F44
Encoding: 995140 995140 282
Width: 1000
VWidth: 940
Flags: MW
LayerCount: 2
Fore
SplineSet
140 0 m 0
 140 33 153 60 179 82 c 0
 205 104 239 115 280 115 c 0
 307 115 332 108 355 95 c 1
 357 97 l 1
 357 630 l 1
 860 730 l 1
 860 160 l 2
 860 113 847 76 820 50 c 0
 793 24 757 10 710 10 c 0
 678 10 652 19 631 36 c 0
 610 53 600 74 600 100 c 0
 600 133 613 160 639 182 c 0
 665 204 699 215 740 215 c 0
 767 215 792 208 815 195 c 1
 817 197 l 1
 817 416 l 1
 400 334 l 1
 400 60 l 2
 400 13 387 -24 360 -50 c 0
 333 -76 297 -90 250 -90 c 0
 218 -90 192 -81 171 -64 c 0
 150 -47 140 -26 140 0 c 0
400 454 m 1
 817 536 l 1
 817 601 l 1
 400 519 l 1
 400 454 l 1
EndSplineSet
Colour: ff
EndChar
StartChar: uF2F46
Encoding: 995142 995142 149
Width: 1000
VWidth: 900
Flags: MW
LayerCount: 2
Fore
SplineSet
33 150 m 0
 33 321 166 463 333 463 c 0
 492 463 632 329 632 150 c 0
 632 -17 504 -163 332 -163 c 0
 172 -163 33 -28 33 150 c 0
57 150 m 0
 57 -8 179 -139 332 -139 c 0
 483 -139 608 -13 608 150 c 0
 608 308 486 439 334 439 c 0
 182 439 57 311 57 150 c 0
173 146 m 0
 173 181 186 213 211 239 c 4
 247 278 305 304 376 304 c 0
 409 304 434 300 463 290 c 1
 454 241 l 1
 433 254 416 266 375 266 c 0
 293 266 226 213 226 146 c 0
 226 88 282 25 377 25 c 0
 424 25 438 36 466 52 c 1
 469 10 l 1
 439 -6 424 -13 376 -13 c 0
 280 -13 205 36 181 100 c 0
 176 114 173 130 173 146 c 0
EndSplineSet
EndChar
StartChar: uF2F47
Encoding: 995143 995143 150
Width: 1000
Flags: MW
LayerCount: 2
Fore
SplineSet
333 450 m 0
 333 621 466 763 633 763 c 0
 792 763 932 629 932 450 c 0
 932 283 804 137 632 137 c 0
 472 137 333 272 333 450 c 0
357 450 m 0
 357 292 479 161 632 161 c 0
 783 161 908 287 908 450 c 0
 908 608 786 739 634 739 c 0
 482 739 357 611 357 450 c 0
473 446 m 0
 473 481 486 513 511 539 c 4
 547 578 605 604 676 604 c 0
 709 604 734 600 763 590 c 1
 754 541 l 1
 733 554 716 566 675 566 c 0
 593 566 526 513 526 446 c 0
 526 388 582 325 677 325 c 0
 724 325 738 336 766 352 c 1
 769 310 l 1
 739 294 724 287 676 287 c 0
 580 287 505 336 481 400 c 0
 476 414 473 430 473 446 c 0
EndSplineSet
EndChar
StartChar: uF2F48
Encoding: 995144 995144 151
Width: 1000
VWidth: 900
Flags: MW
LayerCount: 2
Fore
SplineSet
33 150 m 0
 33 321 166 463 333 463 c 0
 492 463 632 329 632 150 c 0
 632 -17 504 -163 332 -163 c 0
 172 -163 33 -28 33 150 c 0
57 150 m 0
 57 -8 179 -139 332 -139 c 0
 483 -139 608 -13 608 150 c 0
 608 308 486 439 334 439 c 0
 182 439 57 311 57 150 c 0
207 0 m 1
 207 292 l 1
 341 292 l 2
 373 292 410 289 447 272 c 0
 461 265 472 259 480 251 c 0
 493 238 499 224 499 211 c 0
 499 171 453 144 403 133 c 1
 516 0 l 1
 462 0 l 1
 356 127 l 1
 259 127 l 1
 259 0 l 1
 207 0 l 1
259 164 m 1
 332 164 l 2
 339 164 346 164 353 164 c 4
 378 165 397 167 416 175 c 0
 452 189 450 208 451 211 c 1
 449 234 430 258 332 258 c 2
 259 258 l 1
 259 224 l 1
 259 164 l 1
EndSplineSet
EndChar
StartChar: uF2F49
Encoding: 995145 995145 152
Width: 1000
VWidth: 900
Flags: MW
LayerCount: 2
Fore
SplineSet
333 450 m 0
 333 621 466 763 633 763 c 0
 792 763 932 629 932 450 c 0
 932 283 804 137 632 137 c 0
 472 137 333 272 333 450 c 0
357 450 m 0
 357 292 479 161 632 161 c 0
 783 161 908 287 908 450 c 0
 908 608 786 739 634 739 c 0
 482 739 357 611 357 450 c 0
507 300 m 1
 507 592 l 1
 641 592 l 2
 673 592 710 589 747 572 c 0
 761 565 772 559 780 551 c 0
 793 538 799 524 799 511 c 0
 799 471 753 444 703 433 c 1
 816 300 l 1
 762 300 l 1
 656 427 l 1
 559 427 l 1
 559 300 l 1
 507 300 l 1
559 464 m 1
 632 464 l 2
 639 464 646 464 653 464 c 4
 678 465 697 467 716 475 c 0
 752 489 750 508 751 511 c 1
 749 534 730 558 632 558 c 2
 559 558 l 1
 559 524 l 1
 559 464 l 1
EndSplineSet
EndChar
StartChar: uF2F4F
Encoding: 995151 995151 16
Width: 1000
Flags: MW
LayerCount: 2
Fore
SplineSet
298 722 m 1xe0
 382 722 l 1xe0
 374 175 l 1
 306 175 l 1xd0
 300 671 l 1
 298 722 l 1xe0
298 0 m 1
 298 84 l 1
 382 84 l 1
 382 0 l 1
 298 0 l 1
618 722 m 1xe0
 702 722 l 1xe0
 692 175 l 1
 626 175 l 1xd0
 618 671 l 1
 618 722 l 1xe0
618 0 m 1
 618 84 l 1
 702 84 l 1
 702 0 l 1
 618 0 l 1
EndSplineSet
EndChar
StartChar: uF2F50
Encoding: 995152 995152 17
Width: 1000
Flags: MW
LayerCount: 2
Fore
SplineSet
191 722 m 1xe0
 275 722 l 1xe0
 266 175 l 1
 199 175 l 1xd0
 192 671 l 1
 191 722 l 1xe0
191 0 m 1
 191 84 l 1
 275 84 l 1
 275 0 l 1
 191 0 l 1
448 677 m 1
 487 705 537 730 603 733 c 4
 607 733 612 733 616 733 c 0
 775 733 809 636 809 571 c 0
 809 484 756 450 740 434 c 0
 646 343 648 246 648 215 c 2
 648 175 l 1
 581 175 l 1
 581 207 l 2
 581 414 686 476 711 508 c 0
 715 513 731 534 731 572 c 0
 731 652 675 672 618 672 c 0xd8
 548 672 504 642 471 614 c 1
 448 677 l 1
573 0 m 1
 573 84 l 1
 657 84 l 1
 657 0 l 1
 573 0 l 1
EndSplineSet
EndChar
StartChar: uF2F51
Encoding: 995153 995153 18
Width: 1000
Flags: MW
LayerCount: 2
Fore
SplineSet
262 0 m 1
 262 84 l 1
 346 84 l 1
 346 0 l 1
 262 0 l 1
654 722 m 1xe0
 738 722 l 1xe0
 413 175 l 1
 346 175 l 1xd0
 626 671 l 1
 654 722 l 1xe0
EndSplineSet
EndChar
StartChar: uF2F52
Encoding: 995154 995154 19
Width: 1000
Flags: MW
LayerCount: 2
Fore
SplineSet
390 722 m 1xe0
 474 722 l 1xe0
 318 175 l 1
 251 175 l 1xd0
 377 671 l 1
 390 722 l 1xe0
207 0 m 1
 207 84 l 1
 291 84 l 1
 291 0 l 1
 207 0 l 1
709 722 m 1xe0
 793 722 l 1xe0
 637 175 l 1
 570 175 l 1xd0
 696 671 l 1
 709 722 l 1xe0
526 0 m 1
 526 84 l 1
 610 84 l 1
 610 0 l 1
 526 0 l 1
EndSplineSet
EndChar
StartChar: uF2F53
Encoding: 995155 995155 20
Width: 1000
VWidth: 0
Flags: MW
LayerCount: 2
Fore
SplineSet
299 722 m 1xe0
 383 722 l 1xe0
 228 175 l 1
 161 175 l 1xd0
 286 671 l 1
 299 722 l 1xe0
117 0 m 1
 117 84 l 1
 201 84 l 1
 201 0 l 1
 117 0 l 1
544 677 m 1
 591 705 647 730 714 733 c 0
 718 733 723 733 727 733 c 0
 886 733 894 636 877 571 c 0
 854 484 791 450 771 434 c 0
 653 343 628 246 620 215 c 2
 610 175 l 1
 543 175 l 1
 551 207 l 2
 606 414 728 476 762 508 c 0
 767 513 789 534 799 572 c 0
 820 652 770 672 713 672 c 0xd8
 643 672 591 642 550 614 c 1
 544 677 l 1
499 0 m 1
 499 84 l 1
 583 84 l 1
 583 0 l 1
 499 0 l 1
EndSplineSet
EndChar
StartChar: uF2F55
Encoding: 995157 995157 281
Width: 1000
Flags: MW
LayerCount: 2
Fore
SplineSet
107 786 m 0
 107 794 113 798 117 798 c 0
 128 798 143 779 148 773 c 2
 983 -70 l 2
 991 -79 992 -83 992 -86 c 0
 992 -92 989 -98 983 -98 c 0
 975 -98 967 -88 951 -71 c 2
 115 773 l 2
 112 776 107 782 107 786 c 0
7 686 m 0
 7 694 13 698 17 698 c 0
 28 698 43 679 48 673 c 2
 883 -170 l 2
 891 -179 892 -183 892 -186 c 0
 892 -192 889 -198 883 -198 c 0
 875 -198 867 -188 851 -171 c 2
 15 673 l 2
 12 676 7 682 7 686 c 0
EndSplineSet
EndChar
StartChar: uF2F57
Encoding: 995159 995159 313
Width: 1000
Flags: MW
LayerCount: 2
Fore
SplineSet
168 187 m 256
 168 200 174 207 186 207 c 2
 536 207 l 1
 448 362 l 1
 186 362 l 2
 174 362 168 369 168 382 c 256
 168 395 174 402 186 402 c 2
 424 402 l 1
 294 629 l 2
 289 637 286 644 286 649 c 0
 286 662 293 668 306 668 c 0
 313 668 321 662 328 649 c 2
 470 402 l 1
 814 402 l 2
 827 402 832 395 832 382 c 256
 832 369 827 362 814 362 c 2
 494 362 l 1
 584 207 l 1
 814 207 l 2
 827 207 832 200 832 187 c 256
 832 174 827 167 814 167 c 2
 606 167 l 1
 738 -60 l 2
 743 -69 744 -76 744 -81 c 0
 744 -94 737 -100 724 -100 c 0
 717 -100 709 -93 702 -80 c 2
 560 167 l 1
 186 167 l 2
 174 167 168 174 168 187 c 256
EndSplineSet
Colour: ff
EndChar
StartChar: uF2F59
Encoding: 995161 995161 315
Width: 1000
Flags: MW
LayerCount: 2
Fore
SplineSet
178 28 m 1
 211 66 289 128 353 128 c 0
 464 128 552 40 657 40 c 0
 705 40 779 82 805 108 c 1
 822 93 l 1
 790 54 708 -6 647 -6 c 0
 540 -6 438 81 343 81 c 0
 296 81 221 39 195 14 c 1
 178 28 l 1
197 400 m 1
 198 409 207 414 213 416 c 2
 768 624 l 2
 776 627 785 629 793 629 c 0
 798 629 803 625 803 619 c 0
 803 610 793 605 780 600 c 2
 312 426 l 2
 293 418 264 409 244 400 c 1
 264 391 293 381 312 374 c 2
 780 200 l 2
 799 193 803 189 803 181 c 0
 803 175 798 171 793 171 c 0
 785 171 776 172 768 176 c 2
 213 384 l 2
 207 386 198 391 197 400 c 1
EndSplineSet
Colour: ff
EndChar
StartChar: uF2F5A
Encoding: 995162 995162 316
Width: 1000
Flags: MW
LayerCount: 2
Fore
SplineSet
178 28 m 1
 211 66 289 128 353 128 c 0
 464 128 552 40 657 40 c 0
 705 40 779 82 805 108 c 1
 822 93 l 1
 790 54 708 -6 647 -6 c 0
 540 -6 438 81 343 81 c 0
 296 81 221 39 195 14 c 1
 178 28 l 1
196 181 m 0
 196 189 201 193 220 200 c 2
 698 379 l 2
 717 386 736 391 756 400 c 1
 736 409 717 413 698 421 c 2
 220 600 l 2
 209 604 196 610 196 619 c 0
 196 624 202 629 208 629 c 0
 216 629 224 627 232 624 c 2
 788 416 l 2
 793 414 804 409 804 400 c 0
 803 391 796 386 774 378 c 2
 232 176 l 2
 224 172 215 171 208 171 c 0
 202 171 196 175 196 181 c 0
EndSplineSet
Colour: ff
EndChar
StartChar: uF2F6F
Encoding: 995183 995183 21
Width: 1000
Flags: MW
LayerCount: 2
Fore
SplineSet
466 -200 m 1
 466 -49 478 151 529 349 c 0
 588 578 678 700 688 700 c 0
 694 700 698 695 698 682 c 0
 698 677 698 673 685 651 c 0
 562 426 534 113 534 -200 c 1
 466 -200 l 1
EndSplineSet
EndChar
StartChar: uF2F71
Encoding: 995185 995185 23
Width: 1000
Flags: MW
LayerCount: 2
Fore
SplineSet
466 -200 m 1
 466 176 419 463 321 641 c 0
 302 673 302 677 302 682 c 0
 302 693 306 700 312 700 c 0
 322 700 408 583 468 362 c 0
 523 159 534 -60 534 -200 c 1
 466 -200 l 1
EndSplineSet
EndChar
StartChar: uF2F72
Encoding: 995186 995186 24
Width: 1000
Flags: MW
LayerCount: 2
Fore
SplineSet
534 800 m 1
 534 649 522 449 471 251 c 0
 412 22 322 -100 312 -100 c 0
 306 -100 302 -93 302 -82 c 0
 302 -77 302 -73 315 -51 c 0
 439 176 466 492 466 800 c 1
 534 800 l 1
EndSplineSet
EndChar
StartChar: uF2F78
Encoding: 995192 995192 30
Width: 1000
Flags: MW
LayerCount: 2
Fore
SplineSet
466 -100 m 1
 466 800 l 1
 534 800 l 1
 534 -59 l 1
 767 -59 l 1
 767 -100 l 1
 466 -100 l 1
EndSplineSet
EndChar
StartChar: uF2F7A
Encoding: 995194 995194 32
Width: 1000
Flags: MW
LayerCount: 2
Fore
SplineSet
232 -100 m 1
 232 -59 l 1
 466 -59 l 1
 466 800 l 1
 534 800 l 1
 534 -100 l 1
 232 -100 l 1
EndSplineSet
EndChar
StartChar: uF2F7B
Encoding: 995195 995195 33
Width: 1000
Flags: MW
LayerCount: 2
Fore
SplineSet
100 334 m 1
 1000 334 l 1
 1000 266 l 1
 141 266 l 1
 141 33 l 1
 100 33 l 1
 100 334 l 1
EndSplineSet
EndChar
StartChar: uF2F81
Encoding: 995201 995201 39
Width: 1000
Flags: MW
LayerCount: 2
Fore
SplineSet
466 -200 m 1
 466 559 l 1
 232 659 l 1
 232 700 l 1
 534 575 l 1
 534 -200 l 1
 466 -200 l 1
EndSplineSet
EndChar
StartChar: uF2F84
Encoding: 995204 995204 42
Width: 1000
Flags: MW
LayerCount: 2
Fore
SplineSet
0 334 m 1
 775 334 l 1
 900 33 l 1
 859 33 l 1
 759 266 l 1
 0 266 l 1
 0 334 l 1
EndSplineSet
EndChar
StartChar: uF2F86
Encoding: 995206 995206 44
Width: 1000
Flags: MW
LayerCount: 2
Fore
SplineSet
0 334 m 1
 759 334 l 1
 859 568 l 1
 900 568 l 1
 775 266 l 1
 0 266 l 1
 0 334 l 1
EndSplineSet
EndChar
StartChar: uF2F92
Encoding: 995218 995218 320
Width: 1000
Flags: MW
LayerCount: 2
Fore
SplineSet
361 -100 m 1
 334 -76 320 -44 320 -3 c 0
 320 25 328 62 345 107 c 2
 455 406 l 1
 453 412 l 2
 444 439 435 466 426 492 c 0
 417 518 410 545 407 573 c 0
 406 588 400 596 389 596 c 0
 387 596 381 594 371 590 c 0
 356 583 343 580 332 580 c 0
 304 580 280 590 262 610 c 0
 244 630 235 654 235 683 c 0
 235 712 243 737 258 758 c 0
 275 779 298 790 328 789 c 0
 374 789 406 767 425 723 c 0
 434 702 437 670 436 627 c 0
 435 575 440 537 454 514 c 0
 468 491 484 477 502 473 c 1
 524 482 541 499 553 525 c 0
 563 547 568 571 567 597 c 2
 565 660 l 2
 564 692 570 718 581 739 c 0
 600 774 628 792 665 792 c 0
 696 792 721 782 739 761 c 0
 756 742 765 716 765 684 c 0
 765 657 756 634 738 614 c 0
 720 594 698 583 672 583 c 0
 661 583 650 585 636 590 c 0
 622 595 614 598 612 598 c 0
 601 598 595 585 594 560 c 0
 591 522 576 471 548 406 c 1
 661 104 l 2
 679 55 688 18 688 -7 c 0
 688 -40 674 -71 647 -100 c 1
 502 278 l 1
 361 -100 l 1
668 615 m 0
 689 615 705 623 718 639 c 0
 729 653 735 671 735 692 c 0
 735 711 729 727 716 740 c 0
 703 753 686 760 667 760 c 0
 647 760 630 751 617 734 c 0
 604 719 598 700 598 679 c 0
 598 659 605 643 618 632 c 0
 631 621 648 615 668 615 c 0
336 613 m 0
 355 613 371 620 384 632 c 0
 397 644 403 660 403 679 c 0
 403 701 395 720 380 735 c 0
 365 750 347 758 325 758 c 0
 307 758 292 750 281 735 c 0
 271 721 266 705 266 686 c 0
 266 665 272 648 285 634 c 0
 298 620 315 613 336 613 c 0
EndSplineSet
Colour: ff
EndChar
StartChar: uF2F97
Encoding: 995223 995223 284
Width: 1000
Flags: MW
LayerCount: 2
Fore
SplineSet
294 664 m 1
 498 72 l 1
 500 72 l 1
 704 664 l 1
 294 664 l 1
188 730 m 1
 246 730 l 1
 272 730 l 1
 726 730 l 1
 754 730 l 1
 812 730 l 1
 546 0 l 1
 456 0 l 1
 188 730 l 1
EndSplineSet
Colour: ff
EndChar
StartChar: uF2F98
Encoding: 995224 995224 322
Width: 1000
Flags: MW
LayerCount: 2
Fore
SplineSet
220 260 m 0
 220 337 247 403 302 458 c 0
 357 513 423 540 500 540 c 0
 570 540 633 517 684 472 c 1
 746 534 l 2
 750 538 757 537 760 534 c 2
 774 520 l 2
 778 516 777 509 774 506 c 2
 712 444 l 1
 758 392 780 330 780 260 c 0
 780 183 753 117 698 62 c 0
 643 7 577 -20 500 -20 c 0
 430 -20 367 3 316 48 c 1
 254 -14 l 2
 250 -18 243 -17 240 -14 c 2
 226 -0 l 2
 222 4 223 11 226 14 c 2
 288 76 l 1
 242 128 220 190 220 260 c 0
260 260 m 0
 260 201 279 150 316 106 c 1
 654 444 l 1
 609 482 559 500 500 500 c 0
 433 500 377 477 330 430 c 0
 283 383 260 327 260 260 c 0
346 76 m 1
 391 38 441 20 500 20 c 0
 567 20 623 43 670 90 c 0
 717 137 740 193 740 260 c 0
 740 319 721 370 684 414 c 1
 346 76 l 1
EndSplineSet
Colour: ff
EndChar
StartChar: uF2F99
Encoding: 995225 995225 323
Width: 1000
Flags: MW
LayerCount: 2
Fore
SplineSet
838 -35 m 2
 838 -48 832 -54 819 -54 c 2
 181 -54 l 2
 168 -54 162 -48 162 -35 c 2
 162 604 l 2
 162 616 168 622 181 623 c 2
 819 623 l 2
 831 623 837 617 838 604 c 2
 838 -35 l 2
798 -14 m 1
 798 583 l 1
 202 583 l 1
 202 -14 l 1
 798 -14 l 1
741 63 m 0
 741 50 734 43 721 43 c 0
 716 43 711 45 706 50 c 2
 500 256 l 1
 293 50 l 2
 288 45 283 43 278 43 c 0
 265 43 258 50 258 63 c 0
 258 69 260 74 263 77 c 2
 471 284 l 1
 263 492 l 2
 260 495 258 500 258 505 c 0
 258 518 265 525 278 525 c 0
 284 525 289 523 293 519 c 2
 500 312 l 1
 706 519 l 2
 710 523 715 525 721 525 c 0
 734 525 741 518 741 505 c 0
 741 500 739 495 736 492 c 2
 528 284 l 1
 736 77 l 2
 739 74 741 69 741 63 c 0
EndSplineSet
Colour: ff
EndChar
StartChar: uF2F9C
Encoding: 995228 995228 326
Width: 1000
Flags: MW
LayerCount: 2
Fore
SplineSet
125 290 m 0
 125 393 162 482 235 555 c 0
 308 628 397 665 500 665 c 0
 603 665 692 628 765 555 c 0
 838 482 875 393 875 290 c 0
 875 187 838 98 765 25 c 0
 692 -48 603 -85 500 -85 c 0
 397 -85 308 -48 235 25 c 0
 162 98 125 187 125 290 c 0
165 270 m 1
 170 185 202 114 263 53 c 0
 324 -8 397 -40 480 -45 c 1
 480 270 l 1
 165 270 l 1
165 310 m 1
 480 310 l 1
 480 625 l 1
 395 620 324 588 263 527 c 0
 202 466 170 393 165 310 c 1
520 -45 m 1
 605 -40 676 -8 737 53 c 0
 798 114 830 187 835 270 c 1
 520 270 l 1
 520 -45 l 1
520 310 m 1
 835 310 l 1
 830 395 798 466 737 527 c 0
 676 588 603 620 520 625 c 1
 520 310 l 1
EndSplineSet
Colour: ff
EndChar
StartChar: uF2F9D
Encoding: 995229 995229 327
Width: 1000
Flags: MW
LayerCount: 2
Fore
SplineSet
852 284 m 0
 852 187 819 103 750 34 c 0
 681 -35 597 -69 500 -69 c 256
 403 -69 320 -34 251 35 c 0
 182 104 148 187 148 284 c 0
 148 381 182 465 251 534 c 0
 320 603 403 637 500 637 c 0
 597 637 681 603 750 534 c 0
 819 465 852 381 852 284 c 0
812 284 m 0
 812 363 787 432 736 491 c 1
 528 284 l 1
 736 79 l 1
 787 138 812 206 812 284 c 0
706 519 m 1
 647 571 579 597 500 597 c 0
 421 597 353 571 294 519 c 1
 500 312 l 1
 706 519 l 1
472 284 m 1
 266 490 l 1
 214 431 188 363 188 284 c 0
 188 206 213 138 264 79 c 1
 472 284 l 1
708 50 m 1
 706 50 l 1
 500 256 l 1
 294 50 l 1
 353 -3 421 -29 500 -29 c 0
 579 -29 649 -3 708 50 c 1
EndSplineSet
Colour: ff
EndChar
StartChar: uF2F9E
Encoding: 995230 995230 328
Width: 1000
Flags: MW
LayerCount: 2
Fore
SplineSet
125 -75 m 2
 125 655 l 2
 125 661 131 665 135 665 c 2
 865 665 l 2
 871 665 875 659 875 655 c 2
 875 -75 l 2
 875 -81 869 -85 865 -85 c 2
 135 -85 l 2
 129 -85 125 -79 125 -75 c 2
165 -45 m 1
 480 -45 l 1
 480 270 l 1
 165 270 l 1
 165 -45 l 1
165 310 m 1
 480 310 l 1
 480 625 l 1
 165 625 l 1
 165 310 l 1
520 -45 m 1
 835 -45 l 1
 835 270 l 1
 520 270 l 1
 520 -45 l 1
520 310 m 1
 835 310 l 1
 835 625 l 1
 520 625 l 1
 520 310 l 1
EndSplineSet
Colour: ff
EndChar
StartChar: uF2F9F
Encoding: 995231 995231 329
Width: 1000
Flags: MW
LayerCount: 2
Fore
SplineSet
922 284 m 0
 922 168 883 67 800 -16 c 0
 717 -99 616 -140 500 -140 c 256
 384 -140 284 -98 201 -15 c 0
 118 68 78 168 78 284 c 0
 78 400 118 501 201 584 c 0
 284 667 384 708 500 708 c 0
 616 708 717 667 800 584 c 0
 883 501 922 400 922 284 c 0
886 302 m 1
 880 402 843 486 772 557 c 0
 701 628 616 665 518 671 c 1
 518 302 l 1
 886 302 l 1
482 302 m 1
 482 671 l 1
 382 665 299 628 228 557 c 0
 157 486 120 402 114 302 c 1
 482 302 l 1
886 266 m 1
 518 266 l 1
 518 -102 l 1
 616 -96 701 -59 772 12 c 0
 843 83 880 168 886 266 c 1
482 -102 m 1
 482 266 l 1
 114 266 l 1
 120 168 159 85 230 14 c 0
 301 -57 384 -96 482 -102 c 1
EndSplineSet
Colour: ff
EndChar
StartChar: uF2FA2
Encoding: 995234 995234 330
Width: 1000
VWidth: 940
Flags: MW
LayerCount: 2
Fore
SplineSet
844 -145 m 1
 65 305 l 1
 845 756 l 1
 844 -145 l 1
EndSplineSet
Colour: ff
EndChar
StartChar: uF2FA3
Encoding: 995235 995235 291
Width: 1000
VWidth: 940
Flags: MW
LayerCount: 2
Fore
SplineSet
156 -145 m 1
 155 756 l 1
 935 305 l 1
 156 -145 l 1
EndSplineSet
Colour: ff
EndChar
StartChar: uF2FA4
Encoding: 995236 995236 293
Width: 1000
Flags: MW
LayerCount: 2
Fore
SplineSet
357 451 m 1
 134 300 l 1
 357 148 l 1
 357 275 l 1
 880 275 l 1
 880 325 l 1
 357 325 l 1
 357 451 l 1
397 365 m 1
 920 365 l 1
 920 235 l 1
 397 235 l 1
 397 72 l 1
 62 300 l 1
 397 527 l 1
 397 365 l 1
EndSplineSet
Colour: 8080ff
EndChar
StartChar: uF2FA5
Encoding: 995237 995237 333
Width: 1000
Flags: MW
LayerCount: 2
Fore
SplineSet
902 361 m 1
 652 111 l 1
 652 297 l 1
 110 297 l 1
 110 425 l 1
 652 425 l 5
 652 611 l 1
 902 361 l 1
842 361 m 1
 694 509 l 1
 694 383 l 1
 152 383 l 1
 152 339 l 1
 694 339 l 1
 694 213 l 1
 842 361 l 1
EndSplineSet
Colour: ff
EndChar
StartChar: uF2FA8
Encoding: 995240 995240 336
Width: 1000
Flags: MW
LayerCount: 2
Fore
SplineSet
943 187 m 256
 943 174 937 167 925 167 c 2
 319 167 l 1
 334 153 353 129 378 95 c 0
 406 56 420 31 420 20 c 0
 420 13 416 10 409 9 c 9
 402 9 398 9 391 9 c 16
 388 9 385 11 382 15 c 0
 358 61 332 100 303 131 c 0
 246 193 178 237 99 264 c 0
 91 266 79 269 64 274 c 0
 59 275 56 279 57 284 c 256
 57 289 59 292 64 295 c 0
 72 297 83 300 98 305 c 0
 154 323 205 351 251 389 c 0
 303 430 347 485 382 553 c 0
 384 557 394 559 411 559 c 0
 418 559 421 555 420 548 c 0
 420 537 406 512 378 474 c 0
 353 441 334 416 319 401 c 1
 925 401 l 2
 937 401 943 394 943 381 c 256
 943 368 937 361 925 361 c 2
 275 361 l 1
 236 329 193 303 147 284 c 1
 193 265 236 239 275 207 c 1
 925 207 l 2
 937 207 943 200 943 187 c 256
EndSplineSet
Colour: ff
EndChar
StartChar: uF2FAA
Encoding: 995242 995242 291
Width: 1000
Flags: MW
LayerCount: 2
Fore
SplineSet
249 537 m 2
 263 551 l 2
 267 555 274 554 277 551 c 2
 724 104 l 1
 718 210 l 1
 707 386 l 2
 707 392 713 397 717 397 c 2
 737 398 l 2
 743 398 747 394 747 389 c 2
 757 218 l 1
 768 43 l 2
 768 37 762 32 757 32 c 2
 583 43 l 1
 411 53 l 2
 405 53 402 58 402 63 c 2
 403 83 l 2
 403 89 410 93 414 93 c 2
 586 82 l 1
 696 76 l 1
 249 523 l 2
 245 527 246 534 249 537 c 2
EndSplineSet
Colour: ff
EndChar
StartChar: uF2FAB
Encoding: 995243 995243 294
Width: 1000
VWidth: 940
Flags: MW
LayerCount: 2
Fore
SplineSet
737 551 m 2
 751 537 l 2
 755 533 754 526 751 523 c 2
 304 76 l 1
 410 82 l 1
 586 93 l 2
 592 93 597 87 597 83 c 2
 598 63 l 2
 598 57 594 53 589 53 c 2
 418 43 l 1
 243 32 l 2
 237 32 232 38 232 43 c 2
 243 217 l 1
 253 389 l 2
 253 395 258 398 263 398 c 2
 283 397 l 2
 289 397 293 390 293 386 c 2
 282 214 l 1
 276 104 l 1
 723 551 l 2
 727 555 734 554 737 551 c 2
EndSplineSet
Colour: ff
EndChar
StartChar: uF2FAD
Encoding: 995245 995245 296
Width: 1000
VWidth: 940
Flags: MW
LayerCount: 2
Fore
SplineSet
270 56 m 2
 256 70 l 2
 252 74 253 81 256 84 c 2
 703 531 l 1
 597 525 l 1
 421 514 l 2
 415 514 410 520 410 524 c 2
 409 544 l 2
 409 550 413 554 418 554 c 2
 589 564 l 1
 764 575 l 2
 770 575 775 569 775 564 c 2
 764 390 l 1
 754 218 l 2
 754 212 749 209 744 209 c 2
 724 210 l 2
 718 210 714 217 714 221 c 2
 725 393 l 1
 731 503 l 1
 284 56 l 2
 280 52 273 53 270 56 c 2
EndSplineSet
Colour: ff
EndChar
StartChar: uF2FAE
Encoding: 995246 995246 342
Width: 1000
Flags: MW
LayerCount: 2
Fore
SplineSet
944 382 m 0
 944 369 932 362 910 362 c 2
 76 362 l 2
 63 362 56 369 56 382 c 256
 56 395 63 402 76 402 c 2
 834 402 l 1
 763 454 717 524 694 613 c 0
 692 622 690 628 690 630 c 0
 690 639 697 644 708 644 c 0
 721 644 727 641 730 634 c 0
 731 629 734 621 736 611 c 0
 747 565 768 523 800 485 c 0
 832 447 871 419 914 402 c 0
 934 394 944 387 944 382 c 0
944 187 m 256
 944 174 937 167 924 167 c 2
 166 167 l 1
 239 114 285 43 306 -44 c 0
 308 -54 310 -60 310 -62 c 0
 310 -71 302 -76 286 -75 c 0
 278 -75 273 -72 270 -65 c 0
 269 -60 266 -52 264 -42 c 0
 252 5 231 47 200 84 c 0
 169 121 130 148 86 167 c 0
 77 170 77 170 68 173 c 0
 60 176 56 181 56 187 c 0
 56 200 68 207 90 207 c 2
 924 207 l 2
 937 207 944 200 944 187 c 256
EndSplineSet
Colour: ff
EndChar
StartChar: uF2FAF
Encoding: 995247 995247 296
Width: 1000
Flags: MW
LayerCount: 2
Fore
SplineSet
160 185 m 2
 160 205 l 2
 160 211 166 215 170 215 c 2
 862.3046875 215 l 1
 877 202 l 2
 882 198 881 192 877 188 c 2
 617 -42 l 2
 612 -46 605 -45 602 -42 c 2
 589 -27 l 2
 585 -23 586 -16 590 -13 c 2
 803 175 l 1
 170 175 l 2
 164 175 160 181 160 185 c 2
137.6953125 395 m 1
 123 408 l 2
 118 412 119 418 123 422 c 2
 383 652 l 2
 388 656 395 655 398 652 c 2
 411 637 l 2
 415 633 414 626 410 623 c 2
 197 435 l 1
 830 435 l 2
 836 435 840 429 840 425 c 2
 840 405 l 2
 840 399 833.999023438 395 830 395 c 2
 137.6953125 395 l 1
EndSplineSet
Colour: ff
EndChar
StartChar: uF2FB1
Encoding: 995249 995249 306
Width: 1000
Flags: MW
LayerCount: 2
Fore
SplineSet
889 459 m 5
 745 459 l 5
 745 -120 l 5
 655 -120 l 5
 655 459 l 5
 510 459 l 1
 700 738 l 1
 889 459 l 5
111 141 m 5
 255 141 l 5
 255 720 l 5
 345 720 l 5
 345 141 l 5
 490 141 l 1
 300 -138 l 1
 111 141 l 5
EndSplineSet
Colour: 8080ff
EndChar
StartChar: uF2FB2
Encoding: 995250 995250 307
Width: 1000
Flags: MW
LayerCount: 2
Fore
SplineSet
341 489 m 5
 341 345 l 5
 920 345 l 5
 920 255 l 5
 341 255 l 5
 341 110 l 1
 62 300 l 1
 341 489 l 5
EndSplineSet
Colour: 8080ff
EndChar
StartChar: uF2FB6
Encoding: 995254 995254 350
Width: 1000
Flags: MW
LayerCount: 2
Fore
SplineSet
944 284 m 0
 944 279 941 276 936 274 c 0
 928 271 928 271 912 265 c 0
 851 238 804 195 770 136 c 0
 756 112 742 77 730 32 c 0
 729 30 728 28 726 26 c 0
 724 24 715 23 700 23 c 0
 693 23 690 27 690 36 c 0
 690 37 691 43 694 54 c 0
 715 143 762 213 834 264 c 1
 166 264 l 1
 240 211 286 141 306 53 c 0
 308 43 310 37 310 36 c 0
 310 28 307 24 300 23 c 9
 292 23 288 23 280 23 c 16
 275 23 272 26 270 32 c 0
 269 37 267 44 264 54 c 0
 251 102 231 144 200 181 c 0
 165 222 119 253 64 274 c 0
 59 276 56 279 56 284 c 0
 56 289 67 295 86 304 c 0
 131 323 169 352 200 388 c 0
 231 424 252 466 264 515 c 0
 265 520 267 527 270 536 c 0
 271 542 275 545 282 546 c 9
 289 546 293 545 300 545 c 16
 307 545 310 541 310 532 c 0
 310 531 308 525 306 515 c 0
 287 428 241 358 166 304 c 1
 834 304 l 1
 784 340 745 387 718 445 c 0
 699 484 690 513 690 532 c 0
 690 540 693 544 700 545 c 9
 708 545 712 545 720 545 c 16
 725 545 728 542 730 536 c 0
 746 474 770 425 801 388 c 0
 832 351 868 324 910 306 c 0
 916 304 925 300 936 295 c 0
 941 292 944 289 944 284 c 0
EndSplineSet
Colour: ff
EndChar
StartChar: uF2FBC
Encoding: 995260 995260 47
Width: 1000
Flags: MW
LayerCount: 2
Fore
SplineSet
866 150 m 1
 866 450 l 1
 934 450 l 1
 934 150 l 1
 866 150 l 1
666 150 m 1
 666 450 l 1
 734 450 l 1
 734 150 l 1
 666 150 l 1
466 150 m 1
 466 450 l 1
 534 450 l 1
 534 150 l 1
 466 150 l 1
266 150 m 1
 266 450 l 1
 334 450 l 1
 334 150 l 1
 266 150 l 1
66 150 m 1
 66 450 l 1
 134 450 l 1
 134 150 l 1
 66 150 l 1
EndSplineSet
EndChar
StartChar: uF2FC2
Encoding: 995266 995266 53
Width: 1000
Flags: MW
LayerCount: 2
Fore
SplineSet
928 150 m 5
 804 450 l 5
 872 450 l 5
 996 150 l 5
 928 150 l 5
728 150 m 5
 604 450 l 5
 672 450 l 5
 796 150 l 5
 728 150 l 5
528 150 m 5
 404 450 l 5
 472 450 l 5
 596 150 l 5
 528 150 l 5
328 150 m 5
 204 450 l 5
 272 450 l 5
 396 150 l 5
 328 150 l 5
128 150 m 5
 4 450 l 5
 72 450 l 5
 196 150 l 5
 128 150 l 5
EndSplineSet
EndChar
StartChar: uF2FCA
Encoding: 995274 995274 342
Width: 1000
Flags: W
LayerCount: 2
Fore
SplineSet
453 -13 m 1
 182 258 l 1
 182 -13 l 1
 453 -13 l 1
818 258 m 1
 547 -13 l 1
 818 -13 l 1
 818 258 l 1
547 623 m 1
 818 352 l 1
 818 623 l 1
 547 623 l 1
453 623 m 1
 182 623 l 1
 182 352 l 1
 453 623 l 1
865 -60 m 1
 135 -60 l 1
 135 670 l 1
 865 670 l 1
 865 -60 l 1
365 440 m 1
 365 170 l 1
 635 170 l 1
 635 440 l 1
 365 440 l 1
EndSplineSet
Colour: ff
EndChar
StartChar: uF2FCB
Encoding: 995275 995275 332
Width: 1000
Flags: W
LayerCount: 2
Fore
SplineSet
432 373 m 1
 432 237 l 1
 568 237 l 1
 568 373 l 1
 432 373 l 1
615 190 m 1
 385 190 l 1
 385 420 l 1
 615 420 l 1
 615 190 l 1
182 623 m 1
 182 -13 l 1
 818 -13 l 1
 818 623 l 1
 182 623 l 1
865 -60 m 1
 135 -60 l 1
 135 670 l 1
 865 670 l 1
 865 -60 l 1
312 493 m 1
 312 117 l 1
 688 117 l 1
 688 493 l 1
 312 493 l 1
735 70 m 1
 265 70 l 1
 265 540 l 1
 735 540 l 1
 735 70 l 1
EndSplineSet
Colour: ff
EndChar
StartChar: uF2FCD
Encoding: 995277 995277 336
Width: 1000
Flags: W
LayerCount: 2
Fore
SplineSet
682 122 m 1
 318 122 l 1
 318 488 l 1
 682 488 l 1
 682 122 l 1
636 169 m 1
 636 441 l 1
 364 441 l 1
 364 169 l 1
 636 169 l 1
EndSplineSet
Colour: ff
EndChar
StartChar: uF2FCF
Encoding: 995279 995279 339
Width: 1000
Flags: W
LayerCount: 2
Fore
SplineSet
318 122 m 1
 318 488 l 1
 682 488 l 1
 682 122 l 1
 318 122 l 1
EndSplineSet
Colour: ff
EndChar
StartChar: uF2FD0
Encoding: 995280 995280 332
Width: 1000
Flags: W
LayerCount: 2
Fore
SplineSet
417 388 m 1
 182 388 l 1
 182 222 l 1
 417 222 l 1
 417 -13 l 1
 583 -13 l 1
 583 222 l 1
 818 222 l 1
 818 388 l 1
 583 388 l 1
 583 623 l 1
 417 623 l 1
 417 388 l 1
370 435 m 1
 370 670 l 1
 630 670 l 1
 630 435 l 1
 865 435 l 1
 865 175 l 1
 630 175 l 1
 630 -60 l 1
 370 -60 l 1
 370 175 l 1
 135 175 l 1
 135 435 l 1
 370 435 l 1
EndSplineSet
Colour: ff
EndChar
StartChar: uF2FD1
Encoding: 995281 995281 338
Width: 1000
Flags: W
LayerCount: 2
Fore
SplineSet
370 435 m 1
 370 670 l 1
 630 670 l 1
 630 435 l 1
 865 435 l 1
 865 175 l 1
 630 175 l 1
 630 -60 l 1
 370 -60 l 1
 370 175 l 1
 135 175 l 1
 135 435 l 1
 370 435 l 1
EndSplineSet
Colour: ff
EndChar
StartChar: uF2FD2
Encoding: 995282 995282 339
Width: 1000
Flags: W
LayerCount: 2
Fore
SplineSet
500 -165 m 1
 30 305 l 1
 500 775 l 1
 970 305 l 1
 500 -165 l 1
669 540 m 1
 500 709 l 1
 331 540 l 1
 669 540 l 1
735 474 m 1
 735 136 l 1
 904 305 l 1
 735 474 l 1
669 70 m 1
 331 70 l 1
 500 -99 l 1
 669 70 l 1
265 136 m 1
 265 474 l 1
 96 305 l 1
 265 136 l 1
EndSplineSet
Colour: ff
EndChar
StartChar: uF2FD7
Encoding: 995287 995287 339
Width: 1000
Flags: W
LayerCount: 2
Fore
SplineSet
500 574 m 1
 231 305 l 1
 500 36 l 1
 769 305 l 1
 500 574 l 1
500 -30 m 1
 165 305 l 1
 500 640 l 1
 835 305 l 1
 500 -30 l 1
EndSplineSet
Colour: ff
EndChar
StartChar: uF2FDA
Encoding: 995290 995290 358
Width: 1000
Flags: W
LayerCount: 2
Fore
SplineSet
500 70 m 1
 265 305 l 1
 500 540 l 1
 735 305 l 1
 500 70 l 1
EndSplineSet
Colour: ff
EndChar
StartChar: uF2FDD
Encoding: 995293 995293 353
Width: 1000
Flags: W
LayerCount: 2
Fore
SplineSet
500 107 m 128
 554.666992188 107 601.333007812 126.333007812 640 165 c 128
 678.666992188 203.666992188 698 250.333007812 698 305 c 128
 698 359.666992188 678.666992188 406.333007812 640 445 c 128
 601.333007812 483.666992188 554.666992188 503 500 503 c 128
 445.333007812 503 398.666992188 483.666992188 360 445 c 128
 321.333007812 406.333007812 302 359.666992188 302 305 c 128
 302 250.333007812 321.333007812 203.666992188 360 165 c 128
 398.666992188 126.333007812 445.333007812 107 500 107 c 128
500 60 m 128
 432.666992188 60 375 84 327 132 c 128
 279 180 255 237.666992188 255 305 c 128
 255 372.333007812 279 430 327 478 c 128
 375 526 432.666992188 550 500 550 c 128
 567.333007812 550 625 526 673 478 c 128
 721 430 745 372.333007812 745 305 c 128
 745 237.666992188 721 180 673 132 c 128
 625 84 567.333007812 60 500 60 c 128
EndSplineSet
Colour: ff
EndChar
StartChar: uF2FDE
Encoding: 995294 995294 362
Width: 1000
Flags: W
LayerCount: 2
Fore
SplineSet
500 197 m 128
 470 197 444 207 423 228 c 128
 402 249 392 275 392 305 c 128
 392 335 402 361 423 382 c 128
 444 403 470 413 500 413 c 128
 530 413 555 403 576 382 c 128
 597 361 608 335 608 305 c 128
 608 275 597 249 576 228 c 128
 555 207 530 197 500 197 c 128
500 230 m 128
 521 230 537 237 552 252 c 128
 567 267 574 284 574 305 c 128
 574 326 567 343 552 358 c 128
 537 373 521 380 500 380 c 128
 479 380 461 373 446 358 c 128
 431 343 424 326 424 305 c 128
 424 284 431 267 446 252 c 128
 461 237 479 230 500 230 c 128
EndSplineSet
Colour: ff
EndChar
StartChar: uF2FE0
Encoding: 995296 995296 353
Width: 1000
Flags: W
LayerCount: 2
Fore
SplineSet
500 197 m 128
 470 197 444 207 423 228 c 128
 402 249 392 275 392 305 c 128
 392 335 402 361 423 382 c 128
 444 403 470 413 500 413 c 128
 530 413 555 403 576 382 c 128
 597 361 608 335 608 305 c 128
 608 275 597 249 576 228 c 128
 555 207 530 197 500 197 c 128
EndSplineSet
Colour: ff
EndChar
StartChar: uF2FE1
Encoding: 995297 995297 354
Width: 1000
Flags: W
LayerCount: 2
Fore
SplineSet
500 171 m 1
 365 36 l 1
 500 -99 l 1
 635 36 l 1
 500 171 l 1
500 -165 m 1
 299 36 l 1
 500 237 l 1
 701 36 l 1
 500 -165 l 1
769 440 m 1
 634 305 l 1
 769 170 l 1
 904 305 l 1
 769 440 l 1
769 104 m 1
 568 305 l 1
 769 506 l 1
 970 305 l 1
 769 104 l 1
231 440 m 1
 96 305 l 1
 231 170 l 1
 366 305 l 1
 231 440 l 1
231 104 m 1
 30 305 l 1
 231 506 l 1
 432 305 l 1
 231 104 l 1
500 709 m 1
 365 574 l 1
 500 439 l 1
 635 574 l 1
 500 709 l 1
500 373 m 1
 299 574 l 1
 500 775 l 1
 701 574 l 1
 500 373 l 1
EndSplineSet
Colour: ff
EndChar
StartChar: uF2FE2
Encoding: 995298 995298 366
Width: 1000
Flags: W
LayerCount: 2
Fore
SplineSet
500 709 m 1
 387 596 l 1
 500 484 l 1
 613 596 l 1
 500 709 l 1
500 -166 m 1
 321 13 l 1
 467 159 l 1
 354.406162465 271.593837535 l 1
 209 127 l 1
 30 305 l 1
 209 484 l 1
 354.5 338.5 l 1
 466.907563025 450.907563025 l 1
 321 596 l 1
 500 775 l 1
 679 596 l 1
 533.092436975 450.907563025 l 1
 645.5 338.5 l 1
 791 484 l 1
 970 305 l 1
 791 127 l 1
 645.593837535 271.593837535 l 1
 533 159 l 1
 679 13 l 1
 500 -166 l 1
209 418 m 1
 96 305 l 1
 209 193 l 1
 322 305 l 1
 209 418 l 1
500 418 m 1
 387 305 l 1
 500 192 l 1
 613 305 l 1
 500 418 l 1
500 126 m 1
 387 13 l 1
 500 -100 l 1
 613 13 l 1
 500 126 l 1
791 193 m 1
 904 305 l 1
 791 418 l 1
 678 305 l 1
 791 193 l 1
EndSplineSet
Colour: ff
EndChar
StartChar: uF2FE3
Encoding: 995299 995299 359
Width: 1000
Flags: W
LayerCount: 2
Fore
SplineSet
500 -165 m 1
 299 36 l 1
 500 237 l 1
 701 36 l 1
 500 -165 l 1
769 104 m 1
 568 305 l 1
 769 506 l 1
 970 305 l 1
 769 104 l 1
231 104 m 1
 30 305 l 1
 231 506 l 1
 432 305 l 1
 231 104 l 1
500 373 m 1
 299 574 l 1
 500 775 l 1
 701 574 l 1
 500 373 l 1
EndSplineSet
Colour: ff
EndChar
StartChar: uF3F47
Encoding: 999239 999239 335
Width: 1000
Flags: W
LayerCount: 2
Fore
SplineSet
326 88 m 1
 326 670 l 1
 370 670 l 1
 370 466 l 1
 674 542 l 1
 674 -60 l 1
 630 -60 l 1
 630 164 l 1
 326 88 l 1
370 186 m 1
 630 251 l 1
 630 444 l 1
 370 379 l 1
 370 186 l 1
EndSplineSet
Colour: ff
EndChar
StartChar: uF3F48
Encoding: 999240 999240 320
Width: 1000
Flags: W
LayerCount: 2
Fore
SplineSet
140 0 m 0
 140 33 153 60 179 82 c 128
 205 104 239 115 280 115 c 0
 307 115 332 108 355 95 c 1
 357 97 l 1
 357 630 l 1
 860 730 l 1
 860 160 l 2
 860 113 847 76 820 50 c 128
 793 24 757 10 710 10 c 0
 678 10 652 19 631 36 c 128
 610 53 600 74 600 100 c 0
 600 133 613 160 639 182 c 128
 665 204 699 215 740 215 c 0
 767 215 792 208 815 195 c 1
 817 197 l 1
 817 581 l 1
 400 499 l 1
 400 60 l 2
 400 13 387 -24 360 -50 c 128
 333 -76 297 -90 250 -90 c 0
 218 -90 192 -81 171 -64 c 128
 150 -47 140 -26 140 0 c 0
EndSplineSet
Colour: ff
EndChar
StartChar: uF3F6A
Encoding: 999274 999274 228
Width: 1000
Flags: MW
LayerCount: 2
Fore
SplineSet
500 744 m 1
 846 544 l 1
 924 -113 l 1
 76 -113 l 1
 154 544 l 1
 500 744 l 1
EndSplineSet
Colour: ff
EndChar
StartChar: uF3F94
Encoding: 999316 999316 231
Width: 1000
VWidth: 940
Flags: MW
LayerCount: 2
Fore
SplineSet
500 -90 m 0
 391 -90 297 -51 220 26 c 0
 143 103 105 196 105 305 c 0
 105 414 143 507 220 584 c 0
 297 661 391 700 500 700 c 0
 609 700 703 661 780 584 c 0
 857 507 895 414 895 305 c 0
 895 196 857 103 780 26 c 0
 703 -51 609 -90 500 -90 c 0
848 305 m 17
 848 401 814 483 746 551 c 0
 678 619 596 653 500 653 c 0
 404 653 322 619 254 551 c 0
 186 483 152 401 152 305 c 9
 848 305 l 17
EndSplineSet
Colour: ff
EndChar
StartChar: uF3FB9
Encoding: 999353 999353 158
Width: 1000
Flags: MW
LayerCount: 2
Fore
SplineSet
324 800 m 9
 421 800 l 1
 452 782 474 756 487 738 c 0
 535 666 535 582 535 530 c 2
 535 72 l 2
 535 52 535 34 537 14 c 0
 545 -90 594 -154 638 -170 c 0
 662 -180 676 -172 676 -200 c 1
 584 -200 l 1
 467 -138 465 8 465 70 c 2
 465 544 l 2
 465 590 460 710 380 762 c 0
 348 783 324 770 324 800 c 9
EndSplineSet
EndChar
StartChar: uF3FBF
Encoding: 999359 999359 356
Width: 1000
Flags: MW
LayerCount: 2
Fore
SplineSet
785 237 m 1
 971 -85 l 2
 973 -88 974 -93 974 -96 c 0
 974 -108 964 -118 952 -118 c 2
 678 -118 l 1
 728 -201 l 1
 507 -96 l 1
 728 9 l 1
 678 -74 l 1
 914 -74 l 1
 747 215 l 1
 785 237 l 1
507 709 m 0
 508 709 l 0
 515 709 524 704 527 698 c 2
 664 461 l 1
 711 546 l 1
 730 303 l 1
 529 441 l 1
 626 439 l 1
 508 644 l 1
 341 355 l 1
 303 376 l 1
 489 698 l 2
 492 704 500 709 507 709 c 0
166 159 m 1
 69 157 l 1
 270 296 l 1
 251 52 l 1
 204 137 l 1
 86 -67 l 1
 420 -67 l 1
 420 -111 l 1
 48 -111 l 2
 36 -111 26 -101 26 -89 c 0
 26 -86 27 -81 29 -78 c 2
 166 159 l 1
353 33 m 5
 382 69 l 5
 385 65 389 62 393 59 c 4
 404 50 418 44 432 39 c 4
 452 33 473 30 487 30 c 4
 512 30 534 36 548 48 c 4
 561 58 566 74 566 95 c 5
 566 97 566 105 566 107 c 5
 564 125 559 139 548 148 c 4
 538 156 524 160 510 160 c 4
 459 160 440 127 440 127 c 5
 382 127 l 5
 382 305 l 5
 623 305 l 5
 623 263 l 5
 451 263 l 5
 451 188 l 5
 469 195 485 200 513 200 c 4
 549 200 581 192 605 178 c 4
 631 162 647 130 647 94 c 4
 647 60 630 34 603 16 c 4
 573 -4 532 -12 489 -12 c 4
 461 -12 436 -9 414 -1 c 4
 384 8 364 23 353 33 c 5
EndSplineSet
EndChar
StartChar: uF3FC1
Encoding: 999361 999361 319
Width: 1000
VWidth: 1050
Flags: MW
LayerCount: 2
Fore
SplineSet
352 304 m 1
 352 356 l 1
 648 356 l 1
 648 306 l 1
 551 230 499 141 499 43 c 1
 422 43 l 1
 422 140 477 227 598 304 c 1
 352 304 l 1
895 115 m 2
 914 84 924 50 924 19 c 0
 924 -45 881 -99 780 -99 c 2
 622 -100 l 1
 624 -144 l 1
 563 -67 l 1
 624 9 l 1
 622 -40 l 1
 770 -40 l 2
 836 -40 867 -16 867 20 c 0
 867 36 861 54 849 74 c 2
 709 304 l 1
 760 336 l 1
 895 115 l 2
238 279 m 1
 272 188 l 1
 232 214 l 1
 151 76 l 1
 137 51 130 30 130 13 c 0
 130 -23 163 -40 229 -40 c 2
 490 -40 l 1
 490 -100 l 1
 220 -100 l 2
 117 -100 71 -51 71 13 c 0
 71 45 83 80 104 115 c 2
 180 243 l 1
 138 266 l 1
 238 279 l 1
500 685 m 24
 560 685 591 632 615 594 c 2
 697 457 l 1
 742 484 l 1
 701 391 l 1
 599 404 l 1
 645 428 l 1
 568 556 l 2
 554 578 533 625 500 625 c 24
 466 625 445 578 431 556 c 2
 301 331 l 1
 248 360 l 1
 385 595 l 2
 409 633 439 685 500 685 c 24
EndSplineSet
EndChar
StartChar: uF3FC5
Encoding: 999365 999365 156
Width: 1000
Flags: MW
LayerCount: 2
Fore
SplineSet
762 46 m 2
 743 14 662 1 608 1 c 1
 608 -47 l 1
 485 87 l 1
 608 225 l 1
 608 177 l 1
 837 175 l 1
 762 46 l 2
293 175 m 1
 481 175 l 1
 481 -1 l 1
 347 -1 l 2
 285 -1 254 34 254 76 c 0
 254 94 259 112 269 131 c 2
 293 175 l 1
146 297 m 2
 184 365 l 1
 144 389 l 1
 322 426 l 1
 381 253 l 1
 338 276 l 1
 223 74 l 1
 147 205 l 2
 140 218 137 235 137 253 c 0
 137 270 140 287 146 297 c 2
716 187 m 1
 621 348 l 1
 773 436 l 1
 860 288 l 2
 868 274 872 260 872 246 c 0
 872 214 849 187 803 187 c 2
 716 187 l 1
314 589 m 2
 332 622 361 638 390 638 c 0
 418 638 447 623 466 592 c 2
 493 547 l 1
 400 387 l 25
 248 475 l 1
 314 589 l 2
593 659 m 2
 635 659 662 632 674 613 c 2
 714 548 l 25
 758 572 l 25
 699 395 l 1
 521 436 l 1
 558 458 l 1
 442 659 l 1
 593 659 l 2
25 305 m 0
 25 370 37 432 62 490 c 0
 87 548 121 598 164 641 c 0
 207 684 258 717 316 742 c 0
 374 767 435 780 500 780 c 0
 565 780 626 767 684 742 c 0
 742 717 793 684 836 641 c 0
 879 598 913 548 938 490 c 0
 963 432 975 370 975 305 c 0
 975 240 963 178 938 120 c 0
 913 62 879 12 836 -31 c 0
 793 -74 742 -107 684 -132 c 0
 626 -157 565 -170 500 -170 c 0
 435 -170 374 -157 316 -132 c 0
 258 -107 207 -74 164 -31 c 0
 121 12 87 62 62 120 c 0
 37 178 25 240 25 305 c 0
72 305 m 0
 72 186 114 85 197 2 c 0
 280 -81 381 -123 500 -123 c 0
 619 -123 720 -81 803 2 c 0
 886 85 928 186 928 305 c 0
 928 424 886 525 803 608 c 0
 720 691 619 733 500 733 c 0
 381 733 280 691 197 608 c 0
 114 525 72 424 72 305 c 0
EndSplineSet
Colour: ff
EndChar
StartChar: uF3FDE
Encoding: 999390 999390 159
Width: 1000
Flags: MW
LayerCount: 2
Fore
SplineSet
0 384 m 1
 0 476 l 1
 28 476 20 462 30 438 c 0
 46 394 110 345 214 337 c 0
 234 335 252 335 272 335 c 2
 730 335 l 2
 782 335 866 335 938 287 c 0
 956 274 982 252 1000 221 c 1
 1000 124 l 17
 970 124 983 148 962 180 c 0
 910 260 790 265 744 265 c 2
 270 265 l 2
 208 265 62 267 0 384 c 1
EndSplineSet
EndChar
StartChar: uF3FDF
Encoding: 999391 999391 160
Width: 1000
Flags: MW
LayerCount: 2
Fore
SplineSet
0 124 m 1
 0 216 l 1
 62 333 208 335 270 335 c 2
 744 335 l 2
 790 335 910 340 962 420 c 0
 983 452 970 476 1000 476 c 9
 1000 379 l 1
 982 348 956 326 938 313 c 0
 866 265 782 265 730 265 c 2
 272 265 l 2
 252 265 234 265 214 263 c 0
 110 255 46 206 30 162 c 0
 20 138 28 124 0 124 c 1
EndSplineSet
EndChar
StartChar: uF4FF9
Encoding: 1003513 1003513 166
Width: 1000
Flags: MW
LayerCount: 2
Fore
SplineSet
141 51 m 1
 306 97 436 177 530 291 c 0
 624 405 683 554 705 737 c 1
 785 729 l 1
 761 531 698 370 596 246 c 4
 493 120 350 31 167 -20 c 1
 141 51 l 1
EndSplineSet
EndChar
StartChar: uF4FFB
Encoding: 1003515 1003515 168
Width: 1000
Flags: MW
LayerCount: 2
Fore
SplineSet
277 743 m 1
 277 443 l 1
 454 474 632 525 813 596 c 1
 836 530 l 1
 650 458 464 406 277 373 c 1
 277 200 l 2
 277 146 286 112 303 96 c 128
 320 80 358 72 417 72 c 0
 551 72 687 78 824 90 c 1
 827 22 l 1
 677 9 537 3 408 3 c 0
 326 3 271 17 242 44 c 128
 213 71 198 124 198 203 c 2
 198 743 l 1
 277 743 l 1
EndSplineSet
EndChar
StartChar: uF4FFD
Encoding: 1003517 1003517 170
Width: 1000
Flags: MW
LayerCount: 2
Fore
SplineSet
48 201 m 1
 117 287 183 373 248 458 c 0
 302 531 338 575 355 592 c 128
 372 609 393 617 418 617 c 0
 426 617 434 616 441 615 c 0
 459 612 475 604 489 593 c 128
 496 587 507 577 521 564 c 4
 544 541 577 508 619 463 c 0
 760 314 870 199 951 118 c 1
 895 62 l 1
 798 159 688 275 564 408 c 0
 510 465 476 502 460 516 c 128
 444 530 430 537 418 537 c 0
 410 537 399 530 386 515 c 128
 373 500 348 468 310 418 c 0
 259 348 191 261 108 156 c 1
 48 201 l 1
EndSplineSet
EndChar
StartChar: uF4FFF
Encoding: 1003519 1003519 172
Width: 1000
Flags: MW
LayerCount: 2
Fore
SplineSet
108 628 m 1
 108 697 l 1
 882 697 l 1
 882 628 l 1
 855 553 807 481 740 412 c 128
 673 343 589 281 489 226 c 1
 536 161 582 92 627 20 c 1
 566 -19 l 1
 472 132 370 269 261 394 c 1
 318 440 l 1
 359 394 401 342 445 285 c 1
 629 388 747 503 798 628 c 1
 108 628 l 1
EndSplineSet
EndChar
StartChar: uF5001
Encoding: 1003521 1003521 174
Width: 1000
Flags: MW
LayerCount: 2
Fore
SplineSet
643 385 m 1
 704 419 l 1
 783 288 858 153 928 15 c 1
 864 -17 l 1
 853 5 843 24 834 42 c 4
 822 65 812 84 804 100 c 1
 557 56 318 27 85 12 c 1
 81 80 l 1
 133 84 172 87 197 89 c 1
 281 307 349 526 400 745 c 1
 475 730 l 1
 426 521 361 310 278 96 c 1
 441 111 605 133 770 161 c 1
 725 243 683 318 643 385 c 1
EndSplineSet
EndChar
StartChar: uF5002
Encoding: 1003522 1003522 175
Width: 1000
Flags: MW
LayerCount: 2
Fore
SplineSet
240 564 m 1
 284 621 l 1
 371 562 459 496 549 423 c 1
 616 524 666 634 700 755 c 1
 772 734 l 1
 737 602 682 482 609 373 c 1
 699 296 781 221 855 146 c 1
 804 91 l 1
 735 162 656 236 567 313 c 1
 459 172 322 58 156 -28 c 1
 115 34 l 1
 272 116 402 226 507 364 c 1
 422 434 333 501 240 564 c 1
EndSplineSet
EndChar
StartChar: uF5003
Encoding: 1003523 1003523 176
Width: 1000
Flags: MW
LayerCount: 2
Fore
SplineSet
183 705 m 1
 817 705 l 1
 817 638 l 1
 477 638 l 1
 477 432 l 1
 907 432 l 1
 907 365 l 1
 477 365 l 1
 477 173 l 2
 477 132 484 105 498 92 c 128
 512 79 540 73 583 73 c 0
 679 73 770 76 855 83 c 1
 857 15 l 1
 766 8 669 5 568 5 c 0
 504 5 460 17 435 41 c 128
 410 65 398 109 398 172 c 2
 398 365 l 1
 93 365 l 1
 93 432 l 1
 398 432 l 1
 398 638 l 1
 183 638 l 1
 183 705 l 1
EndSplineSet
EndChar
StartChar: uF5005
Encoding: 1003525 1003525 178
Width: 1000
Flags: MW
LayerCount: 2
Fore
SplineSet
203 678 m 1
 734 678 l 1
 692 115 l 1
 903 115 l 1
 903 47 l 1
 97 47 l 1
 97 115 l 1
 614 115 l 1
 615 124 617 146 620 182 c 128
 622 202 623 224 625 247 c 0
 626 266 627 286 629 307 c 128
 631 332 632 357 634 381 c 0
 639 443 l 128
 641 466 642 487 644 507 c 4
 645 526 647 543 648 559 c 128
 651 592 652 609 652 610 c 2
 203 610 l 1
 203 678 l 1
EndSplineSet
EndChar
StartChar: uF5006
Encoding: 1003526 1003526 179
Width: 1000
Flags: MW
LayerCount: 2
Fore
SplineSet
147 697 m 1
 828 697 l 1
 828 -10 l 1
 750 -10 l 1
 750 48 l 1
 147 48 l 1
 147 117 l 1
 750 117 l 1
 750 345 l 1
 197 345 l 1
 197 413 l 1
 750 413 l 1
 750 628 l 1
 147 628 l 1
 147 697 l 1
EndSplineSet
EndChar
StartChar: uF5009
Encoding: 1003529 1003529 182
Width: 1000
Flags: MW
LayerCount: 2
Fore
SplineSet
520 -15 m 1
 520 728 l 1
 597 728 l 1
 597 66 l 1
 749 111 843 232 878 429 c 1
 950 414 l 1
 931 301 893 209 836 138 c 4
 777 65 697 14 597 -15 c 1
 520 -15 l 1
273 728 m 1
 350 728 l 1
 350 545 l 2
 350 451 347 374 340 314 c 128
 333 254 320 202 302 157 c 128
 284 112 260 77 232 50 c 128
 204 23 166 -3 119 -28 c 1
 76 31 l 1
 99 43 119 55 137 67 c 0
 161 84 181 102 196 120 c 128
 210 138 223 160 233 189 c 0
 241 211 248 236 254 265 c 128
 267 330 273 424 273 545 c 2
 273 728 l 1
EndSplineSet
EndChar
StartChar: uF500D
Encoding: 1003533 1003533 186
Width: 1000
Flags: MW
LayerCount: 2
Fore
SplineSet
127 618 m 1
 615 618 l 1
 615 760 l 1
 692 760 l 1
 692 618 l 1
 880 618 l 1
 880 552 l 1
 692 552 l 1
 692 217 l 1
 917 217 l 1
 917 150 l 1
 692 150 l 1
 692 -40 l 1
 615 -40 l 1
 615 150 l 1
 83 150 l 1
 83 217 l 1
 287 217 l 1
 287 552 l 1
 127 552 l 1
 127 618 l 1
362 217 m 1
 615 217 l 1
 615 552 l 1
 362 552 l 1
 362 217 l 1
EndSplineSet
EndChar
StartChar: uF500E
Encoding: 1003534 1003534 187
Width: 1000
Flags: MW
LayerCount: 2
Fore
SplineSet
123 95 m 1
 435 95 l 1
 435 537 l 1
 512 537 l 1
 512 95 l 1
 877 95 l 1
 877 27 l 1
 123 27 l 1
 123 95 l 1
163 625 m 1
 163 693 l 1
 850 693 l 1
 850 625 l 1
 841 564 818 505 781 450 c 128
 744 395 695 347 635 308 c 1
 587 363 l 1
 692 432 754 519 775 625 c 1
 163 625 l 1
EndSplineSet
EndChar
StartChar: uF500F
Encoding: 1003535 1003535 188
Width: 1000
Flags: MW
LayerCount: 2
Fore
SplineSet
148 640 m 1
 148 707 l 1
 857 707 l 1
 857 640 l 1
 842 453 786 304 687 192 c 128
 588 80 452 10 279 -17 c 1
 262 50 l 1
 490 87 644 199 724 388 c 1
 195 388 l 1
 195 455 l 1
 748 455 l 1
 765 511 776 573 781 640 c 1
 148 640 l 1
EndSplineSet
EndChar
StartChar: uF5010
Encoding: 1003536 1003536 189
Width: 1000
Flags: MW
LayerCount: 2
Fore
SplineSet
169 70 m 1
 351 87 498 142 610 236 c 128
 722 330 794 460 828 624 c 1
 900 606 l 1
 865 427 785 286 662 181 c 128
 539 76 378 15 179 -2 c 1
 169 70 l 1
158 656 m 1
 199 717 l 1
 290 663 380 603 467 537 c 1
 424 476 l 1
 337 541 248 601 158 656 c 1
EndSplineSet
EndChar
StartChar: uF5022
Encoding: 1003554 1003554 191
Width: 1000
Flags: MW
LayerCount: 2
Fore
SplineSet
253 667 m 1
 290 692 329 711 371 723 c 4
 410 734 451 740 495 740 c 0
 570 740 627 722 668 686 c 128
 709 650 730 598 730 533 c 128
 730 468 705 402 655 335 c 128
 605 268 511 180 374 69 c 1
 374 67 l 1
 733 67 l 1
 733 0 l 1
 263 0 l 1
 263 67 l 1
 412 184 514 276 567 342 c 128
 620 408 647 469 647 527 c 0
 647 574 634 610 606 635 c 128
 578 660 538 672 485 672 c 0
 415 672 346 649 277 603 c 1
 253 667 l 1
EndSplineSet
EndChar
StartChar: uF5023
Encoding: 1003555 1003555 192
Width: 1000
Flags: MW
LayerCount: 2
Fore
SplineSet
498 740 m 0
 571 740 628 724 670 694 c 128
 712 664 732 624 732 573 c 0
 732 529 719 492 693 463 c 0
 665 432 622 409 564 395 c 1
 564 393 l 1
 686 374 747 313 747 210 c 0
 747 139 724 85 677 47 c 128
 630 9 564 -10 477 -10 c 0
 395 -10 319 11 248 52 c 1
 272 116 l 1
 338 77 405 57 473 57 c 0
 535 57 582 69 614 93 c 4
 649 119 667 159 667 213 c 0
 667 261 647 297 607 321 c 128
 567 345 503 357 415 357 c 2
 368 357 l 1
 368 423 l 1
 415 423 l 2
 492 423 551 435 592 459 c 128
 633 483 653 517 653 560 c 0
 653 596 639 624 611 644 c 128
 583 664 542 673 488 673 c 0
 427 673 362 654 293 616 c 1
 270 680 l 1
 343 720 419 740 498 740 c 0
EndSplineSet
EndChar
StartChar: uF5024
Encoding: 1003556 1003556 193
Width: 1000
Flags: MW
LayerCount: 2
Fore
SplineSet
550 235 m 1
 550 612 l 1
 548 612 l 1
 275 237 l 1
 275 235 l 1
 550 235 l 1
629 235 m 1
 763 235 l 1
 763 170 l 1
 629 170 l 1
 629 0 l 1
 550 0 l 1
 550 170 l 1
 190 170 l 1
 190 235 l 1
 550 730 l 1
 629 730 l 1
 629 235 l 1
EndSplineSet
EndChar
StartChar: uF5025
Encoding: 1003557 1003557 194
Width: 1000
Flags: MW
LayerCount: 2
Fore
SplineSet
712 663 m 1
 376 663 l 1
 362 427 l 1
 364 427 l 1
 407 450 454 462 507 462 c 0
 581 462 639 443 680 404 c 128
 721 365 742 311 742 240 c 0
 742 159 718 97 671 54 c 128
 624 11 554 -10 463 -10 c 0
 391 -10 325 6 265 38 c 1
 285 104 l 1
 342 73 402 57 463 57 c 0
 528 57 578 73 612 104 c 128
 646 135 662 180 662 240 c 0
 662 291 647 331 618 358 c 128
 589 385 548 398 493 398 c 0
 437 398 390 383 352 352 c 1
 282 352 l 1
 304 730 l 1
 712 730 l 1
 712 663 l 1
EndSplineSet
EndChar
StartChar: uF5027
Encoding: 1003559 1003559 196
Width: 1000
Flags: MW
LayerCount: 2
Fore
SplineSet
257 730 m 1
 750 730 l 1
 750 663 l 1
 623 470 520 249 439 0 c 1
 355 0 l 1
 440 246 545 466 672 661 c 1
 672 663 l 1
 257 663 l 1
 257 730 l 1
EndSplineSet
EndChar
StartChar: uF5028
Encoding: 1003560 1003560 197
Width: 1000
Flags: MW
LayerCount: 2
Fore
SplineSet
497 357 m 1
 433 345 385 325 352 298 c 128
 319 271 303 238 303 200 c 0
 303 155 321 119 356 93 c 128
 391 67 439 54 500 54 c 128
 561 54 610 68 644 94 c 128
 678 120 695 155 695 200 c 0
 695 251 669 290 617 318 c 0
 586 335 546 348 497 357 c 1
500 420 m 1
 555 431 597 448 627 472 c 128
 657 496 672 525 672 558 c 0
 672 595 656 623 626 644 c 128
 596 665 554 676 500 676 c 0
 447 676 406 665 376 644 c 128
 346 623 331 595 331 558 c 0
 331 525 346 496 375 472 c 128
 404 448 446 430 500 420 c 1
500 740 m 128
 577 740 637 724 681 692 c 128
 725 660 747 618 747 565 c 0
 747 485 698 428 601 394 c 1
 601 392 l 1
 716 359 773 294 773 197 c 0
 773 134 749 83 700 46 c 128
 651 9 585 -10 500 -10 c 128
 415 -10 349 9 300 46 c 128
 251 83 227 134 227 197 c 0
 227 240 242 279 272 312 c 128
 302 345 344 369 399 386 c 1
 399 388 l 1
 353 405 318 428 292 459 c 128
 266 490 253 525 253 565 c 0
 253 618 275 660 319 692 c 128
 363 724 423 740 500 740 c 128
EndSplineSet
EndChar
StartChar: uF502A
Encoding: 1003562 1003562 199
Width: 1000
Flags: MW
LayerCount: 2
Fore
SplineSet
500 675 m 128
 434 675 385 651 352 602 c 128
 319 553 302 474 302 365 c 128
 302 256 319 177 352 128 c 128
 385 79 434 55 500 55 c 128
 566 55 615 79 648 128 c 128
 681 177 698 256 698 365 c 128
 698 474 681 553 648 602 c 128
 615 651 566 675 500 675 c 128
500 740 m 128
 588 740 656 711 705 653 c 128
 754 595 778 499 778 365 c 128
 778 231 754 135 705 77 c 128
 656 19 588 -10 500 -10 c 128
 412 -10 344 19 295 77 c 128
 246 135 222 231 222 365 c 128
 222 499 246 595 295 653 c 128
 344 711 412 740 500 740 c 128
EndSplineSet
EndChar
